<svg xmlns="http://www.w3.org/2000/svg" width="336" height="356" viewBox="0 0 336 356" xmlns:c2pa="http://c2pa.org/manifest"><metadata><c2pa:manifest>AAAWgmp1bWIAAAAeanVtZGMycGEAEQAQgAAAqgA4m3EDYzJwYQAAABZcanVtYgAAAEdqdW1kYzJtYQARABCAAACqADibcQN1cm46YzJwYTo0OWUzMzY1MC1mOGJkLTRlOTgtYjRjMC05ZGQzNGQ3NTA3N2QAAAADl2p1bWIAAAApanVtZGMyYXMAEQAQgAAAqgA4m3EDYzJwYS5hc3NlcnRpb25zAAAAALxqdW1iAAAARGp1bWRjYm9yABEAEIAAAKoAOJtxE2MycGEuaW5ncmVkaWVudC52MwAAAAAYYzJzaNYrLao/J3Kn9L0d0dTYNJ4AAABwY2JvcqNpZGM6Zm9ybWF0bWltYWdlL3N2Zyt4bWxqaW5zdGFuY2VJRHgseG1wOmlpZDpmZjU1MGUzZS01ZjA4LTQyYmMtYjU4NC0wMDU0MTE5YjE1MjdscmVsYXRpb25zaGlwaHBhcmVudE9mAAAB4mp1bWIAAABBanVtZGNib3IAEQAQgAAAqgA4m3ETYzJwYS5hY3Rpb25zLnYyAAAAABhjMnNojsbNpnU97R73Lkqak27zLAAAAZljYm9yomdhY3Rpb25zgqJmYWN0aW9ua2MycGEub3BlbmVkanBhcmFtZXRlcnOha2luZ3JlZGllbnRzgaJjdXJseC1zZWxmI2p1bWJmPWMycGEuYXNzZXJ0aW9ucy9jMnBhLmluZ3JlZGllbnQudjNkaGFzaFggyeESiLf8c+0coOdpRQEeaELqh30rlpgaQRf6MsyA722kZmFjdGlvbngdY29tLmFudGhyb3BpYy5jbGF1ZGUucHJvdmlkZWRqcGFyYW1ldGVyc6F4H2NvbS5hbnRocm9waWMub3JpZ2luLWNvbmZpZGVuY2VndW5rbm93bmtkZXNjcmlwdGlvbnhmQ2xhdWRlIHByb3ZpZGVkIHRoaXMgZmlsZSBhdCB0aGUgcmVxdWVzdCBvZiBhIHVzZXIgYW5kIG1heSBoYXZlIGNyZWF0ZWQgb3IgbW9kaWZpZWQgdGhlIGZpbGUgY29udGVudHMubXNvZnR3YXJlQWdlbnShZG5hbWVmQ2xhdWRlcmFsbEFjdGlvbnNJbmNsdWRlZPUAAADIanVtYgAAAEBqdW1kY2JvcgARABCAAACqADibcRNjMnBhLmhhc2guZGF0YQAAAAAYYzJzaJ46S4VkA5eiUKpaNiXGqHUAAACAY2JvcqVjYWxnZnNoYTI1NmNwYWRNAAAAAAAAAAAAAAAAAGRoYXNoWCCDy76KBFi3wsrR/i5Y32SCxRsZXD7xbJaCWVlWs4jgE2RuYW1lbmp1bWJmIG1hbmlmZXN0amV4Y2x1c2lvbnOBomVzdGFydBiWZmxlbmd0aBkeBAAAAj5qdW1iAAAAJ2p1bWRjMmNsABEAEIAAAKoAOJtxA2MycGEuY2xhaW0udjIAAAACD2Nib3KlY2FsZ2ZzaGEyNTZpc2lnbmF0dXJleE1zZWxmI2p1bWJmPS9jMnBhL3VybjpjMnBhOjQ5ZTMzNjUwLWY4YmQtNGU5OC1iNGMwLTlkZDM0ZDc1MDc3ZC9jMnBhLnNpZ25hdHVyZWppbnN0YW5jZUlEeCx4bXA6aWlkOjc1NWQzNTEzLTg1NjUtNDkyNS1iNjhhLWI5MWNjOWNhNWFhOXJjcmVhdGVkX2Fzc2VydGlvbnODomN1cmx4LXNlbGYjanVtYmY9YzJwYS5hc3NlcnRpb25zL2MycGEuaW5ncmVkaWVudC52M2RoYXNoWCDJ4RKIt/xz7Ryg52lFAR5oQuqHfSuWmBpBF/oyzIDvbaJjdXJseCpzZWxmI2p1bWJmPWMycGEuYXNzZXJ0aW9ucy9jMnBhLmFjdGlvbnMudjJkaGFzaFggRke5oOzI2N9S71DUkmSdRyvc7q6wXCT1rgtt/jTTEkiiY3VybHgpc2VsZiNqdW1iZj1jMnBhLmFzc2VydGlvbnMvYzJwYS5oYXNoLmRhdGFkaGFzaFggwzqtrXEE3HORi/+KMaTMNTKEaMwP89HpbapxznS92MR0Y2xhaW1fZ2VuZXJhdG9yX2luZm+jZG5hbWVvQW50aHJvcGljIEZpbGVzZ3ZlcnNpb25lMS4wLjBrc3BlY1ZlcnNpb25lMi40LjAAABA4anVtYgAAAChqdW1kYzJjcwARABCAAACqADibcQNjMnBhLnNpZ25hdHVyZQAAABAIY2JvctKEWQISogEmGCFZAgowggIGMIIBjaADAgECAhRA5aAK7sI50L64g/oGQgU9Z1UTADAKBggqhkjOPQQDAzBJMRcwFQYDVQQKEw5BbnRocm9waWMsIFBCQzEuMCwGA1UEAxMlQW50aHJvcGljIENvbnRlbnQgQ3JlZGVudGlhbHMgUm9vdCBDQTAeFw0yNjA4MDcxODQzNTZaFw0yODA4MDYxOTQzNTZaMEQxFzAVBgNVBAoTDkFudGhyb3BpYywgUEJDMSkwJwYDVQQDEyBBbnRocm9waWMgQ2xhdWRlIENvbnRlbnQgU2lnbmluZzBZMBMGByqGSM49AgEGCCqGSM49AwEHA0IABJh6CmvLUBgFFNU0vUKlOVtE6djd17L5SuwX0LemFisBM3dkd/3cyjxFA3Qo5S46fX0/ihY0VZ7mfb9KF703t5OjWDBWMA4GA1UdDwEB/wQEAwIHgDAVBgNVHSUEDjAMBgorBgEEAYPoXgIBMAwGA1UdEwEB/wQCMAAwHwYDVR0jBBgwFoAUzlHiBIFOZFsj+OPEz5o+nMHXXMIwCgYIKoZIzj0EAwMDZwAwZAIwMXMdFJ4BetLLVY7ORuE9noqbbAZOZn/aArXyTwFAZfKrPzxF2vPoJNf1+UCdg1XGAjBwX1zd9WGqYkqmL5SFqw1QySjr1zJfpJM9+1rdDwSPLMOPOjKuiXjoU/pUUeG9RwmhY3BhZFkNngAAAAAAAAAAAAAAAAAAAAAAAAAAAAAAAAAAAAAAAAAAAAAAAAAAAAAAAAAAAAAAAAAAAAAAAAAAAAAAAAAAAAAAAAAAAAAAAAAAAAAAAAAAAAAAAAAAAAAAAAAAAAAAAAAAAAAAAAAAAAAAAAAAAAAAAAAAAAAAAAAAAAAAAAAAAAAAAAAAAAAAAAAAAAAAAAAAAAAAAAAAAAAAAAAAAAAAAAAAAAAAAAAAAAAAAAAAAAAAAAAAAAAAAAAAAAAAAAAAAAAAAAAAAAAAAAAAAAAAAAAAAAAAAAAAAAAAAAAAAAAAAAAAAAAAAAAAAAAAAAAAAAAAAAAAAAAAAAAAAAAAAAAAAAAAAAAAAAAAAAAAAAAAAAAAAAAAAAAAAAAAAAAAAAAAAAAAAAAAAAAAAAAAAAAAAAAAAAAAAAAAAAAAAAAAAAAAAAAAAAAAAAAAAAAAAAAAAAAAAAAAAAAAAAAAAAAAAAAAAAAAAAAAAAAAAAAAAAAAAAAAAAAAAAAAAAAAAAAAAAAAAAAAAAAAAAAAAAAAAAAAAAAAAAAAAAAAAAAAAAAAAAAAAAAAAAAAAAAAAAAAAAAAAAAAAAAAAAAAAAAAAAAAAAAAAAAAAAAAAAAAAAAAAAAAAAAAAAAAAAAAAAAAAAAAAAAAAAAAAAAAAAAAAAAAAAAAAAAAAAAAAAAAAAAAAAAAAAAAAAAAAAAAAAAAAAAAAAAAAAAAAAAAAAAAAAAAAAAAAAAAAAAAAAAAAAAAAAAAAAAAAAAAAAAAAAAAAAAAAAAAAAAAAAAAAAAAAAAAAAAAAAAAAAAAAAAAAAAAAAAAAAAAAAAAAAAAAAAAAAAAAAAAAAAAAAAAAAAAAAAAAAAAAAAAAAAAAAAAAAAAAAAAAAAAAAAAAAAAAAAAAAAAAAAAAAAAAAAAAAAAAAAAAAAAAAAAAAAAAAAAAAAAAAAAAAAAAAAAAAAAAAAAAAAAAAAAAAAAAAAAAAAAAAAAAAAAAAAAAAAAAAAAAAAAAAAAAAAAAAAAAAAAAAAAAAAAAAAAAAAAAAAAAAAAAAAAAAAAAAAAAAAAAAAAAAAAAAAAAAAAAAAAAAAAAAAAAAAAAAAAAAAAAAAAAAAAAAAAAAAAAAAAAAAAAAAAAAAAAAAAAAAAAAAAAAAAAAAAAAAAAAAAAAAAAAAAAAAAAAAAAAAAAAAAAAAAAAAAAAAAAAAAAAAAAAAAAAAAAAAAAAAAAAAAAAAAAAAAAAAAAAAAAAAAAAAAAAAAAAAAAAAAAAAAAAAAAAAAAAAAAAAAAAAAAAAAAAAAAAAAAAAAAAAAAAAAAAAAAAAAAAAAAAAAAAAAAAAAAAAAAAAAAAAAAAAAAAAAAAAAAAAAAAAAAAAAAAAAAAAAAAAAAAAAAAAAAAAAAAAAAAAAAAAAAAAAAAAAAAAAAAAAAAAAAAAAAAAAAAAAAAAAAAAAAAAAAAAAAAAAAAAAAAAAAAAAAAAAAAAAAAAAAAAAAAAAAAAAAAAAAAAAAAAAAAAAAAAAAAAAAAAAAAAAAAAAAAAAAAAAAAAAAAAAAAAAAAAAAAAAAAAAAAAAAAAAAAAAAAAAAAAAAAAAAAAAAAAAAAAAAAAAAAAAAAAAAAAAAAAAAAAAAAAAAAAAAAAAAAAAAAAAAAAAAAAAAAAAAAAAAAAAAAAAAAAAAAAAAAAAAAAAAAAAAAAAAAAAAAAAAAAAAAAAAAAAAAAAAAAAAAAAAAAAAAAAAAAAAAAAAAAAAAAAAAAAAAAAAAAAAAAAAAAAAAAAAAAAAAAAAAAAAAAAAAAAAAAAAAAAAAAAAAAAAAAAAAAAAAAAAAAAAAAAAAAAAAAAAAAAAAAAAAAAAAAAAAAAAAAAAAAAAAAAAAAAAAAAAAAAAAAAAAAAAAAAAAAAAAAAAAAAAAAAAAAAAAAAAAAAAAAAAAAAAAAAAAAAAAAAAAAAAAAAAAAAAAAAAAAAAAAAAAAAAAAAAAAAAAAAAAAAAAAAAAAAAAAAAAAAAAAAAAAAAAAAAAAAAAAAAAAAAAAAAAAAAAAAAAAAAAAAAAAAAAAAAAAAAAAAAAAAAAAAAAAAAAAAAAAAAAAAAAAAAAAAAAAAAAAAAAAAAAAAAAAAAAAAAAAAAAAAAAAAAAAAAAAAAAAAAAAAAAAAAAAAAAAAAAAAAAAAAAAAAAAAAAAAAAAAAAAAAAAAAAAAAAAAAAAAAAAAAAAAAAAAAAAAAAAAAAAAAAAAAAAAAAAAAAAAAAAAAAAAAAAAAAAAAAAAAAAAAAAAAAAAAAAAAAAAAAAAAAAAAAAAAAAAAAAAAAAAAAAAAAAAAAAAAAAAAAAAAAAAAAAAAAAAAAAAAAAAAAAAAAAAAAAAAAAAAAAAAAAAAAAAAAAAAAAAAAAAAAAAAAAAAAAAAAAAAAAAAAAAAAAAAAAAAAAAAAAAAAAAAAAAAAAAAAAAAAAAAAAAAAAAAAAAAAAAAAAAAAAAAAAAAAAAAAAAAAAAAAAAAAAAAAAAAAAAAAAAAAAAAAAAAAAAAAAAAAAAAAAAAAAAAAAAAAAAAAAAAAAAAAAAAAAAAAAAAAAAAAAAAAAAAAAAAAAAAAAAAAAAAAAAAAAAAAAAAAAAAAAAAAAAAAAAAAAAAAAAAAAAAAAAAAAAAAAAAAAAAAAAAAAAAAAAAAAAAAAAAAAAAAAAAAAAAAAAAAAAAAAAAAAAAAAAAAAAAAAAAAAAAAAAAAAAAAAAAAAAAAAAAAAAAAAAAAAAAAAAAAAAAAAAAAAAAAAAAAAAAAAAAAAAAAAAAAAAAAAAAAAAAAAAAAAAAAAAAAAAAAAAAAAAAAAAAAAAAAAAAAAAAAAAAAAAAAAAAAAAAAAAAAAAAAAAAAAAAAAAAAAAAAAAAAAAAAAAAAAAAAAAAAAAAAAAAAAAAAAAAAAAAAAAAAAAAAAAAAAAAAAAAAAAAAAAAAAAAAAAAAAAAAAAAAAAAAAAAAAAAAAAAAAAAAAAAAAAAAAAAAAAAAAAAAAAAAAAAAAAAAAAAAAAAAAAAAAAAAAAAAAAAAAAAAAAAAAAAAAAAAAAAAAAAAAAAAAAAAAAAAAAAAAAAAAAAAAAAAAAAAAAAAAAAAAAAAAAAAAAAAAAAAAAAAAAAAAAAAAAAAAAAAAAAAAAAAAAAAAAAAAAAAAAAAAAAAAAAAAAAAAAAAAAAAAAAAAAAAAAAAAAAAAAAAAAAAAAAAAAAAAAAAAAAAAAAAAAAAAAAAAAAAAAAAAAAAAAAAAAAAAAAAAAAAAAAAAAAAAAAAAAAAAAAAAAAAAAAAAAAAAAAAAAAAAAAAAAAAAAAAAAAAAAAAAAAAAAAAAAAAAAAAAAAAAAAAAAAAAAAAAAAAAAAAAAAAAAAAAAAAAAAAAAAAAAAAAAAAAAAAAAAAAAAAAAAAAAAAAAAAAAAAAAAAAAAAAAAAAAAAAAAAAAAAAAAAAAAAAAAAAAAAAAAAAAAAAAAAAAAAAAAAAAAAAAAAAAAAAAAAAAAAAAAAAAAAAAAAAAAAAAAAAAAAAAAAAAAAAAAAAAAAAAAAAAAAAAAAAAAAAAAAAAAAAAAAAAAAAAAAAAAAAAAAAAAAAAAAAAAAAAAAAAAAAAAAAAAAAAAAAAAAAAAAAAAAAAAAAAAAAAAAAAAAAAAAAAAAAAAAAAAAAAAAAAAAAAAAAAAAAAAAAAAAAAAAAAAAAAAAAAAAAAAAAAAAAAAAAAAAAAAAAAAAAAAAAAAAAAAAAAAAAAAAAAAAAAAAAAAAAAAAAAAAAAAAAAAAAAAAAAAAAAAAAAAAAAAAAAAAAAAAAAAAAAAAAAAAAAAAAAAAAAAAAAAAAAAAAAAAAAAAAAAAAAAAAAAAAAAAAAAAAAAAAAAAAAAAAAAAAAAAAAAAAAAAAAAAAAAAAAAAAAAAAAAAAAAAAAAAAAAAAAAAAAAAAAAAAAAAAAAAAAAAAAAAAAAAAAAAAAAAAAAAAAAAAAAAAAAAAAAAAAAAAAAAAAAAAAAAAAAAAAAAAAAAAAAAAAAAAAAAAAAAAAAAAAAAAAAAAAAAAAAAAAAAAAAAAAAAAAAAAAAAAAAAAAAAAAAAAAAAAAAAAAAAAAAAAAAAAAAAAAAAAAAAAAAAAAAAAAAAAAAAAAAAAAAAAAAAAAAAAAAAAAAAAAAAAAAAAAAAAAAAAAAAAAAAAAAAAAAAAAAAAAAAAAAAAAAAAAAAAAAAAAAAAAAAAAAAAAAAAAAAAAAAAAAAAAAAAAAAAAAAAAAAAAAAAAAAAAAAAAAAAAAAAAAAAAAAAAAAAAAAAAAAAAAAAAAAAAAAAAAAAAAAAAAAAAAAAAAAAAAAAAAAAAAAAAAAAAAAAAAAAAAAAAAAAAAAAAAAAAAAAAAAAAAAAAAAAAAAAAAAAAAAAAAAAAAAAAAAAAAAAAAAAAAAAAAAAAAAAAAAAAAAAAAAAAAAAAAAAAAAAAAAAAAAAAAAAAAAAAAAAAAAAAAAAAAAAAAAAAAAAAAAAAAAAAAAAAAAAAAAAAAAAAAAAAAAAAAAAAAAAAAAAAAAAAAAAAAAAAAAAAAAAAAAAAAAAAAAAAAAAAAAAAAAAAAAAAAAAAAAAAAAAAAAAAAAAAAAAAAAAAAAAAAAAAAAAAAAAAAAAAAAAAAAAAAAAAAAAAAAAAAAAAAAAAAPZYQF++22d6f+A4jitZyQJuaFe+iD+0ILf/8stqWuWk8Kbhycignfj+n45oKwuS5MBUPubxuDT3Vw4fW03RUBQiBUg=</c2pa:manifest></metadata><g transform="translate(18 18) scale(1 1) translate(300 0) scale(-1 1)"><polygon points="225.6,291.0 210.4,299.3 172.1,303.8 128.4,302.2 99.9,295.4 99.9,286.6 128.4,279.8 172.1,278.2 210.4,282.7" fill="#17251B" opacity=".3"></polygon><polygon points="83.6,123.0 48.7,181.8 75.3,198.2 112.4,141.0" fill="#17251B" stroke="#17251B" stroke-width="11" stroke-linejoin="miter"></polygon><polygon points="79.0,190.0 70.5,204.7 53.5,204.7 45.0,190.0 53.5,175.3 70.5,175.3" fill="#17251B" stroke="#17251B" stroke-width="11" stroke-linejoin="miter"></polygon><polygon points="46.8,191.6 54.5,249.4 81.5,246.6 77.2,188.4" fill="#17251B" stroke="#17251B" stroke-width="11" stroke-linejoin="miter"></polygon><polygon points="91.9,255.8 77.1,272.4 55.5,270.7 43.3,251.9 49.7,230.1 69.9,221.8 88.7,233.2" fill="#17251B" stroke="#17251B" stroke-width="11" stroke-linejoin="miter"></polygon><polygon points="49.0,254.0 59.0,254.0 54.0,270.0" fill="#17251B" stroke="#17251B" stroke-width="11" stroke-linejoin="miter"></polygon><polygon points="63.0,258.0 73.0,258.0 68.0,274.0" fill="#17251B" stroke="#17251B" stroke-width="11" stroke-linejoin="miter"></polygon><polygon points="77.0,254.0 87.0,254.0 82.0,270.0" fill="#17251B" stroke="#17251B" stroke-width="11" stroke-linejoin="miter"></polygon><polygon points="105.3,225.7 94.5,254.2 121.5,265.8 134.7,238.3" fill="#17251B" stroke="#17251B" stroke-width="11" stroke-linejoin="miter"></polygon><polygon points="123.4,260.0 115.7,273.3 100.3,273.3 92.6,260.0 100.3,246.7 115.7,246.7" fill="#17251B" stroke="#17251B" stroke-width="11" stroke-linejoin="miter"></polygon><polygon points="96.8,251.0 89.8,261.8 110.2,278.2 119.2,269.0" fill="#17251B" stroke="#17251B" stroke-width="11" stroke-linejoin="miter"></polygon><polygon points="80.2,262.0 119.8,262.0 121.8,288.0 67.2,288.0" fill="#17251B" stroke="#17251B" stroke-width="11" stroke-linejoin="miter"></polygon><polygon points="163.7,239.2 178.8,266.6 205.2,253.4 192.3,224.8" fill="#17251B" stroke="#17251B" stroke-width="11" stroke-linejoin="miter"></polygon><polygon points="207.4,260.0 199.7,273.3 184.3,273.3 176.6,260.0 184.3,246.7 199.7,246.7" fill="#17251B" stroke="#17251B" stroke-width="11" stroke-linejoin="miter"></polygon><polygon points="180.8,269.0 189.8,278.2 210.2,261.8 203.2,251.0" fill="#17251B" stroke="#17251B" stroke-width="11" stroke-linejoin="miter"></polygon><polygon points="180.2,262.0 219.8,262.0 232.8,288.0 178.2,288.0" fill="#17251B" stroke="#17251B" stroke-width="11" stroke-linejoin="miter"></polygon><polygon points="90.0,120.0 150.0,98.0 210.0,116.0 226.0,170.0 198.0,238.0 106.0,240.0 78.0,180.0" fill="#17251B" stroke="#17251B" stroke-width="11" stroke-linejoin="miter"></polygon><polygon points="118.0,170.0 170.0,166.0 178.0,214.0 112.0,216.0" fill="#17251B" stroke="#17251B" stroke-width="11" stroke-linejoin="miter"></polygon><polygon points="96.0,118.0 86.0,90.0 112.0,110.0" fill="#17251B" stroke="#17251B" stroke-width="11" stroke-linejoin="miter"></polygon><polygon points="200.0,110.0 214.0,84.0 216.0,118.0" fill="#17251B" stroke="#17251B" stroke-width="11" stroke-linejoin="miter"></polygon><polygon points="124.0,96.0 146.0,80.0 172.0,84.0 186.0,104.0 178.0,130.0 154.0,144.0 130.0,138.0 120.0,116.0" fill="#17251B" stroke="#17251B" stroke-width="11" stroke-linejoin="miter"></polygon><polygon points="128.0,92.0 100.0,62.0 110.0,50.0 140.0,84.0" fill="#17251B" stroke="#17251B" stroke-width="11" stroke-linejoin="miter"></polygon><polygon points="172.0,86.0 194.0,54.0 206.0,62.0 184.0,96.0" fill="#17251B" stroke="#17251B" stroke-width="11" stroke-linejoin="miter"></polygon><polygon points="231.4,130.6 265.6,65.7 250.4,58.3 220.6,125.4" fill="#17251B" stroke="#17251B" stroke-width="11" stroke-linejoin="miter"></polygon><polygon points="285.8,65.2 266.0,86.2 240.2,77.1 234.2,46.8 254.0,25.8 279.8,34.9" fill="#17251B" stroke="#17251B" stroke-width="11" stroke-linejoin="miter"></polygon><polygon points="234.0,42.0 240.0,24.0 246.0,42.0" fill="#17251B" stroke="#17251B" stroke-width="11" stroke-linejoin="miter"></polygon><polygon points="276.0,52.0 282.0,34.0 288.0,52.0" fill="#17251B" stroke="#17251B" stroke-width="11" stroke-linejoin="miter"></polygon><polygon points="256.0,30.0 262.0,12.0 268.0,30.0" fill="#17251B" stroke="#17251B" stroke-width="11" stroke-linejoin="miter"></polygon><polygon points="278.0,76.0 284.0,58.0 290.0,76.0" fill="#17251B" stroke="#17251B" stroke-width="11" stroke-linejoin="miter"></polygon><polygon points="195.3,141.2 228.1,166.1 247.9,141.9 216.7,114.8" fill="#17251B" stroke="#17251B" stroke-width="11" stroke-linejoin="miter"></polygon><polygon points="255.0,154.0 246.5,168.7 229.5,168.7 221.0,154.0 229.5,139.3 246.5,139.3" fill="#17251B" stroke="#17251B" stroke-width="11" stroke-linejoin="miter"></polygon><polygon points="252.2,148.3 238.6,118.9 213.4,129.1 223.8,159.7" fill="#17251B" stroke="#17251B" stroke-width="11" stroke-linejoin="miter"></polygon><polygon points="247.0,130.8 234.0,145.5 215.0,144.0 204.2,127.4 209.9,108.3 227.7,101.0 244.2,111.0" fill="#17251B" stroke="#17251B" stroke-width="11" stroke-linejoin="miter"></polygon><g><polygon points="83.6,123.0 48.7,181.8 75.3,198.2 112.4,141.0" fill="#3B2C4A" stroke="#17251B" stroke-width="4.5" stroke-linejoin="round"></polygon><polygon points="85.6,152.5 83.6,123.0 48.7,181.8" fill="#392b48" stroke="#392b48" stroke-width="0.8" stroke-linejoin="round"></polygon><polygon points="85.6,152.5 48.7,181.8 75.3,198.2" fill="#2f273e" stroke="#2f273e" stroke-width="0.8" stroke-linejoin="round"></polygon><polygon points="85.6,152.5 75.3,198.2 112.4,141.0" fill="#3b2c4a" stroke="#3b2c4a" stroke-width="0.8" stroke-linejoin="round"></polygon><polygon points="85.6,152.5 112.4,141.0 83.6,123.0" fill="#5d5064" stroke="#5d5064" stroke-width="0.8" stroke-linejoin="round"></polygon></g><g><polygon points="79.0,190.0 70.5,204.7 53.5,204.7 45.0,190.0 53.5,175.3 70.5,175.3" fill="#3B2C4A" stroke="#17251B" stroke-width="4.5" stroke-linejoin="round"></polygon><polygon points="64.6,186.1 79.0,190.0 70.5,204.7" fill="#41324f" stroke="#41324f" stroke-width="0.8" stroke-linejoin="round"></polygon><polygon points="64.6,186.1 70.5,204.7 53.5,204.7" fill="#30283f" stroke="#30283f" stroke-width="0.8" stroke-linejoin="round"></polygon><polygon points="64.6,186.1 53.5,204.7 45.0,190.0" fill="#2e273d" stroke="#2e273d" stroke-width="0.8" stroke-linejoin="round"></polygon><polygon points="64.6,186.1 45.0,190.0 53.5,175.3" fill="#3b2c4a" stroke="#3b2c4a" stroke-width="0.8" stroke-linejoin="round"></polygon><polygon points="64.6,186.1 53.5,175.3 70.5,175.3" fill="#605266" stroke="#605266" stroke-width="0.8" stroke-linejoin="round"></polygon><polygon points="64.6,186.1 70.5,175.3 79.0,190.0" fill="#5f5165" stroke="#5f5165" stroke-width="0.8" stroke-linejoin="round"></polygon></g><g><polygon points="46.8,191.6 54.5,249.4 81.5,246.6 77.2,188.4" fill="#3B2C4A" stroke="#17251B" stroke-width="4.5" stroke-linejoin="round"></polygon><polygon points="68.1,214.4 46.8,191.6 54.5,249.4" fill="#332942" stroke="#332942" stroke-width="0.8" stroke-linejoin="round"></polygon><polygon points="68.1,214.4 54.5,249.4 81.5,246.6" fill="#312840" stroke="#312840" stroke-width="0.8" stroke-linejoin="round"></polygon><polygon points="68.1,214.4 81.5,246.6 77.2,188.4" fill="#594b60" stroke="#594b60" stroke-width="0.8" stroke-linejoin="round"></polygon><polygon points="68.1,214.4 77.2,188.4 46.8,191.6" fill="#55475e" stroke="#55475e" stroke-width="0.8" stroke-linejoin="round"></polygon></g><g><polygon points="91.9,255.8 77.1,272.4 55.5,270.7 43.3,251.9 49.7,230.1 69.9,221.8 88.7,233.2" fill="#55406A" stroke="#17251B" stroke-width="4.5" stroke-linejoin="round"></polygon><polygon points="72.3,241.5 91.9,255.8 77.1,272.4" fill="#503d65" stroke="#503d65" stroke-width="0.8" stroke-linejoin="round"></polygon><polygon points="72.3,241.5 77.1,272.4 55.5,270.7" fill="#433757" stroke="#433757" stroke-width="0.8" stroke-linejoin="round"></polygon><polygon points="72.3,241.5 55.5,270.7 43.3,251.9" fill="#423655" stroke="#423655" stroke-width="0.8" stroke-linejoin="round"></polygon><polygon points="72.3,241.5 43.3,251.9 49.7,230.1" fill="#4d3c61" stroke="#4d3c61" stroke-width="0.8" stroke-linejoin="round"></polygon><polygon points="72.3,241.5 49.7,230.1 69.9,221.8" fill="#6b5879" stroke="#6b5879" stroke-width="0.8" stroke-linejoin="round"></polygon><polygon points="72.3,241.5 69.9,221.8 88.7,233.2" fill="#766481" stroke="#766481" stroke-width="0.8" stroke-linejoin="round"></polygon><polygon points="72.3,241.5 88.7,233.2 91.9,255.8" fill="#725f7e" stroke="#725f7e" stroke-width="0.8" stroke-linejoin="round"></polygon></g><g><polygon points="49.0,254.0 59.0,254.0 54.0,270.0" fill="#EADFC8" stroke="#17251B" stroke-width="3" stroke-linejoin="round"></polygon><polygon points="54.9,258.0 49.0,254.0 59.0,254.0" fill="#eee4cc" stroke="#eee4cc" stroke-width="0.8" stroke-linejoin="round"></polygon><polygon points="54.9,258.0 59.0,254.0 54.0,270.0" fill="#d3cbb7" stroke="#d3cbb7" stroke-width="0.8" stroke-linejoin="round"></polygon><polygon points="54.9,258.0 54.0,270.0 49.0,254.0" fill="#a6a293" stroke="#a6a293" stroke-width="0.8" stroke-linejoin="round"></polygon></g><g><polygon points="63.0,258.0 73.0,258.0 68.0,274.0" fill="#EADFC8" stroke="#17251B" stroke-width="3" stroke-linejoin="round"></polygon><polygon points="68.9,262.0 63.0,258.0 73.0,258.0" fill="#eee4cc" stroke="#eee4cc" stroke-width="0.8" stroke-linejoin="round"></polygon><polygon points="68.9,262.0 73.0,258.0 68.0,274.0" fill="#ddd4be" stroke="#ddd4be" stroke-width="0.8" stroke-linejoin="round"></polygon><polygon points="68.9,262.0 68.0,274.0 63.0,258.0" fill="#a8a495" stroke="#a8a495" stroke-width="0.8" stroke-linejoin="round"></polygon></g><g><polygon points="77.0,254.0 87.0,254.0 82.0,270.0" fill="#EADFC8" stroke="#17251B" stroke-width="3" stroke-linejoin="round"></polygon><polygon points="82.9,258.0 77.0,254.0 87.0,254.0" fill="#eee3cc" stroke="#eee3cc" stroke-width="0.8" stroke-linejoin="round"></polygon><polygon points="82.9,258.0 87.0,254.0 82.0,270.0" fill="#e1d7c1" stroke="#e1d7c1" stroke-width="0.8" stroke-linejoin="round"></polygon><polygon points="82.9,258.0 82.0,270.0 77.0,254.0" fill="#ada899" stroke="#ada899" stroke-width="0.8" stroke-linejoin="round"></polygon></g><g><polygon points="105.3,225.7 94.5,254.2 121.5,265.8 134.7,238.3" fill="#3B2C4A" stroke="#17251B" stroke-width="4.5" stroke-linejoin="round"></polygon><polygon points="117.5,240.7 105.3,225.7 94.5,254.2" fill="#382b47" stroke="#382b47" stroke-width="0.8" stroke-linejoin="round"></polygon><polygon points="117.5,240.7 94.5,254.2 121.5,265.8" fill="#2d273c" stroke="#2d273c" stroke-width="0.8" stroke-linejoin="round"></polygon><polygon points="117.5,240.7 121.5,265.8 134.7,238.3" fill="#473953" stroke="#473953" stroke-width="0.8" stroke-linejoin="round"></polygon><polygon points="117.5,240.7 134.7,238.3 105.3,225.7" fill="#5f5165" stroke="#5f5165" stroke-width="0.8" stroke-linejoin="round"></polygon></g><g><polygon points="123.4,260.0 115.7,273.3 100.3,273.3 92.6,260.0 100.3,246.7 115.7,246.7" fill="#3B2C4A" stroke="#17251B" stroke-width="4.5" stroke-linejoin="round"></polygon><polygon points="110.3,256.5 123.4,260.0 115.7,273.3" fill="#3a2c49" stroke="#3a2c49" stroke-width="0.8" stroke-linejoin="round"></polygon><polygon points="110.3,256.5 115.7,273.3 100.3,273.3" fill="#2f273e" stroke="#2f273e" stroke-width="0.8" stroke-linejoin="round"></polygon><polygon points="110.3,256.5 100.3,273.3 92.6,260.0" fill="#2e273e" stroke="#2e273e" stroke-width="0.8" stroke-linejoin="round"></polygon><polygon points="110.3,256.5 92.6,260.0 100.3,246.7" fill="#392b48" stroke="#392b48" stroke-width="0.8" stroke-linejoin="round"></polygon><polygon points="110.3,256.5 100.3,246.7 115.7,246.7" fill="#625568" stroke="#625568" stroke-width="0.8" stroke-linejoin="round"></polygon><polygon points="110.3,256.5 115.7,246.7 123.4,260.0" fill="#5f5165" stroke="#5f5165" stroke-width="0.8" stroke-linejoin="round"></polygon></g><g><polygon points="96.8,251.0 89.8,261.8 110.2,278.2 119.2,269.0" fill="#3B2C4A" stroke="#17251B" stroke-width="4.5" stroke-linejoin="round"></polygon><polygon points="106.4,261.4 96.8,251.0 89.8,261.8" fill="#42334f" stroke="#42334f" stroke-width="0.8" stroke-linejoin="round"></polygon><polygon points="106.4,261.4 89.8,261.8 110.2,278.2" fill="#2f273e" stroke="#2f273e" stroke-width="0.8" stroke-linejoin="round"></polygon><polygon points="106.4,261.4 110.2,278.2 119.2,269.0" fill="#382b47" stroke="#382b47" stroke-width="0.8" stroke-linejoin="round"></polygon><polygon points="106.4,261.4 119.2,269.0 96.8,251.0" fill="#5e5165" stroke="#5e5165" stroke-width="0.8" stroke-linejoin="round"></polygon></g><g><polygon points="80.2,262.0 119.8,262.0 121.8,288.0 67.2,288.0" fill="#261C30" stroke="#17251B" stroke-width="4.5" stroke-linejoin="round"></polygon><polygon points="99.5,271.5 80.2,262.0 119.8,262.0" fill="#4f4651" stroke="#4f4651" stroke-width="0.8" stroke-linejoin="round"></polygon><polygon points="99.5,271.5 119.8,262.0 121.8,288.0" fill="#3e3443" stroke="#3e3443" stroke-width="0.8" stroke-linejoin="round"></polygon><polygon points="99.5,271.5 121.8,288.0 67.2,288.0" fill="#1f1c2b" stroke="#1f1c2b" stroke-width="0.8" stroke-linejoin="round"></polygon><polygon points="99.5,271.5 67.2,288.0 80.2,262.0" fill="#221c2d" stroke="#221c2d" stroke-width="0.8" stroke-linejoin="round"></polygon></g><g><polygon points="163.7,239.2 178.8,266.6 205.2,253.4 192.3,224.8" fill="#3B2C4A" stroke="#17251B" stroke-width="4.5" stroke-linejoin="round"></polygon><polygon points="188.6,240.5 163.7,239.2 178.8,266.6" fill="#312840" stroke="#312840" stroke-width="0.8" stroke-linejoin="round"></polygon><polygon points="188.6,240.5 178.8,266.6 205.2,253.4" fill="#332942" stroke="#332942" stroke-width="0.8" stroke-linejoin="round"></polygon><polygon points="188.6,240.5 205.2,253.4 192.3,224.8" fill="#5b4d62" stroke="#5b4d62" stroke-width="0.8" stroke-linejoin="round"></polygon><polygon points="188.6,240.5 192.3,224.8 163.7,239.2" fill="#4c3e57" stroke="#4c3e57" stroke-width="0.8" stroke-linejoin="round"></polygon></g><g><polygon points="207.4,260.0 199.7,273.3 184.3,273.3 176.6,260.0 184.3,246.7 199.7,246.7" fill="#3B2C4A" stroke="#17251B" stroke-width="4.5" stroke-linejoin="round"></polygon><polygon points="194.3,256.5 207.4,260.0 199.7,273.3" fill="#40314e" stroke="#40314e" stroke-width="0.8" stroke-linejoin="round"></polygon><polygon points="194.3,256.5 199.7,273.3 184.3,273.3" fill="#312840" stroke="#312840" stroke-width="0.8" stroke-linejoin="round"></polygon><polygon points="194.3,256.5 184.3,273.3 176.6,260.0" fill="#2f273e" stroke="#2f273e" stroke-width="0.8" stroke-linejoin="round"></polygon><polygon points="194.3,256.5 176.6,260.0 184.3,246.7" fill="#392b48" stroke="#392b48" stroke-width="0.8" stroke-linejoin="round"></polygon><polygon points="194.3,256.5 184.3,246.7 199.7,246.7" fill="#5a4c61" stroke="#5a4c61" stroke-width="0.8" stroke-linejoin="round"></polygon><polygon points="194.3,256.5 199.7,246.7 207.4,260.0" fill="#5b4d62" stroke="#5b4d62" stroke-width="0.8" stroke-linejoin="round"></polygon></g><g><polygon points="180.8,269.0 189.8,278.2 210.2,261.8 203.2,251.0" fill="#3B2C4A" stroke="#17251B" stroke-width="4.5" stroke-linejoin="round"></polygon><polygon points="198.4,261.4 180.8,269.0 189.8,278.2" fill="#2d273d" stroke="#2d273d" stroke-width="0.8" stroke-linejoin="round"></polygon><polygon points="198.4,261.4 189.8,278.2 210.2,261.8" fill="#372a46" stroke="#372a46" stroke-width="0.8" stroke-linejoin="round"></polygon><polygon points="198.4,261.4 210.2,261.8 203.2,251.0" fill="#5e5064" stroke="#5e5064" stroke-width="0.8" stroke-linejoin="round"></polygon><polygon points="198.4,261.4 203.2,251.0 180.8,269.0" fill="#473953" stroke="#473953" stroke-width="0.8" stroke-linejoin="round"></polygon></g><g><polygon points="180.2,262.0 219.8,262.0 232.8,288.0 178.2,288.0" fill="#261C30" stroke="#17251B" stroke-width="4.5" stroke-linejoin="round"></polygon><polygon points="205.0,271.5 180.2,262.0 219.8,262.0" fill="#463d4a" stroke="#463d4a" stroke-width="0.8" stroke-linejoin="round"></polygon><polygon points="205.0,271.5 219.8,262.0 232.8,288.0" fill="#39303f" stroke="#39303f" stroke-width="0.8" stroke-linejoin="round"></polygon><polygon points="205.0,271.5 232.8,288.0 178.2,288.0" fill="#221c2d" stroke="#221c2d" stroke-width="0.8" stroke-linejoin="round"></polygon><polygon points="205.0,271.5 178.2,288.0 180.2,262.0" fill="#221c2d" stroke="#221c2d" stroke-width="0.8" stroke-linejoin="round"></polygon></g><g><polygon points="90.0,120.0 150.0,98.0 210.0,116.0 226.0,170.0 198.0,238.0 106.0,240.0 78.0,180.0" fill="#55406A" stroke="#17251B" stroke-width="4.5" stroke-linejoin="round"></polygon><polygon points="163.6,147.1 90.0,120.0 150.0,98.0" fill="#6a5678" stroke="#6a5678" stroke-width="0.8" stroke-linejoin="round"></polygon><polygon points="163.6,147.1 150.0,98.0 210.0,116.0" fill="#786682" stroke="#786682" stroke-width="0.8" stroke-linejoin="round"></polygon><polygon points="163.6,147.1 210.0,116.0 226.0,170.0" fill="#725f7e" stroke="#725f7e" stroke-width="0.8" stroke-linejoin="round"></polygon><polygon points="163.6,147.1 226.0,170.0 198.0,238.0" fill="#56416b" stroke="#56416b" stroke-width="0.8" stroke-linejoin="round"></polygon><polygon points="163.6,147.1 198.0,238.0 106.0,240.0" fill="#433757" stroke="#433757" stroke-width="0.8" stroke-linejoin="round"></polygon><polygon points="163.6,147.1 106.0,240.0 78.0,180.0" fill="#413655" stroke="#413655" stroke-width="0.8" stroke-linejoin="round"></polygon><polygon points="163.6,147.1 78.0,180.0 90.0,120.0" fill="#503d64" stroke="#503d64" stroke-width="0.8" stroke-linejoin="round"></polygon></g><g><polygon points="118.0,170.0 170.0,166.0 178.0,214.0 112.0,216.0" fill="#3B2C4A" stroke="#17251B" stroke-width="4.5" stroke-linejoin="round"></polygon><polygon points="148.9,184.9 118.0,170.0 170.0,166.0" fill="#594c61" stroke="#594c61" stroke-width="0.8" stroke-linejoin="round"></polygon><polygon points="148.9,184.9 170.0,166.0 178.0,214.0" fill="#55485e" stroke="#55485e" stroke-width="0.8" stroke-linejoin="round"></polygon><polygon points="148.9,184.9 178.0,214.0 112.0,216.0" fill="#2f273e" stroke="#2f273e" stroke-width="0.8" stroke-linejoin="round"></polygon><polygon points="148.9,184.9 112.0,216.0 118.0,170.0" fill="#332942" stroke="#332942" stroke-width="0.8" stroke-linejoin="round"></polygon></g><polyline points="132,180 144,192 138,204 152,210" fill="none" stroke="#FF5A3C" stroke-width="4" stroke-linecap="round" stroke-linejoin="round"></polyline><g><polygon points="96.0,118.0 86.0,90.0 112.0,110.0" fill="#EADFC8" stroke="#17251B" stroke-width="4.5" stroke-linejoin="round"></polygon><polygon points="100.3,102.5 96.0,118.0 86.0,90.0" fill="#d2cab6" stroke="#d2cab6" stroke-width="0.8" stroke-linejoin="round"></polygon><polygon points="100.3,102.5 86.0,90.0 112.0,110.0" fill="#eee3cc" stroke="#eee3cc" stroke-width="0.8" stroke-linejoin="round"></polygon><polygon points="100.3,102.5 112.0,110.0 96.0,118.0" fill="#d1c8b5" stroke="#d1c8b5" stroke-width="0.8" stroke-linejoin="round"></polygon></g><g><polygon points="200.0,110.0 214.0,84.0 216.0,118.0" fill="#EADFC8" stroke="#17251B" stroke-width="4.5" stroke-linejoin="round"></polygon><polygon points="211.4,101.9 200.0,110.0 214.0,84.0" fill="#ede2cb" stroke="#ede2cb" stroke-width="0.8" stroke-linejoin="round"></polygon><polygon points="211.4,101.9 214.0,84.0 216.0,118.0" fill="#eee4cd" stroke="#eee4cd" stroke-width="0.8" stroke-linejoin="round"></polygon><polygon points="211.4,101.9 216.0,118.0 200.0,110.0" fill="#a39f91" stroke="#a39f91" stroke-width="0.8" stroke-linejoin="round"></polygon></g><g><polygon points="124.0,96.0 146.0,80.0 172.0,84.0 186.0,104.0 178.0,130.0 154.0,144.0 130.0,138.0 120.0,116.0" fill="#3B2C4A" stroke="#17251B" stroke-width="4.5" stroke-linejoin="round"></polygon><polygon points="156.9,103.0 124.0,96.0 146.0,80.0" fill="#4f4059" stroke="#4f4059" stroke-width="0.8" stroke-linejoin="round"></polygon><polygon points="156.9,103.0 146.0,80.0 172.0,84.0" fill="#594c61" stroke="#594c61" stroke-width="0.8" stroke-linejoin="round"></polygon><polygon points="156.9,103.0 172.0,84.0 186.0,104.0" fill="#5d5064" stroke="#5d5064" stroke-width="0.8" stroke-linejoin="round"></polygon><polygon points="156.9,103.0 186.0,104.0 178.0,130.0" fill="#453652" stroke="#453652" stroke-width="0.8" stroke-linejoin="round"></polygon><polygon points="156.9,103.0 178.0,130.0 154.0,144.0" fill="#332943" stroke="#332943" stroke-width="0.8" stroke-linejoin="round"></polygon><polygon points="156.9,103.0 154.0,144.0 130.0,138.0" fill="#30283f" stroke="#30283f" stroke-width="0.8" stroke-linejoin="round"></polygon><polygon points="156.9,103.0 130.0,138.0 120.0,116.0" fill="#2e273d" stroke="#2e273d" stroke-width="0.8" stroke-linejoin="round"></polygon><polygon points="156.9,103.0 120.0,116.0 124.0,96.0" fill="#362a45" stroke="#362a45" stroke-width="0.8" stroke-linejoin="round"></polygon></g><g><polygon points="128.0,92.0 100.0,62.0 110.0,50.0 140.0,84.0" fill="#EADFC8" stroke="#17251B" stroke-width="4.5" stroke-linejoin="round"></polygon><polygon points="123.0,66.7 128.0,92.0 100.0,62.0" fill="#a09d8f" stroke="#a09d8f" stroke-width="0.8" stroke-linejoin="round"></polygon><polygon points="123.0,66.7 100.0,62.0 110.0,50.0" fill="#ebe0c9" stroke="#ebe0c9" stroke-width="0.8" stroke-linejoin="round"></polygon><polygon points="123.0,66.7 110.0,50.0 140.0,84.0" fill="#eee4cc" stroke="#eee4cc" stroke-width="0.8" stroke-linejoin="round"></polygon><polygon points="123.0,66.7 140.0,84.0 128.0,92.0" fill="#d3cab6" stroke="#d3cab6" stroke-width="0.8" stroke-linejoin="round"></polygon></g><g><polygon points="172.0,86.0 194.0,54.0 206.0,62.0 184.0,96.0" fill="#EADFC8" stroke="#17251B" stroke-width="4.5" stroke-linejoin="round"></polygon><polygon points="192.0,70.0 172.0,86.0 194.0,54.0" fill="#ebe0c9" stroke="#ebe0c9" stroke-width="0.8" stroke-linejoin="round"></polygon><polygon points="192.0,70.0 194.0,54.0 206.0,62.0" fill="#efe5cd" stroke="#efe5cd" stroke-width="0.8" stroke-linejoin="round"></polygon><polygon points="192.0,70.0 206.0,62.0 184.0,96.0" fill="#eadfc8" stroke="#eadfc8" stroke-width="0.8" stroke-linejoin="round"></polygon><polygon points="192.0,70.0 184.0,96.0 172.0,86.0" fill="#aba798" stroke="#aba798" stroke-width="0.8" stroke-linejoin="round"></polygon></g><polygon points="134.0,104.0 152.0,110.0 138.0,116.0" fill="#FFD23F" stroke="#17251B" stroke-width="3" stroke-linejoin="round"></polygon><polygon points="160.0,110.0 178.0,102.0 174.0,116.0" fill="#FFD23F" stroke="#17251B" stroke-width="3" stroke-linejoin="round"></polygon><polygon points="131.2,102.9 153.5,107.9 154.5,104.1 132.8,97.1" fill="#17251B"></polygon><polygon points="158.7,107.9 181.0,100.8 179.0,95.2 157.3,104.1" fill="#17251B"></polygon><polygon points="136,124 176,120 170,132 142,134" fill="#1A0F1F" stroke="#17251B" stroke-width="3" stroke-linejoin="round"></polygon><polygon points="140,128 144,114 149,127" fill="#EADFC8" stroke="#17251B" stroke-width="2.5"></polygon><polygon points="162,125 167,111 171,124" fill="#EADFC8" stroke="#17251B" stroke-width="2.5"></polygon><g><polygon points="231.4,130.6 265.6,65.7 250.4,58.3 220.6,125.4" fill="#5C3A22" stroke="#17251B" stroke-width="4.5" stroke-linejoin="round"></polygon><polygon points="246.0,89.0 231.4,130.6 265.6,65.7" fill="#66452d" stroke="#66452d" stroke-width="0.8" stroke-linejoin="round"></polygon><polygon points="246.0,89.0 265.6,65.7 250.4,58.3" fill="#80634b" stroke="#80634b" stroke-width="0.8" stroke-linejoin="round"></polygon><polygon points="246.0,89.0 250.4,58.3 220.6,125.4" fill="#573822" stroke="#573822" stroke-width="0.8" stroke-linejoin="round"></polygon><polygon points="246.0,89.0 220.6,125.4 231.4,130.6" fill="#412f21" stroke="#412f21" stroke-width="0.8" stroke-linejoin="round"></polygon></g><g><polygon points="285.8,65.2 266.0,86.2 240.2,77.1 234.2,46.8 254.0,25.8 279.8,34.9" fill="#7A6A5E" stroke="#17251B" stroke-width="4.5" stroke-linejoin="round"></polygon><polygon points="264.5,49.1 285.8,65.2 266.0,86.2" fill="#6e6157" stroke="#6e6157" stroke-width="0.8" stroke-linejoin="round"></polygon><polygon points="264.5,49.1 266.0,86.2 240.2,77.1" fill="#565049" stroke="#565049" stroke-width="0.8" stroke-linejoin="round"></polygon><polygon points="264.5,49.1 240.2,77.1 234.2,46.8" fill="#5d544d" stroke="#5d544d" stroke-width="0.8" stroke-linejoin="round"></polygon><polygon points="264.5,49.1 234.2,46.8 254.0,25.8" fill="#837467" stroke="#837467" stroke-width="0.8" stroke-linejoin="round"></polygon><polygon points="264.5,49.1 254.0,25.8 279.8,34.9" fill="#908273" stroke="#908273" stroke-width="0.8" stroke-linejoin="round"></polygon><polygon points="264.5,49.1 279.8,34.9 285.8,65.2" fill="#908273" stroke="#908273" stroke-width="0.8" stroke-linejoin="round"></polygon></g><g><polygon points="234.0,42.0 240.0,24.0 246.0,42.0" fill="#EADFC8" stroke="#17251B" stroke-width="3" stroke-linejoin="round"></polygon><polygon points="241.1,34.4 234.0,42.0 240.0,24.0" fill="#ebe0c9" stroke="#ebe0c9" stroke-width="0.8" stroke-linejoin="round"></polygon><polygon points="241.1,34.4 240.0,24.0 246.0,42.0" fill="#eee4cd" stroke="#eee4cd" stroke-width="0.8" stroke-linejoin="round"></polygon><polygon points="241.1,34.4 246.0,42.0 234.0,42.0" fill="#aca798" stroke="#aca798" stroke-width="0.8" stroke-linejoin="round"></polygon></g><g><polygon points="276.0,52.0 282.0,34.0 288.0,52.0" fill="#EADFC8" stroke="#17251B" stroke-width="3" stroke-linejoin="round"></polygon><polygon points="283.1,44.4 276.0,52.0 282.0,34.0" fill="#ebe1ca" stroke="#ebe1ca" stroke-width="0.8" stroke-linejoin="round"></polygon><polygon points="283.1,44.4 282.0,34.0 288.0,52.0" fill="#eee3cc" stroke="#eee3cc" stroke-width="0.8" stroke-linejoin="round"></polygon><polygon points="283.1,44.4 288.0,52.0 276.0,52.0" fill="#aea99a" stroke="#aea99a" stroke-width="0.8" stroke-linejoin="round"></polygon></g><g><polygon points="256.0,30.0 262.0,12.0 268.0,30.0" fill="#EADFC8" stroke="#17251B" stroke-width="3" stroke-linejoin="round"></polygon><polygon points="263.1,22.4 256.0,30.0 262.0,12.0" fill="#ebe1ca" stroke="#ebe1ca" stroke-width="0.8" stroke-linejoin="round"></polygon><polygon points="263.1,22.4 262.0,12.0 268.0,30.0" fill="#ede3cc" stroke="#ede3cc" stroke-width="0.8" stroke-linejoin="round"></polygon><polygon points="263.1,22.4 268.0,30.0 256.0,30.0" fill="#b0ab9b" stroke="#b0ab9b" stroke-width="0.8" stroke-linejoin="round"></polygon></g><g><polygon points="278.0,76.0 284.0,58.0 290.0,76.0" fill="#EADFC8" stroke="#17251B" stroke-width="3" stroke-linejoin="round"></polygon><polygon points="285.1,68.4 278.0,76.0 284.0,58.0" fill="#eadfc8" stroke="#eadfc8" stroke-width="0.8" stroke-linejoin="round"></polygon><polygon points="285.1,68.4 284.0,58.0 290.0,76.0" fill="#efe5cd" stroke="#efe5cd" stroke-width="0.8" stroke-linejoin="round"></polygon><polygon points="285.1,68.4 290.0,76.0 278.0,76.0" fill="#b2ad9d" stroke="#b2ad9d" stroke-width="0.8" stroke-linejoin="round"></polygon></g><g><polygon points="195.3,141.2 228.1,166.1 247.9,141.9 216.7,114.8" fill="#3B2C4A" stroke="#17251B" stroke-width="4.5" stroke-linejoin="round"></polygon><polygon points="226.5,134.2 195.3,141.2 228.1,166.1" fill="#2f273e" stroke="#2f273e" stroke-width="0.8" stroke-linejoin="round"></polygon><polygon points="226.5,134.2 228.1,166.1 247.9,141.9" fill="#382b47" stroke="#382b47" stroke-width="0.8" stroke-linejoin="round"></polygon><polygon points="226.5,134.2 247.9,141.9 216.7,114.8" fill="#685b6c" stroke="#685b6c" stroke-width="0.8" stroke-linejoin="round"></polygon><polygon points="226.5,134.2 216.7,114.8 195.3,141.2" fill="#3b2c4a" stroke="#3b2c4a" stroke-width="0.8" stroke-linejoin="round"></polygon></g><g><polygon points="255.0,154.0 246.5,168.7 229.5,168.7 221.0,154.0 229.5,139.3 246.5,139.3" fill="#3B2C4A" stroke="#17251B" stroke-width="4.5" stroke-linejoin="round"></polygon><polygon points="240.6,150.1 255.0,154.0 246.5,168.7" fill="#453651" stroke="#453651" stroke-width="0.8" stroke-linejoin="round"></polygon><polygon points="240.6,150.1 246.5,168.7 229.5,168.7" fill="#30283f" stroke="#30283f" stroke-width="0.8" stroke-linejoin="round"></polygon><polygon points="240.6,150.1 229.5,168.7 221.0,154.0" fill="#2f283f" stroke="#2f283f" stroke-width="0.8" stroke-linejoin="round"></polygon><polygon points="240.6,150.1 221.0,154.0 229.5,139.3" fill="#392b48" stroke="#392b48" stroke-width="0.8" stroke-linejoin="round"></polygon><polygon points="240.6,150.1 229.5,139.3 246.5,139.3" fill="#57495f" stroke="#57495f" stroke-width="0.8" stroke-linejoin="round"></polygon><polygon points="240.6,150.1 246.5,139.3 255.0,154.0" fill="#594c61" stroke="#594c61" stroke-width="0.8" stroke-linejoin="round"></polygon></g><g><polygon points="252.2,148.3 238.6,118.9 213.4,129.1 223.8,159.7" fill="#3B2C4A" stroke="#17251B" stroke-width="4.5" stroke-linejoin="round"></polygon><polygon points="235.4,133.8 252.2,148.3 238.6,118.9" fill="#5c4e63" stroke="#5c4e63" stroke-width="0.8" stroke-linejoin="round"></polygon><polygon points="235.4,133.8 238.6,118.9 213.4,129.1" fill="#4a3c55" stroke="#4a3c55" stroke-width="0.8" stroke-linejoin="round"></polygon><polygon points="235.4,133.8 213.4,129.1 223.8,159.7" fill="#312840" stroke="#312840" stroke-width="0.8" stroke-linejoin="round"></polygon><polygon points="235.4,133.8 223.8,159.7 252.2,148.3" fill="#342943" stroke="#342943" stroke-width="0.8" stroke-linejoin="round"></polygon></g><g><polygon points="247.0,130.8 234.0,145.5 215.0,144.0 204.2,127.4 209.9,108.3 227.7,101.0 244.2,111.0" fill="#55406A" stroke="#17251B" stroke-width="4.5" stroke-linejoin="round"></polygon><polygon points="229.8,118.3 247.0,130.8 234.0,145.5" fill="#523e67" stroke="#523e67" stroke-width="0.8" stroke-linejoin="round"></polygon><polygon points="229.8,118.3 234.0,145.5 215.0,144.0" fill="#423655" stroke="#423655" stroke-width="0.8" stroke-linejoin="round"></polygon><polygon points="229.8,118.3 215.0,144.0 204.2,127.4" fill="#3e3451" stroke="#3e3451" stroke-width="0.8" stroke-linejoin="round"></polygon><polygon points="229.8,118.3 204.2,127.4 209.9,108.3" fill="#4d3c61" stroke="#4d3c61" stroke-width="0.8" stroke-linejoin="round"></polygon><polygon points="229.8,118.3 209.9,108.3 227.7,101.0" fill="#6f5c7b" stroke="#6f5c7b" stroke-width="0.8" stroke-linejoin="round"></polygon><polygon points="229.8,118.3 227.7,101.0 244.2,111.0" fill="#725f7e" stroke="#725f7e" stroke-width="0.8" stroke-linejoin="round"></polygon><polygon points="229.8,118.3 244.2,111.0 247.0,130.8" fill="#6e5c7b" stroke="#6e5c7b" stroke-width="0.8" stroke-linejoin="round"></polygon></g></g></svg>