<svg xmlns="http://www.w3.org/2000/svg" width="324" height="394" viewBox="0 0 324 394" xmlns:c2pa="http://c2pa.org/manifest"><metadata><c2pa:manifest>AAAWgmp1bWIAAAAeanVtZGMycGEAEQAQgAAAqgA4m3EDYzJwYQAAABZcanVtYgAAAEdqdW1kYzJtYQARABCAAACqADibcQN1cm46YzJwYTpkMmY5ZDE0Zi0wN2IyLTRjNDAtOTlmMC02NjU2ZjhmNzUxY2YAAAADl2p1bWIAAAApanVtZGMyYXMAEQAQgAAAqgA4m3EDYzJwYS5hc3NlcnRpb25zAAAAALxqdW1iAAAARGp1bWRjYm9yABEAEIAAAKoAOJtxE2MycGEuaW5ncmVkaWVudC52MwAAAAAYYzJzaIVqQ4S7O5GpnuQ3I2onIooAAABwY2JvcqNpZGM6Zm9ybWF0bWltYWdlL3N2Zyt4bWxqaW5zdGFuY2VJRHgseG1wOmlpZDo1YjljNzcyMy0xNTJiLTRhNmEtYTkzMS05YWI5ZDZkM2JjNjZscmVsYXRpb25zaGlwaHBhcmVudE9mAAAB4mp1bWIAAABBanVtZGNib3IAEQAQgAAAqgA4m3ETYzJwYS5hY3Rpb25zLnYyAAAAABhjMnNoIshMShs6krUxwG33OJUVAgAAAZljYm9yomdhY3Rpb25zgqJmYWN0aW9ua2MycGEub3BlbmVkanBhcmFtZXRlcnOha2luZ3JlZGllbnRzgaJjdXJseC1zZWxmI2p1bWJmPWMycGEuYXNzZXJ0aW9ucy9jMnBhLmluZ3JlZGllbnQudjNkaGFzaFggEFdz9iqZftIL0Dc9oP33D7RdEr+ukXZKgkNEL2+bgnKkZmFjdGlvbngdY29tLmFudGhyb3BpYy5jbGF1ZGUucHJvdmlkZWRqcGFyYW1ldGVyc6F4H2NvbS5hbnRocm9waWMub3JpZ2luLWNvbmZpZGVuY2VndW5rbm93bmtkZXNjcmlwdGlvbnhmQ2xhdWRlIHByb3ZpZGVkIHRoaXMgZmlsZSBhdCB0aGUgcmVxdWVzdCBvZiBhIHVzZXIgYW5kIG1heSBoYXZlIGNyZWF0ZWQgb3IgbW9kaWZpZWQgdGhlIGZpbGUgY29udGVudHMubXNvZnR3YXJlQWdlbnShZG5hbWVmQ2xhdWRlcmFsbEFjdGlvbnNJbmNsdWRlZPUAAADIanVtYgAAAEBqdW1kY2JvcgARABCAAACqADibcRNjMnBhLmhhc2guZGF0YQAAAAAYYzJzaLPmuoBvx9PMM/ZQXewDYYsAAACAY2JvcqVjYWxnZnNoYTI1NmNwYWRNAAAAAAAAAAAAAAAAAGRoYXNoWCAU2a4UcvdpLdDy3yddI0VlYk63n0U6Q1c/AgSEADLI6mRuYW1lbmp1bWJmIG1hbmlmZXN0amV4Y2x1c2lvbnOBomVzdGFydBiWZmxlbmd0aBkeBAAAAj5qdW1iAAAAJ2p1bWRjMmNsABEAEIAAAKoAOJtxA2MycGEuY2xhaW0udjIAAAACD2Nib3KlY2FsZ2ZzaGEyNTZpc2lnbmF0dXJleE1zZWxmI2p1bWJmPS9jMnBhL3VybjpjMnBhOmQyZjlkMTRmLTA3YjItNGM0MC05OWYwLTY2NTZmOGY3NTFjZi9jMnBhLnNpZ25hdHVyZWppbnN0YW5jZUlEeCx4bXA6aWlkOmFlMTQ1ZDE2LTc0NGUtNDljMS05MGE2LWZmNmQ5YjFiMzQyN3JjcmVhdGVkX2Fzc2VydGlvbnODomN1cmx4LXNlbGYjanVtYmY9YzJwYS5hc3NlcnRpb25zL2MycGEuaW5ncmVkaWVudC52M2RoYXNoWCAQV3P2Kpl+0gvQNz2g/fcPtF0Sv66RdkqCQ0Qvb5uCcqJjdXJseCpzZWxmI2p1bWJmPWMycGEuYXNzZXJ0aW9ucy9jMnBhLmFjdGlvbnMudjJkaGFzaFgguwxweQ8U7X4ifCzq+qmARrgKJ0Jioa/ZoCezUzV47huiY3VybHgpc2VsZiNqdW1iZj1jMnBhLmFzc2VydGlvbnMvYzJwYS5oYXNoLmRhdGFkaGFzaFggG2eIISNm9/BUHvPK9tv6k4iOMYbqs7cYvGB7nLNufGJ0Y2xhaW1fZ2VuZXJhdG9yX2luZm+jZG5hbWVvQW50aHJvcGljIEZpbGVzZ3ZlcnNpb25lMS4wLjBrc3BlY1ZlcnNpb25lMi40LjAAABA4anVtYgAAAChqdW1kYzJjcwARABCAAACqADibcQNjMnBhLnNpZ25hdHVyZQAAABAIY2JvctKEWQISogEmGCFZAgowggIGMIIBjaADAgECAhRA5aAK7sI50L64g/oGQgU9Z1UTADAKBggqhkjOPQQDAzBJMRcwFQYDVQQKEw5BbnRocm9waWMsIFBCQzEuMCwGA1UEAxMlQW50aHJvcGljIENvbnRlbnQgQ3JlZGVudGlhbHMgUm9vdCBDQTAeFw0yNjA4MDcxODQzNTZaFw0yODA4MDYxOTQzNTZaMEQxFzAVBgNVBAoTDkFudGhyb3BpYywgUEJDMSkwJwYDVQQDEyBBbnRocm9waWMgQ2xhdWRlIENvbnRlbnQgU2lnbmluZzBZMBMGByqGSM49AgEGCCqGSM49AwEHA0IABJh6CmvLUBgFFNU0vUKlOVtE6djd17L5SuwX0LemFisBM3dkd/3cyjxFA3Qo5S46fX0/ihY0VZ7mfb9KF703t5OjWDBWMA4GA1UdDwEB/wQEAwIHgDAVBgNVHSUEDjAMBgorBgEEAYPoXgIBMAwGA1UdEwEB/wQCMAAwHwYDVR0jBBgwFoAUzlHiBIFOZFsj+OPEz5o+nMHXXMIwCgYIKoZIzj0EAwMDZwAwZAIwMXMdFJ4BetLLVY7ORuE9noqbbAZOZn/aArXyTwFAZfKrPzxF2vPoJNf1+UCdg1XGAjBwX1zd9WGqYkqmL5SFqw1QySjr1zJfpJM9+1rdDwSPLMOPOjKuiXjoU/pUUeG9RwmhY3BhZFkNngAAAAAAAAAAAAAAAAAAAAAAAAAAAAAAAAAAAAAAAAAAAAAAAAAAAAAAAAAAAAAAAAAAAAAAAAAAAAAAAAAAAAAAAAAAAAAAAAAAAAAAAAAAAAAAAAAAAAAAAAAAAAAAAAAAAAAAAAAAAAAAAAAAAAAAAAAAAAAAAAAAAAAAAAAAAAAAAAAAAAAAAAAAAAAAAAAAAAAAAAAAAAAAAAAAAAAAAAAAAAAAAAAAAAAAAAAAAAAAAAAAAAAAAAAAAAAAAAAAAAAAAAAAAAAAAAAAAAAAAAAAAAAAAAAAAAAAAAAAAAAAAAAAAAAAAAAAAAAAAAAAAAAAAAAAAAAAAAAAAAAAAAAAAAAAAAAAAAAAAAAAAAAAAAAAAAAAAAAAAAAAAAAAAAAAAAAAAAAAAAAAAAAAAAAAAAAAAAAAAAAAAAAAAAAAAAAAAAAAAAAAAAAAAAAAAAAAAAAAAAAAAAAAAAAAAAAAAAAAAAAAAAAAAAAAAAAAAAAAAAAAAAAAAAAAAAAAAAAAAAAAAAAAAAAAAAAAAAAAAAAAAAAAAAAAAAAAAAAAAAAAAAAAAAAAAAAAAAAAAAAAAAAAAAAAAAAAAAAAAAAAAAAAAAAAAAAAAAAAAAAAAAAAAAAAAAAAAAAAAAAAAAAAAAAAAAAAAAAAAAAAAAAAAAAAAAAAAAAAAAAAAAAAAAAAAAAAAAAAAAAAAAAAAAAAAAAAAAAAAAAAAAAAAAAAAAAAAAAAAAAAAAAAAAAAAAAAAAAAAAAAAAAAAAAAAAAAAAAAAAAAAAAAAAAAAAAAAAAAAAAAAAAAAAAAAAAAAAAAAAAAAAAAAAAAAAAAAAAAAAAAAAAAAAAAAAAAAAAAAAAAAAAAAAAAAAAAAAAAAAAAAAAAAAAAAAAAAAAAAAAAAAAAAAAAAAAAAAAAAAAAAAAAAAAAAAAAAAAAAAAAAAAAAAAAAAAAAAAAAAAAAAAAAAAAAAAAAAAAAAAAAAAAAAAAAAAAAAAAAAAAAAAAAAAAAAAAAAAAAAAAAAAAAAAAAAAAAAAAAAAAAAAAAAAAAAAAAAAAAAAAAAAAAAAAAAAAAAAAAAAAAAAAAAAAAAAAAAAAAAAAAAAAAAAAAAAAAAAAAAAAAAAAAAAAAAAAAAAAAAAAAAAAAAAAAAAAAAAAAAAAAAAAAAAAAAAAAAAAAAAAAAAAAAAAAAAAAAAAAAAAAAAAAAAAAAAAAAAAAAAAAAAAAAAAAAAAAAAAAAAAAAAAAAAAAAAAAAAAAAAAAAAAAAAAAAAAAAAAAAAAAAAAAAAAAAAAAAAAAAAAAAAAAAAAAAAAAAAAAAAAAAAAAAAAAAAAAAAAAAAAAAAAAAAAAAAAAAAAAAAAAAAAAAAAAAAAAAAAAAAAAAAAAAAAAAAAAAAAAAAAAAAAAAAAAAAAAAAAAAAAAAAAAAAAAAAAAAAAAAAAAAAAAAAAAAAAAAAAAAAAAAAAAAAAAAAAAAAAAAAAAAAAAAAAAAAAAAAAAAAAAAAAAAAAAAAAAAAAAAAAAAAAAAAAAAAAAAAAAAAAAAAAAAAAAAAAAAAAAAAAAAAAAAAAAAAAAAAAAAAAAAAAAAAAAAAAAAAAAAAAAAAAAAAAAAAAAAAAAAAAAAAAAAAAAAAAAAAAAAAAAAAAAAAAAAAAAAAAAAAAAAAAAAAAAAAAAAAAAAAAAAAAAAAAAAAAAAAAAAAAAAAAAAAAAAAAAAAAAAAAAAAAAAAAAAAAAAAAAAAAAAAAAAAAAAAAAAAAAAAAAAAAAAAAAAAAAAAAAAAAAAAAAAAAAAAAAAAAAAAAAAAAAAAAAAAAAAAAAAAAAAAAAAAAAAAAAAAAAAAAAAAAAAAAAAAAAAAAAAAAAAAAAAAAAAAAAAAAAAAAAAAAAAAAAAAAAAAAAAAAAAAAAAAAAAAAAAAAAAAAAAAAAAAAAAAAAAAAAAAAAAAAAAAAAAAAAAAAAAAAAAAAAAAAAAAAAAAAAAAAAAAAAAAAAAAAAAAAAAAAAAAAAAAAAAAAAAAAAAAAAAAAAAAAAAAAAAAAAAAAAAAAAAAAAAAAAAAAAAAAAAAAAAAAAAAAAAAAAAAAAAAAAAAAAAAAAAAAAAAAAAAAAAAAAAAAAAAAAAAAAAAAAAAAAAAAAAAAAAAAAAAAAAAAAAAAAAAAAAAAAAAAAAAAAAAAAAAAAAAAAAAAAAAAAAAAAAAAAAAAAAAAAAAAAAAAAAAAAAAAAAAAAAAAAAAAAAAAAAAAAAAAAAAAAAAAAAAAAAAAAAAAAAAAAAAAAAAAAAAAAAAAAAAAAAAAAAAAAAAAAAAAAAAAAAAAAAAAAAAAAAAAAAAAAAAAAAAAAAAAAAAAAAAAAAAAAAAAAAAAAAAAAAAAAAAAAAAAAAAAAAAAAAAAAAAAAAAAAAAAAAAAAAAAAAAAAAAAAAAAAAAAAAAAAAAAAAAAAAAAAAAAAAAAAAAAAAAAAAAAAAAAAAAAAAAAAAAAAAAAAAAAAAAAAAAAAAAAAAAAAAAAAAAAAAAAAAAAAAAAAAAAAAAAAAAAAAAAAAAAAAAAAAAAAAAAAAAAAAAAAAAAAAAAAAAAAAAAAAAAAAAAAAAAAAAAAAAAAAAAAAAAAAAAAAAAAAAAAAAAAAAAAAAAAAAAAAAAAAAAAAAAAAAAAAAAAAAAAAAAAAAAAAAAAAAAAAAAAAAAAAAAAAAAAAAAAAAAAAAAAAAAAAAAAAAAAAAAAAAAAAAAAAAAAAAAAAAAAAAAAAAAAAAAAAAAAAAAAAAAAAAAAAAAAAAAAAAAAAAAAAAAAAAAAAAAAAAAAAAAAAAAAAAAAAAAAAAAAAAAAAAAAAAAAAAAAAAAAAAAAAAAAAAAAAAAAAAAAAAAAAAAAAAAAAAAAAAAAAAAAAAAAAAAAAAAAAAAAAAAAAAAAAAAAAAAAAAAAAAAAAAAAAAAAAAAAAAAAAAAAAAAAAAAAAAAAAAAAAAAAAAAAAAAAAAAAAAAAAAAAAAAAAAAAAAAAAAAAAAAAAAAAAAAAAAAAAAAAAAAAAAAAAAAAAAAAAAAAAAAAAAAAAAAAAAAAAAAAAAAAAAAAAAAAAAAAAAAAAAAAAAAAAAAAAAAAAAAAAAAAAAAAAAAAAAAAAAAAAAAAAAAAAAAAAAAAAAAAAAAAAAAAAAAAAAAAAAAAAAAAAAAAAAAAAAAAAAAAAAAAAAAAAAAAAAAAAAAAAAAAAAAAAAAAAAAAAAAAAAAAAAAAAAAAAAAAAAAAAAAAAAAAAAAAAAAAAAAAAAAAAAAAAAAAAAAAAAAAAAAAAAAAAAAAAAAAAAAAAAAAAAAAAAAAAAAAAAAAAAAAAAAAAAAAAAAAAAAAAAAAAAAAAAAAAAAAAAAAAAAAAAAAAAAAAAAAAAAAAAAAAAAAAAAAAAAAAAAAAAAAAAAAAAAAAAAAAAAAAAAAAAAAAAAAAAAAAAAAAAAAAAAAAAAAAAAAAAAAAAAAAAAAAAAAAAAAAAAAAAAAAAAAAAAAAAAAAAAAAAAAAAAAAAAAAAAAAAAAAAAAAAAAAAAAAAAAAAAAAAAAAAAAAAAAAAAAAAAAAAAAAAAAAAAAAAAAAAAAAAAAAAAAAAAAAAAAAAAAAAAAAAAAAAAAAAAAAAAAAAAAAAAAAAAAAAAAAAAAAAAAAAAAAAAAAAAAAAAAAAAAAAAAAAAAAAAAAAAAAAAAAAAAAAAAAAAAAAAAAAAAAAAAAAAAAAAAAAAAAAAAAAAAAAAAAAAAAAAAAAAAAAAAAAAAAAAAAAAAAAAAAAAAAAAAAAAAAAAAAAAAAAAAAAAAAAAAAAAAAAAAAAAAAAAAAAAAAAAAAAAAAAAAAAAAAAAAAAAAAAAAAAAAAAAAAAAAAAAAAAAAAAAAAAAAAAAAAAAAAAAAAAAAAAAAAAAAAAAAAAAAAAAAAAAAAAAAAAAAAAAAAAAAAAAAAAAAAAAAAAAAAAAAAAAAAAAAAAAAAAAAAAAAAAAAAAAAAAAAAAAAAAAAAAAAAAAAAAAAAAAAAAAAAAAAAAAAAAAAAAAAAAAAAAAAAAAAAAAAAAAAAAAAAAAAAAAAAAAAAAAAAAAAAAAAAAAAAAAAAAAAAAAAAAAAAAAAAAAAAAAAAAAAAAAAAAAAAAAAAAAAAAAAAAAAAAAAAAAAAAAAAAAAAAAAAAAAAAAAAAAAAAAAAAAAAAAAAAAAAAAAAAAAAAAAAAAAAAAAAAAAAAAAAAAAAAAAAAAAAAAAAAAAAAAAAAAAAAAAAAAAAAAAAAAAAAAAAAAAAAAAAAAAAAAAAAAAAAAAAAAAAAAAAAAAAAAAAAAAAAAAAAAAAAAAAAAAAAAAAAAAAAAAAAAAAAAAAAAAAAAAAAAAAAAAAAAAAAAAAAAAAAAAAAAAAAAAAAAAAAAAAAAAAAAAAAAAAAAAAAAAAAAAAAAAAAAAAAAAAAAAAAAAAAAAAAAAAAAAAAAAAAAAAAAAAAAAAAAAAAAAAAAAAAAAAAAAAAAAAAAAAAAAAAAAAAAAAAAAAAAAAAAAAAAAAAAAAAAAAAAAAAAAAAAAAAAAAAAAAAAAAAAAAAAAAAAAAAAAAAAAAAAAAAAAAAAAAAAAAAAAAAAAAAAAAAAAAAAAAAAAAAAAAAAAAAAAAAAAAAAAAAAAAAAAAAAAAAAAAAAAAAAAPZYQJezpqFAxAGo9z8110TJSyQMr0s+yXN9xpeKPJyFJ/nrcyJrgC9vLT4BIWJrQhi8fZDPb/cUdCPlzilj7kRaqPc=</c2pa:manifest></metadata><g transform="translate(18 18) scale(1.2 1.12) translate(240 0) scale(-1 1)"><polygon points="164.8,291.0 155.8,295.9 133.1,298.6 107.2,297.7 90.3,293.6 90.3,288.4 107.2,284.3 133.1,283.4 155.8,286.1" fill="#17251B" opacity=".3"></polygon><polygon points="100.0,236.0 70.0,246.0 50.0,226.0 40.0,240.0 58.0,258.0 98.0,252.0" fill="#17251B" stroke="#17251B" stroke-width="11" stroke-linejoin="miter"></polygon><polygon points="102.4,234.7 88.8,259.0 99.2,265.0 113.6,241.3" fill="#17251B" stroke="#17251B" stroke-width="11" stroke-linejoin="miter"></polygon><polygon points="100.2,262.0 97.1,267.4 90.9,267.4 87.8,262.0 90.9,256.6 97.1,256.6" fill="#17251B" stroke="#17251B" stroke-width="11" stroke-linejoin="miter"></polygon><polygon points="88.5,263.8 90.9,269.7 101.1,266.3 99.5,260.2" fill="#17251B" stroke="#17251B" stroke-width="11" stroke-linejoin="miter"></polygon><polygon points="87.9,260.0 104.1,260.0 106.1,286.0 74.9,286.0" fill="#17251B" stroke="#17251B" stroke-width="11" stroke-linejoin="miter"></polygon><polygon points="102.1,202.1 82.4,222.4 89.6,229.6 109.9,209.9" fill="#17251B" stroke="#17251B" stroke-width="11" stroke-linejoin="miter"></polygon><polygon points="91.5,226.0 88.8,230.8 83.3,230.8 80.5,226.0 83.3,221.2 88.8,221.2" fill="#17251B" stroke="#17251B" stroke-width="11" stroke-linejoin="miter"></polygon><polygon points="81.1,225.0 77.7,245.1 86.3,246.9 90.9,227.0" fill="#17251B" stroke="#17251B" stroke-width="11" stroke-linejoin="miter"></polygon><polygon points="89.6,248.5 84.9,253.8 78.0,253.3 74.1,247.2 76.1,240.3 82.6,237.6 88.6,241.3" fill="#17251B" stroke="#17251B" stroke-width="11" stroke-linejoin="miter"></polygon><polygon points="100.0,196.0 140.0,192.0 150.0,222.0 136.0,246.0 106.0,246.0 94.0,222.0" fill="#17251B" stroke="#17251B" stroke-width="11" stroke-linejoin="miter"></polygon><polygon points="98.0,226.0 146.0,222.0 138.0,240.0 120.0,234.0 104.0,242.0" fill="#17251B" stroke="#17251B" stroke-width="11" stroke-linejoin="miter"></polygon><polygon points="127.2,242.4 147.6,264.0 156.4,256.0 136.8,233.6" fill="#17251B" stroke="#17251B" stroke-width="11" stroke-linejoin="miter"></polygon><polygon points="158.2,260.0 155.1,265.4 148.9,265.4 145.8,260.0 148.9,254.6 155.1,254.6" fill="#17251B" stroke="#17251B" stroke-width="11" stroke-linejoin="miter"></polygon><polygon points="146.8,257.4 143.2,265.6 152.8,270.4 157.2,262.6" fill="#17251B" stroke="#17251B" stroke-width="11" stroke-linejoin="miter"></polygon><polygon points="139.9,260.0 156.1,260.0 169.1,286.0 137.9,286.0" fill="#17251B" stroke="#17251B" stroke-width="11" stroke-linejoin="miter"></polygon><polygon points="96.0,158.0 54.0,136.0 92.0,178.0" fill="#17251B" stroke="#17251B" stroke-width="11" stroke-linejoin="miter"></polygon><polygon points="152.0,156.0 192.0,130.0 156.0,176.0" fill="#17251B" stroke="#17251B" stroke-width="11" stroke-linejoin="miter"></polygon><polygon points="92.0,150.0 112.0,136.0 140.0,134.0 160.0,150.0 158.0,178.0 140.0,198.0 108.0,198.0 90.0,178.0" fill="#17251B" stroke="#17251B" stroke-width="11" stroke-linejoin="miter"></polygon><polygon points="106.0,140.0 96.0,112.0 118.0,136.0" fill="#17251B" stroke="#17251B" stroke-width="11" stroke-linejoin="miter"></polygon><polygon points="134.0,136.0 148.0,110.0 148.0,140.0" fill="#17251B" stroke="#17251B" stroke-width="11" stroke-linejoin="miter"></polygon><polygon points="170.9,203.6 155.1,224.3 161.5,229.2 177.2,208.5" fill="#17251B" stroke="#17251B" stroke-width="11" stroke-linejoin="miter"></polygon><polygon points="180.4,208.4 193.3,189.8 200.0,172.0 184.6,183.2 170.1,200.5" fill="#17251B" stroke="#17251B" stroke-width="11" stroke-linejoin="miter"></polygon><polygon points="166.2,203.2 178.9,212.9 184.4,205.7 171.6,196.0" fill="#17251B" stroke="#17251B" stroke-width="11" stroke-linejoin="miter"></polygon><polygon points="162.9,229.9 159.4,236.0 152.4,236.0 148.9,229.9 152.4,223.8 159.4,223.8" fill="#17251B" stroke="#17251B" stroke-width="11" stroke-linejoin="miter"></polygon><polygon points="136.1,209.9 156.4,229.6 163.6,222.4 143.9,202.1" fill="#17251B" stroke="#17251B" stroke-width="11" stroke-linejoin="miter"></polygon><polygon points="165.5,226.0 162.8,230.8 157.3,230.8 154.5,226.0 157.3,221.2 162.8,221.2" fill="#17251B" stroke="#17251B" stroke-width="11" stroke-linejoin="miter"></polygon><polygon points="164.1,228.7 171.7,216.4 164.3,211.6 155.9,223.3" fill="#17251B" stroke="#17251B" stroke-width="11" stroke-linejoin="miter"></polygon><polygon points="175.6,216.5 170.9,221.8 164.0,221.3 160.1,215.2 162.1,208.3 168.6,205.6 174.6,209.3" fill="#17251B" stroke="#17251B" stroke-width="11" stroke-linejoin="miter"></polygon><g><polygon points="100.0,236.0 70.0,246.0 50.0,226.0 40.0,240.0 58.0,258.0 98.0,252.0" fill="#C8642A" stroke="#17251B" stroke-width="4.5" stroke-linejoin="round"></polygon><polygon points="72.1,238.8 100.0,236.0 70.0,246.0" fill="#cd713a" stroke="#cd713a" stroke-width="0.8" stroke-linejoin="round"></polygon><polygon points="72.1,238.8 70.0,246.0 50.0,226.0" fill="#ca6b32" stroke="#ca6b32" stroke-width="0.8" stroke-linejoin="round"></polygon><polygon points="72.1,238.8 50.0,226.0 40.0,240.0" fill="#ba5e29" stroke="#ba5e29" stroke-width="0.8" stroke-linejoin="round"></polygon><polygon points="72.1,238.8 40.0,240.0 58.0,258.0" fill="#975127" stroke="#975127" stroke-width="0.8" stroke-linejoin="round"></polygon><polygon points="72.1,238.8 58.0,258.0 98.0,252.0" fill="#b75d29" stroke="#b75d29" stroke-width="0.8" stroke-linejoin="round"></polygon><polygon points="72.1,238.8 98.0,252.0 100.0,236.0" fill="#ce743d" stroke="#ce743d" stroke-width="0.8" stroke-linejoin="round"></polygon></g><g><polygon points="102.4,234.7 88.8,259.0 99.2,265.0 113.6,241.3" fill="#C8642A" stroke="#17251B" stroke-width="4.5" stroke-linejoin="round"></polygon><polygon points="103.2,246.7 102.4,234.7 88.8,259.0" fill="#c2622a" stroke="#c2622a" stroke-width="0.8" stroke-linejoin="round"></polygon><polygon points="103.2,246.7 88.8,259.0 99.2,265.0" fill="#914f27" stroke="#914f27" stroke-width="0.8" stroke-linejoin="round"></polygon><polygon points="103.2,246.7 99.2,265.0 113.6,241.3" fill="#ca6930" stroke="#ca6930" stroke-width="0.8" stroke-linejoin="round"></polygon><polygon points="103.2,246.7 113.6,241.3 102.4,234.7" fill="#d3824e" stroke="#d3824e" stroke-width="0.8" stroke-linejoin="round"></polygon></g><g><polygon points="100.2,262.0 97.1,267.4 90.9,267.4 87.8,262.0 90.9,256.6 97.1,256.6" fill="#C8642A" stroke="#17251B" stroke-width="4.5" stroke-linejoin="round"></polygon><polygon points="95.0,260.6 100.2,262.0 97.1,267.4" fill="#c9682f" stroke="#c9682f" stroke-width="0.8" stroke-linejoin="round"></polygon><polygon points="95.0,260.6 97.1,267.4 90.9,267.4" fill="#995227" stroke="#995227" stroke-width="0.8" stroke-linejoin="round"></polygon><polygon points="95.0,260.6 90.9,267.4 87.8,262.0" fill="#985127" stroke="#985127" stroke-width="0.8" stroke-linejoin="round"></polygon><polygon points="95.0,260.6 87.8,262.0 90.9,256.6" fill="#c1612a" stroke="#c1612a" stroke-width="0.8" stroke-linejoin="round"></polygon><polygon points="95.0,260.6 90.9,256.6 97.1,256.6" fill="#d17b46" stroke="#d17b46" stroke-width="0.8" stroke-linejoin="round"></polygon><polygon points="95.0,260.6 97.1,256.6 100.2,262.0" fill="#d3814d" stroke="#d3814d" stroke-width="0.8" stroke-linejoin="round"></polygon></g><g><polygon points="88.5,263.8 90.9,269.7 101.1,266.3 99.5,260.2" fill="#C8642A" stroke="#17251B" stroke-width="4.5" stroke-linejoin="round"></polygon><polygon points="95.8,263.7 88.5,263.8 90.9,269.7" fill="#9d5328" stroke="#9d5328" stroke-width="0.8" stroke-linejoin="round"></polygon><polygon points="95.8,263.7 90.9,269.7 101.1,266.3" fill="#9d5328" stroke="#9d5328" stroke-width="0.8" stroke-linejoin="round"></polygon><polygon points="95.8,263.7 101.1,266.3 99.5,260.2" fill="#d17d49" stroke="#d17d49" stroke-width="0.8" stroke-linejoin="round"></polygon><polygon points="95.8,263.7 99.5,260.2 88.5,263.8" fill="#cf7640" stroke="#cf7640" stroke-width="0.8" stroke-linejoin="round"></polygon></g><g><polygon points="87.9,260.0 104.1,260.0 106.1,286.0 74.9,286.0" fill="#6E3314" stroke="#17251B" stroke-width="4.5" stroke-linejoin="round"></polygon><polygon points="95.5,269.5 87.9,260.0 104.1,260.0" fill="#8e5e40" stroke="#8e5e40" stroke-width="0.8" stroke-linejoin="round"></polygon><polygon points="95.5,269.5 104.1,260.0 106.1,286.0" fill="#824e2f" stroke="#824e2f" stroke-width="0.8" stroke-linejoin="round"></polygon><polygon points="95.5,269.5 106.1,286.0 74.9,286.0" fill="#4f2b18" stroke="#4f2b18" stroke-width="0.8" stroke-linejoin="round"></polygon><polygon points="95.5,269.5 74.9,286.0 87.9,260.0" fill="#5e2f16" stroke="#5e2f16" stroke-width="0.8" stroke-linejoin="round"></polygon></g><g><polygon points="102.1,202.1 82.4,222.4 89.6,229.6 109.9,209.9" fill="#C8642A" stroke="#17251B" stroke-width="4.5" stroke-linejoin="round"></polygon><polygon points="98.4,212.4 102.1,202.1 82.4,222.4" fill="#cc6f37" stroke="#cc6f37" stroke-width="0.8" stroke-linejoin="round"></polygon><polygon points="98.4,212.4 82.4,222.4 89.6,229.6" fill="#914f27" stroke="#914f27" stroke-width="0.8" stroke-linejoin="round"></polygon><polygon points="98.4,212.4 89.6,229.6 109.9,209.9" fill="#be6029" stroke="#be6029" stroke-width="0.8" stroke-linejoin="round"></polygon><polygon points="98.4,212.4 109.9,209.9 102.1,202.1" fill="#d3824e" stroke="#d3824e" stroke-width="0.8" stroke-linejoin="round"></polygon></g><g><polygon points="91.5,226.0 88.8,230.8 83.3,230.8 80.5,226.0 83.3,221.2 88.8,221.2" fill="#C8642A" stroke="#17251B" stroke-width="4.5" stroke-linejoin="round"></polygon><polygon points="86.8,224.7 91.5,226.0 88.8,230.8" fill="#ca6b32" stroke="#ca6b32" stroke-width="0.8" stroke-linejoin="round"></polygon><polygon points="86.8,224.7 88.8,230.8 83.3,230.8" fill="#9d5328" stroke="#9d5328" stroke-width="0.8" stroke-linejoin="round"></polygon><polygon points="86.8,224.7 83.3,230.8 80.5,226.0" fill="#924f27" stroke="#924f27" stroke-width="0.8" stroke-linejoin="round"></polygon><polygon points="86.8,224.7 80.5,226.0 83.3,221.2" fill="#c2622a" stroke="#c2622a" stroke-width="0.8" stroke-linejoin="round"></polygon><polygon points="86.8,224.7 83.3,221.2 88.8,221.2" fill="#d3814d" stroke="#d3814d" stroke-width="0.8" stroke-linejoin="round"></polygon><polygon points="86.8,224.7 88.8,221.2 91.5,226.0" fill="#d17c48" stroke="#d17c48" stroke-width="0.8" stroke-linejoin="round"></polygon></g><g><polygon points="81.1,225.0 77.7,245.1 86.3,246.9 90.9,227.0" fill="#C8642A" stroke="#17251B" stroke-width="4.5" stroke-linejoin="round"></polygon><polygon points="85.2,234.3 81.1,225.0 77.7,245.1" fill="#ad5929" stroke="#ad5929" stroke-width="0.8" stroke-linejoin="round"></polygon><polygon points="85.2,234.3 77.7,245.1 86.3,246.9" fill="#8f4e27" stroke="#8f4e27" stroke-width="0.8" stroke-linejoin="round"></polygon><polygon points="85.2,234.3 86.3,246.9 90.9,227.0" fill="#cc6e37" stroke="#cc6e37" stroke-width="0.8" stroke-linejoin="round"></polygon><polygon points="85.2,234.3 90.9,227.0 81.1,225.0" fill="#d17d48" stroke="#d17d48" stroke-width="0.8" stroke-linejoin="round"></polygon></g><g><polygon points="89.6,248.5 84.9,253.8 78.0,253.3 74.1,247.2 76.1,240.3 82.6,237.6 88.6,241.3" fill="#E58A46" stroke="#17251B" stroke-width="4.5" stroke-linejoin="round"></polygon><polygon points="83.4,243.9 89.6,248.5 84.9,253.8" fill="#e08745" stroke="#e08745" stroke-width="0.8" stroke-linejoin="round"></polygon><polygon points="83.4,243.9 84.9,253.8 78.0,253.3" fill="#ab6c3c" stroke="#ab6c3c" stroke-width="0.8" stroke-linejoin="round"></polygon><polygon points="83.4,243.9 78.0,253.3 74.1,247.2" fill="#aa6b3b" stroke="#aa6b3b" stroke-width="0.8" stroke-linejoin="round"></polygon><polygon points="83.4,243.9 74.1,247.2 76.1,240.3" fill="#d98444" stroke="#d98444" stroke-width="0.8" stroke-linejoin="round"></polygon><polygon points="83.4,243.9 76.1,240.3 82.6,237.6" fill="#e79352" stroke="#e79352" stroke-width="0.8" stroke-linejoin="round"></polygon><polygon points="83.4,243.9 82.6,237.6 88.6,241.3" fill="#ea9e61" stroke="#ea9e61" stroke-width="0.8" stroke-linejoin="round"></polygon><polygon points="83.4,243.9 88.6,241.3 89.6,248.5" fill="#e9995b" stroke="#e9995b" stroke-width="0.8" stroke-linejoin="round"></polygon></g><g><polygon points="100.0,196.0 140.0,192.0 150.0,222.0 136.0,246.0 106.0,246.0 94.0,222.0" fill="#E58A46" stroke="#17251B" stroke-width="4.5" stroke-linejoin="round"></polygon><polygon points="125.8,213.5 100.0,196.0 140.0,192.0" fill="#e99c5f" stroke="#e99c5f" stroke-width="0.8" stroke-linejoin="round"></polygon><polygon points="125.8,213.5 140.0,192.0 150.0,222.0" fill="#e99d60" stroke="#e99d60" stroke-width="0.8" stroke-linejoin="round"></polygon><polygon points="125.8,213.5 150.0,222.0 136.0,246.0" fill="#e18845" stroke="#e18845" stroke-width="0.8" stroke-linejoin="round"></polygon><polygon points="125.8,213.5 136.0,246.0 106.0,246.0" fill="#b3703d" stroke="#b3703d" stroke-width="0.8" stroke-linejoin="round"></polygon><polygon points="125.8,213.5 106.0,246.0 94.0,222.0" fill="#9f663a" stroke="#9f663a" stroke-width="0.8" stroke-linejoin="round"></polygon><polygon points="125.8,213.5 94.0,222.0 100.0,196.0" fill="#da8444" stroke="#da8444" stroke-width="0.8" stroke-linejoin="round"></polygon></g><g><polygon points="98.0,226.0 146.0,222.0 138.0,240.0 120.0,234.0 104.0,242.0" fill="#7A3B3B" stroke="#17251B" stroke-width="4.5" stroke-linejoin="round"></polygon><polygon points="123.0,230.1 98.0,226.0 146.0,222.0" fill="#905a56" stroke="#905a56" stroke-width="0.8" stroke-linejoin="round"></polygon><polygon points="123.0,230.1 146.0,222.0 138.0,240.0" fill="#8c5551" stroke="#8c5551" stroke-width="0.8" stroke-linejoin="round"></polygon><polygon points="123.0,230.1 138.0,240.0 120.0,234.0" fill="#814543" stroke="#814543" stroke-width="0.8" stroke-linejoin="round"></polygon><polygon points="123.0,230.1 120.0,234.0 104.0,242.0" fill="#5c3233" stroke="#5c3233" stroke-width="0.8" stroke-linejoin="round"></polygon><polygon points="123.0,230.1 104.0,242.0 98.0,226.0" fill="#633435" stroke="#633435" stroke-width="0.8" stroke-linejoin="round"></polygon></g><g><polygon points="127.2,242.4 147.6,264.0 156.4,256.0 136.8,233.6" fill="#C8642A" stroke="#17251B" stroke-width="4.5" stroke-linejoin="round"></polygon><polygon points="144.6,245.1 127.2,242.4 147.6,264.0" fill="#8e4d27" stroke="#8e4d27" stroke-width="0.8" stroke-linejoin="round"></polygon><polygon points="144.6,245.1 147.6,264.0 156.4,256.0" fill="#b65d29" stroke="#b65d29" stroke-width="0.8" stroke-linejoin="round"></polygon><polygon points="144.6,245.1 156.4,256.0 136.8,233.6" fill="#d27f4b" stroke="#d27f4b" stroke-width="0.8" stroke-linejoin="round"></polygon><polygon points="144.6,245.1 136.8,233.6 127.2,242.4" fill="#ca6a32" stroke="#ca6a32" stroke-width="0.8" stroke-linejoin="round"></polygon></g><g><polygon points="158.2,260.0 155.1,265.4 148.9,265.4 145.8,260.0 148.9,254.6 155.1,254.6" fill="#C8642A" stroke="#17251B" stroke-width="4.5" stroke-linejoin="round"></polygon><polygon points="153.0,258.6 158.2,260.0 155.1,265.4" fill="#c8642a" stroke="#c8642a" stroke-width="0.8" stroke-linejoin="round"></polygon><polygon points="153.0,258.6 155.1,265.4 148.9,265.4" fill="#985127" stroke="#985127" stroke-width="0.8" stroke-linejoin="round"></polygon><polygon points="153.0,258.6 148.9,265.4 145.8,260.0" fill="#955027" stroke="#955027" stroke-width="0.8" stroke-linejoin="round"></polygon><polygon points="153.0,258.6 145.8,260.0 148.9,254.6" fill="#c0612a" stroke="#c0612a" stroke-width="0.8" stroke-linejoin="round"></polygon><polygon points="153.0,258.6 148.9,254.6 155.1,254.6" fill="#d3814e" stroke="#d3814e" stroke-width="0.8" stroke-linejoin="round"></polygon><polygon points="153.0,258.6 155.1,254.6 158.2,260.0" fill="#d27e49" stroke="#d27e49" stroke-width="0.8" stroke-linejoin="round"></polygon></g><g><polygon points="146.8,257.4 143.2,265.6 152.8,270.4 157.2,262.6" fill="#C8642A" stroke="#17251B" stroke-width="4.5" stroke-linejoin="round"></polygon><polygon points="151.1,262.3 146.8,257.4 143.2,265.6" fill="#c6632a" stroke="#c6632a" stroke-width="0.8" stroke-linejoin="round"></polygon><polygon points="151.1,262.3 143.2,265.6 152.8,270.4" fill="#904e27" stroke="#904e27" stroke-width="0.8" stroke-linejoin="round"></polygon><polygon points="151.1,262.3 152.8,270.4 157.2,262.6" fill="#ca6930" stroke="#ca6930" stroke-width="0.8" stroke-linejoin="round"></polygon><polygon points="151.1,262.3 157.2,262.6 146.8,257.4" fill="#d3814e" stroke="#d3814e" stroke-width="0.8" stroke-linejoin="round"></polygon></g><g><polygon points="139.9,260.0 156.1,260.0 169.1,286.0 137.9,286.0" fill="#6E3314" stroke="#17251B" stroke-width="4.5" stroke-linejoin="round"></polygon><polygon points="153.0,269.5 139.9,260.0 156.1,260.0" fill="#824f30" stroke="#824f30" stroke-width="0.8" stroke-linejoin="round"></polygon><polygon points="153.0,269.5 156.1,260.0 169.1,286.0" fill="#804c2d" stroke="#804c2d" stroke-width="0.8" stroke-linejoin="round"></polygon><polygon points="153.0,269.5 169.1,286.0 137.9,286.0" fill="#5c2f16" stroke="#5c2f16" stroke-width="0.8" stroke-linejoin="round"></polygon><polygon points="153.0,269.5 137.9,286.0 139.9,260.0" fill="#5d2f16" stroke="#5d2f16" stroke-width="0.8" stroke-linejoin="round"></polygon></g><g><polygon points="96.0,158.0 54.0,136.0 92.0,178.0" fill="#C8642A" stroke="#17251B" stroke-width="4.5" stroke-linejoin="round"></polygon><polygon points="84.4,151.8 96.0,158.0 54.0,136.0" fill="#ce743e" stroke="#ce743e" stroke-width="0.8" stroke-linejoin="round"></polygon><polygon points="84.4,151.8 54.0,136.0 92.0,178.0" fill="#a65728" stroke="#a65728" stroke-width="0.8" stroke-linejoin="round"></polygon><polygon points="84.4,151.8 92.0,178.0 96.0,158.0" fill="#c4622a" stroke="#c4622a" stroke-width="0.8" stroke-linejoin="round"></polygon></g><g><polygon points="152.0,156.0 192.0,130.0 156.0,176.0" fill="#C8642A" stroke="#17251B" stroke-width="4.5" stroke-linejoin="round"></polygon><polygon points="170.2,148.7 152.0,156.0 192.0,130.0" fill="#d27f4b" stroke="#d27f4b" stroke-width="0.8" stroke-linejoin="round"></polygon><polygon points="170.2,148.7 192.0,130.0 156.0,176.0" fill="#ce753f" stroke="#ce753f" stroke-width="0.8" stroke-linejoin="round"></polygon><polygon points="170.2,148.7 156.0,176.0 152.0,156.0" fill="#8d4d27" stroke="#8d4d27" stroke-width="0.8" stroke-linejoin="round"></polygon></g><g><polygon points="92.0,150.0 112.0,136.0 140.0,134.0 160.0,150.0 158.0,178.0 140.0,198.0 108.0,198.0 90.0,178.0" fill="#C8642A" stroke="#17251B" stroke-width="4.5" stroke-linejoin="round"></polygon><polygon points="130.6,156.8 92.0,150.0 112.0,136.0" fill="#cb6d35" stroke="#cb6d35" stroke-width="0.8" stroke-linejoin="round"></polygon><polygon points="130.6,156.8 112.0,136.0 140.0,134.0" fill="#d3824e" stroke="#d3824e" stroke-width="0.8" stroke-linejoin="round"></polygon><polygon points="130.6,156.8 140.0,134.0 160.0,150.0" fill="#d17c47" stroke="#d17c47" stroke-width="0.8" stroke-linejoin="round"></polygon><polygon points="130.6,156.8 160.0,150.0 158.0,178.0" fill="#d07943" stroke="#d07943" stroke-width="0.8" stroke-linejoin="round"></polygon><polygon points="130.6,156.8 158.0,178.0 140.0,198.0" fill="#b85e29" stroke="#b85e29" stroke-width="0.8" stroke-linejoin="round"></polygon><polygon points="130.6,156.8 140.0,198.0 108.0,198.0" fill="#955027" stroke="#955027" stroke-width="0.8" stroke-linejoin="round"></polygon><polygon points="130.6,156.8 108.0,198.0 90.0,178.0" fill="#8a4c27" stroke="#8a4c27" stroke-width="0.8" stroke-linejoin="round"></polygon><polygon points="130.6,156.8 90.0,178.0 92.0,150.0" fill="#a35628" stroke="#a35628" stroke-width="0.8" stroke-linejoin="round"></polygon></g><g><polygon points="106.0,140.0 96.0,112.0 118.0,136.0" fill="#EADFC8" stroke="#17251B" stroke-width="4.5" stroke-linejoin="round"></polygon><polygon points="108.6,126.4 106.0,140.0 96.0,112.0" fill="#eae0c8" stroke="#eae0c8" stroke-width="0.8" stroke-linejoin="round"></polygon><polygon points="108.6,126.4 96.0,112.0 118.0,136.0" fill="#ede3cb" stroke="#ede3cb" stroke-width="0.8" stroke-linejoin="round"></polygon><polygon points="108.6,126.4 118.0,136.0 106.0,140.0" fill="#cfc7b3" stroke="#cfc7b3" stroke-width="0.8" stroke-linejoin="round"></polygon></g><g><polygon points="134.0,136.0 148.0,110.0 148.0,140.0" fill="#EADFC8" stroke="#17251B" stroke-width="4.5" stroke-linejoin="round"></polygon><polygon points="144.6,126.8 134.0,136.0 148.0,110.0" fill="#ece1ca" stroke="#ece1ca" stroke-width="0.8" stroke-linejoin="round"></polygon><polygon points="144.6,126.8 148.0,110.0 148.0,140.0" fill="#eee4cc" stroke="#eee4cc" stroke-width="0.8" stroke-linejoin="round"></polygon><polygon points="144.6,126.8 148.0,140.0 134.0,136.0" fill="#aaa697" stroke="#aaa697" stroke-width="0.8" stroke-linejoin="round"></polygon></g><polygon points="100.0,158.0 122.0,166.0 104.0,174.0" fill="#FFD23F" stroke="#17251B" stroke-width="3" stroke-linejoin="round"></polygon><polygon points="132.0,166.0 154.0,156.0 150.0,174.0" fill="#FFD23F" stroke="#17251B" stroke-width="3" stroke-linejoin="round"></polygon><polygon points="99.2,156.4 123.4,163.9 124.6,160.1 100.8,151.6" fill="#17251B"></polygon><polygon points="130.7,163.9 156.9,154.3 155.1,149.7 129.3,160.1" fill="#17251B"></polygon><polygon points="106,182 150,177 142,191 112,193" fill="#1A0F1F" stroke="#17251B" stroke-width="3" stroke-linejoin="round"></polygon><polyline points="108,183 113,189 118,182 123,189 128,181 133,188 138,180 143,186 148,178" fill="none" stroke="#FFFDF6" stroke-width="2.2" stroke-linejoin="round"></polyline><g><polygon points="170.9,203.6 155.1,224.3 161.5,229.2 177.2,208.5" fill="#5C3A22" stroke="#17251B" stroke-width="4.5" stroke-linejoin="round"></polygon><polygon points="168.1,213.4 170.9,203.6 155.1,224.3" fill="#5b3a22" stroke="#5b3a22" stroke-width="0.8" stroke-linejoin="round"></polygon><polygon points="168.1,213.4 155.1,224.3 161.5,229.2" fill="#463121" stroke="#463121" stroke-width="0.8" stroke-linejoin="round"></polygon><polygon points="168.1,213.4 161.5,229.2 177.2,208.5" fill="#5e3c24" stroke="#5e3c24" stroke-width="0.8" stroke-linejoin="round"></polygon><polygon points="168.1,213.4 177.2,208.5 170.9,203.6" fill="#81664d" stroke="#81664d" stroke-width="0.8" stroke-linejoin="round"></polygon></g><g><polygon points="180.4,208.4 193.3,189.8 200.0,172.0 184.6,183.2 170.1,200.5" fill="#8E97A0" stroke="#17251B" stroke-width="4.5" stroke-linejoin="round"></polygon><polygon points="188.3,186.8 180.4,208.4 193.3,189.8" fill="#747d85" stroke="#747d85" stroke-width="0.8" stroke-linejoin="round"></polygon><polygon points="188.3,186.8 193.3,189.8 200.0,172.0" fill="#a7adae" stroke="#a7adae" stroke-width="0.8" stroke-linejoin="round"></polygon><polygon points="188.3,186.8 200.0,172.0 184.6,183.2" fill="#a7acae" stroke="#a7acae" stroke-width="0.8" stroke-linejoin="round"></polygon><polygon points="188.3,186.8 184.6,183.2 170.1,200.5" fill="#717b83" stroke="#717b83" stroke-width="0.8" stroke-linejoin="round"></polygon><polygon points="188.3,186.8 170.1,200.5 180.4,208.4" fill="#616b72" stroke="#616b72" stroke-width="0.8" stroke-linejoin="round"></polygon></g><polygon points="176.5,205.4 190.0,187.3 188.5,186.1 174.8,204.1" fill="#C8CED4" opacity=".7"></polygon><g><polygon points="166.2,203.2 178.9,212.9 184.4,205.7 171.6,196.0" fill="#5C3A22" stroke="#17251B" stroke-width="4.5" stroke-linejoin="round"></polygon><polygon points="176.8,202.2 166.2,203.2 178.9,212.9" fill="#423021" stroke="#423021" stroke-width="0.8" stroke-linejoin="round"></polygon><polygon points="176.8,202.2 178.9,212.9 184.4,205.7" fill="#583822" stroke="#583822" stroke-width="0.8" stroke-linejoin="round"></polygon><polygon points="176.8,202.2 184.4,205.7 171.6,196.0" fill="#765840" stroke="#765840" stroke-width="0.8" stroke-linejoin="round"></polygon><polygon points="176.8,202.2 171.6,196.0 166.2,203.2" fill="#603e26" stroke="#603e26" stroke-width="0.8" stroke-linejoin="round"></polygon></g><g><polygon points="162.9,229.9 159.4,236.0 152.4,236.0 148.9,229.9 152.4,223.8 159.4,223.8" fill="#5C3A22" stroke="#17251B" stroke-width="4.5" stroke-linejoin="round"></polygon><polygon points="156.9,228.3 162.9,229.9 159.4,236.0" fill="#5b3a22" stroke="#5b3a22" stroke-width="0.8" stroke-linejoin="round"></polygon><polygon points="156.9,228.3 159.4,236.0 152.4,236.0" fill="#493322" stroke="#493322" stroke-width="0.8" stroke-linejoin="round"></polygon><polygon points="156.9,228.3 152.4,236.0 148.9,229.9" fill="#463121" stroke="#463121" stroke-width="0.8" stroke-linejoin="round"></polygon><polygon points="156.9,228.3 148.9,229.9 152.4,223.8" fill="#5c3a22" stroke="#5c3a22" stroke-width="0.8" stroke-linejoin="round"></polygon><polygon points="156.9,228.3 152.4,223.8 159.4,223.8" fill="#74563d" stroke="#74563d" stroke-width="0.8" stroke-linejoin="round"></polygon><polygon points="156.9,228.3 159.4,223.8 162.9,229.9" fill="#7e6249" stroke="#7e6249" stroke-width="0.8" stroke-linejoin="round"></polygon></g><g><polygon points="136.1,209.9 156.4,229.6 163.6,222.4 143.9,202.1" fill="#C8642A" stroke="#17251B" stroke-width="4.5" stroke-linejoin="round"></polygon><polygon points="152.4,212.4 136.1,209.9 156.4,229.6" fill="#8b4c27" stroke="#8b4c27" stroke-width="0.8" stroke-linejoin="round"></polygon><polygon points="152.4,212.4 156.4,229.6 163.6,222.4" fill="#ba5f29" stroke="#ba5f29" stroke-width="0.8" stroke-linejoin="round"></polygon><polygon points="152.4,212.4 163.6,222.4 143.9,202.1" fill="#d48653" stroke="#d48653" stroke-width="0.8" stroke-linejoin="round"></polygon><polygon points="152.4,212.4 143.9,202.1 136.1,209.9" fill="#c8652c" stroke="#c8652c" stroke-width="0.8" stroke-linejoin="round"></polygon></g><g><polygon points="165.5,226.0 162.8,230.8 157.3,230.8 154.5,226.0 157.3,221.2 162.8,221.2" fill="#C8642A" stroke="#17251B" stroke-width="4.5" stroke-linejoin="round"></polygon><polygon points="160.8,224.7 165.5,226.0 162.8,230.8" fill="#c9662c" stroke="#c9662c" stroke-width="0.8" stroke-linejoin="round"></polygon><polygon points="160.8,224.7 162.8,230.8 157.3,230.8" fill="#904e27" stroke="#904e27" stroke-width="0.8" stroke-linejoin="round"></polygon><polygon points="160.8,224.7 157.3,230.8 154.5,226.0" fill="#9a5227" stroke="#9a5227" stroke-width="0.8" stroke-linejoin="round"></polygon><polygon points="160.8,224.7 154.5,226.0 157.3,221.2" fill="#c6632a" stroke="#c6632a" stroke-width="0.8" stroke-linejoin="round"></polygon><polygon points="160.8,224.7 157.3,221.2 162.8,221.2" fill="#d3824e" stroke="#d3824e" stroke-width="0.8" stroke-linejoin="round"></polygon><polygon points="160.8,224.7 162.8,221.2 165.5,226.0" fill="#d07943" stroke="#d07943" stroke-width="0.8" stroke-linejoin="round"></polygon></g><g><polygon points="164.1,228.7 171.7,216.4 164.3,211.6 155.9,223.3" fill="#C8642A" stroke="#17251B" stroke-width="4.5" stroke-linejoin="round"></polygon><polygon points="165.4,217.9 164.1,228.7 171.7,216.4" fill="#ca6930" stroke="#ca6930" stroke-width="0.8" stroke-linejoin="round"></polygon><polygon points="165.4,217.9 171.7,216.4 164.3,211.6" fill="#d27e49" stroke="#d27e49" stroke-width="0.8" stroke-linejoin="round"></polygon><polygon points="165.4,217.9 164.3,211.6 155.9,223.3" fill="#ca6a31" stroke="#ca6a31" stroke-width="0.8" stroke-linejoin="round"></polygon><polygon points="165.4,217.9 155.9,223.3 164.1,228.7" fill="#8e4d27" stroke="#8e4d27" stroke-width="0.8" stroke-linejoin="round"></polygon></g><g><polygon points="175.6,216.5 170.9,221.8 164.0,221.3 160.1,215.2 162.1,208.3 168.6,205.6 174.6,209.3" fill="#E58A46" stroke="#17251B" stroke-width="4.5" stroke-linejoin="round"></polygon><polygon points="169.4,211.9 175.6,216.5 170.9,221.8" fill="#db8544" stroke="#db8544" stroke-width="0.8" stroke-linejoin="round"></polygon><polygon points="169.4,211.9 170.9,221.8 164.0,221.3" fill="#a6693b" stroke="#a6693b" stroke-width="0.8" stroke-linejoin="round"></polygon><polygon points="169.4,211.9 164.0,221.3 160.1,215.2" fill="#a1673a" stroke="#a1673a" stroke-width="0.8" stroke-linejoin="round"></polygon><polygon points="169.4,211.9 160.1,215.2 162.1,208.3" fill="#ce7e42" stroke="#ce7e42" stroke-width="0.8" stroke-linejoin="round"></polygon><polygon points="169.4,211.9 162.1,208.3 168.6,205.6" fill="#e89759" stroke="#e89759" stroke-width="0.8" stroke-linejoin="round"></polygon><polygon points="169.4,211.9 168.6,205.6 174.6,209.3" fill="#e99c5f" stroke="#e99c5f" stroke-width="0.8" stroke-linejoin="round"></polygon><polygon points="169.4,211.9 174.6,209.3 175.6,216.5" fill="#e99b5e" stroke="#e99b5e" stroke-width="0.8" stroke-linejoin="round"></polygon></g></g></svg>