<svg xmlns="http://www.w3.org/2000/svg" viewBox="0 0 256 256" width="256" height="256"><polygon points="20.0,264.0 40.0,200.0 128.0,186.0 216.0,200.0 236.0,264.0" fill="#17251B" stroke="#17251B" stroke-width="10" stroke-linejoin="round"/><polygon points="67.7,120.5 70.0,71.2 99.0,43.4 145.4,41.0 181.4,59.6 189.5,100.2 187.7,123.4 68.3,123.4" fill="#17251B" stroke="#17251B" stroke-width="10" stroke-linejoin="round"/><polygon points="109.0,150.0 108.0,186.0 148.0,186.0 147.0,150.0" fill="#17251B" stroke="#17251B" stroke-width="10" stroke-linejoin="round"/><polygon points="26.0,264.0 36.2,214.0 75.0,182.0 128.0,176.0 181.0,182.0 219.8,214.0 230.0,264.0" fill="#17251B" stroke="#17251B" stroke-width="10" stroke-linejoin="round"/><polygon points="98.0,198.0 158.0,198.0 164.0,264.0 92.0,264.0" fill="#17251B" stroke="#17251B" stroke-width="10" stroke-linejoin="round"/><polygon points="128.0,214.0 142.0,240.0 114.0,240.0" fill="#17251B" stroke="#17251B" stroke-width="10" stroke-linejoin="round"/><polygon points="90.0,210.0 80.6,227.0 58.0,234.0 35.4,227.0 26.0,210.0 35.4,193.0 58.0,186.0 80.6,193.0" fill="#17251B" stroke="#17251B" stroke-width="10" stroke-linejoin="round"/><polygon points="230.0,210.0 220.6,227.0 198.0,234.0 175.4,227.0 166.0,210.0 175.4,193.0 198.0,186.0 220.6,193.0" fill="#17251B" stroke="#17251B" stroke-width="10" stroke-linejoin="round"/><polygon points="162.0,184.0 152.0,192.5 128.0,196.0 104.0,192.5 94.0,184.0 104.0,175.5 128.0,172.0 152.0,175.5" fill="#17251B" stroke="#17251B" stroke-width="10" stroke-linejoin="round"/><polygon points="83.9,113.0 78.4,126.0 67.4,126.0 61.9,113.0 67.4,99.9 78.4,99.9" fill="#17251B" stroke="#17251B" stroke-width="10" stroke-linejoin="round"/><polygon points="195.3,113.0 189.8,126.0 178.8,126.0 173.2,113.0 178.8,99.9 189.8,99.9" fill="#17251B" stroke="#17251B" stroke-width="10" stroke-linejoin="round"/><polygon points="129.7,169.8 93.9,153.9 72.8,124.3 72.8,87.7 93.9,58.1 128.0,46.8 162.1,58.1 183.2,87.7 183.2,124.3 162.1,153.9" fill="#17251B" stroke="#17251B" stroke-width="10" stroke-linejoin="round"/><polygon points="71.2,104.8 74.6,65.4 110.6,42.2 157.0,45.7 184.8,77.0 185.4,104.8 170.9,81.6 139.6,75.8 110.6,84.0 86.2,93.2" fill="#17251B" stroke="#17251B" stroke-width="10" stroke-linejoin="round"/><g><polygon points="20.0,264.0 40.0,200.0 128.0,186.0 216.0,200.0 236.0,264.0" fill="#E0662A" stroke="#17251B" stroke-width="4" stroke-linejoin="round"/><polygon points="121.1,212.4 20.0,264.0 40.0,200.0" fill="#e26e34" stroke="#e26e34" stroke-width="0.8" stroke-linejoin="round"/><polygon points="121.1,212.4 40.0,200.0 128.0,186.0" fill="#e6834d" stroke="#e6834d" stroke-width="0.8" stroke-linejoin="round"/><polygon points="121.1,212.4 128.0,186.0 216.0,200.0" fill="#db642a" stroke="#db642a" stroke-width="0.8" stroke-linejoin="round"/><polygon points="121.1,212.4 216.0,200.0 236.0,264.0" fill="#b15528" stroke="#b15528" stroke-width="0.8" stroke-linejoin="round"/><polygon points="121.1,212.4 236.0,264.0 20.0,264.0" fill="#a35027" stroke="#a35027" stroke-width="0.8" stroke-linejoin="round"/></g><g><polygon points="67.7,120.5 70.0,71.2 99.0,43.4 145.4,41.0 181.4,59.6 189.5,100.2 187.7,123.4 68.3,123.4" fill="#6B3E22" stroke="#17251B" stroke-width="4" stroke-linejoin="round"/><polygon points="118.9,74.4 67.7,120.5 70.0,71.2" fill="#795034" stroke="#795034" stroke-width="0.8" stroke-linejoin="round"/><polygon points="118.9,74.4 70.0,71.2 99.0,43.4" fill="#8a6549" stroke="#8a6549" stroke-width="0.8" stroke-linejoin="round"/><polygon points="118.9,74.4 99.0,43.4 145.4,41.0" fill="#8b664a" stroke="#8b664a" stroke-width="0.8" stroke-linejoin="round"/><polygon points="118.9,74.4 145.4,41.0 181.4,59.6" fill="#6b3e22" stroke="#6b3e22" stroke-width="0.8" stroke-linejoin="round"/><polygon points="118.9,74.4 181.4,59.6 189.5,100.2" fill="#5f3922" stroke="#5f3922" stroke-width="0.8" stroke-linejoin="round"/><polygon points="118.9,74.4 189.5,100.2 187.7,123.4" fill="#503421" stroke="#503421" stroke-width="0.8" stroke-linejoin="round"/><polygon points="118.9,74.4 187.7,123.4 68.3,123.4" fill="#4f3421" stroke="#4f3421" stroke-width="0.8" stroke-linejoin="round"/><polygon points="118.9,74.4 68.3,123.4 67.7,120.5" fill="#6a3e22" stroke="#6a3e22" stroke-width="0.8" stroke-linejoin="round"/></g><g><polygon points="109.0,150.0 108.0,186.0 148.0,186.0 147.0,150.0" fill="#F4BE8E" stroke="#17251B" stroke-width="4" stroke-linejoin="round"/><polygon points="124.8,163.2 109.0,150.0 108.0,186.0" fill="#f5c699" stroke="#f5c699" stroke-width="0.8" stroke-linejoin="round"/><polygon points="124.8,163.2 108.0,186.0 148.0,186.0" fill="#b4916f" stroke="#b4916f" stroke-width="0.8" stroke-linejoin="round"/><polygon points="124.8,163.2 148.0,186.0 147.0,150.0" fill="#d3a77e" stroke="#d3a77e" stroke-width="0.8" stroke-linejoin="round"/><polygon points="124.8,163.2 147.0,150.0 109.0,150.0" fill="#f6c79a" stroke="#f6c79a" stroke-width="0.8" stroke-linejoin="round"/></g><g><polygon points="26.0,264.0 36.2,214.0 75.0,182.0 128.0,176.0 181.0,182.0 219.8,214.0 230.0,264.0" fill="#B7C3CE" stroke="#17251B" stroke-width="4" stroke-linejoin="round"/><polygon points="120.3,202.0 26.0,264.0 36.2,214.0" fill="#bcc7cf" stroke="#bcc7cf" stroke-width="0.8" stroke-linejoin="round"/><polygon points="120.3,202.0 36.2,214.0 75.0,182.0" fill="#bfc9d0" stroke="#bfc9d0" stroke-width="0.8" stroke-linejoin="round"/><polygon points="120.3,202.0 75.0,182.0 128.0,176.0" fill="#c5cdd1" stroke="#c5cdd1" stroke-width="0.8" stroke-linejoin="round"/><polygon points="120.3,202.0 128.0,176.0 181.0,182.0" fill="#bec8cf" stroke="#bec8cf" stroke-width="0.8" stroke-linejoin="round"/><polygon points="120.3,202.0 181.0,182.0 219.8,214.0" fill="#a5b1bc" stroke="#a5b1bc" stroke-width="0.8" stroke-linejoin="round"/><polygon points="120.3,202.0 219.8,214.0 230.0,264.0" fill="#929ea8" stroke="#929ea8" stroke-width="0.8" stroke-linejoin="round"/><polygon points="120.3,202.0 230.0,264.0 26.0,264.0" fill="#89959e" stroke="#89959e" stroke-width="0.8" stroke-linejoin="round"/></g><g><polygon points="98.0,198.0 158.0,198.0 164.0,264.0 92.0,264.0" fill="#FF8C32" stroke="#17251B" stroke-width="4" stroke-linejoin="round"/><polygon points="122.2,222.2 98.0,198.0 158.0,198.0" fill="#ff9e4f" stroke="#ff9e4f" stroke-width="0.8" stroke-linejoin="round"/><polygon points="122.2,222.2 158.0,198.0 164.0,264.0" fill="#d87a2f" stroke="#d87a2f" stroke-width="0.8" stroke-linejoin="round"/><polygon points="122.2,222.2 164.0,264.0 92.0,264.0" fill="#bf6e2d" stroke="#bf6e2d" stroke-width="0.8" stroke-linejoin="round"/><polygon points="122.2,222.2 92.0,264.0 98.0,198.0" fill="#ff9c4b" stroke="#ff9c4b" stroke-width="0.8" stroke-linejoin="round"/></g><g><polygon points="128.0,214.0 142.0,240.0 114.0,240.0" fill="#FFD23F" stroke="#17251B" stroke-width="3" stroke-linejoin="round"/><polygon points="125.7,227.9 128.0,214.0 142.0,240.0" fill="#ffd240" stroke="#ffd240" stroke-width="0.8" stroke-linejoin="round"/><polygon points="125.7,227.9 142.0,240.0 114.0,240.0" fill="#c5a638" stroke="#c5a638" stroke-width="0.8" stroke-linejoin="round"/><polygon points="125.7,227.9 114.0,240.0 128.0,214.0" fill="#ffda5f" stroke="#ffda5f" stroke-width="0.8" stroke-linejoin="round"/></g><g><polygon points="90.0,210.0 80.6,227.0 58.0,234.0 35.4,227.0 26.0,210.0 35.4,193.0 58.0,186.0 80.6,193.0" fill="#B7C3CE" stroke="#17251B" stroke-width="4" stroke-linejoin="round"/><polygon points="53.8,203.6 90.0,210.0 80.6,227.0" fill="#919da6" stroke="#919da6" stroke-width="0.8" stroke-linejoin="round"/><polygon points="53.8,203.6 80.6,227.0 58.0,234.0" fill="#7f8b93" stroke="#7f8b93" stroke-width="0.8" stroke-linejoin="round"/><polygon points="53.8,203.6 58.0,234.0 35.4,227.0" fill="#a3afb9" stroke="#a3afb9" stroke-width="0.8" stroke-linejoin="round"/><polygon points="53.8,203.6 35.4,227.0 26.0,210.0" fill="#bcc6cf" stroke="#bcc6cf" stroke-width="0.8" stroke-linejoin="round"/><polygon points="53.8,203.6 26.0,210.0 35.4,193.0" fill="#c3ccd1" stroke="#c3ccd1" stroke-width="0.8" stroke-linejoin="round"/><polygon points="53.8,203.6 35.4,193.0 58.0,186.0" fill="#c4ccd1" stroke="#c4ccd1" stroke-width="0.8" stroke-linejoin="round"/><polygon points="53.8,203.6 58.0,186.0 80.6,193.0" fill="#bcc7cf" stroke="#bcc7cf" stroke-width="0.8" stroke-linejoin="round"/><polygon points="53.8,203.6 80.6,193.0 90.0,210.0" fill="#a5b1bb" stroke="#a5b1bb" stroke-width="0.8" stroke-linejoin="round"/></g><g><polygon points="230.0,210.0 220.6,227.0 198.0,234.0 175.4,227.0 166.0,210.0 175.4,193.0 198.0,186.0 220.6,193.0" fill="#B7C3CE" stroke="#17251B" stroke-width="4" stroke-linejoin="round"/><polygon points="193.8,203.6 230.0,210.0 220.6,227.0" fill="#8f9ba4" stroke="#8f9ba4" stroke-width="0.8" stroke-linejoin="round"/><polygon points="193.8,203.6 220.6,227.0 198.0,234.0" fill="#7b8790" stroke="#7b8790" stroke-width="0.8" stroke-linejoin="round"/><polygon points="193.8,203.6 198.0,234.0 175.4,227.0" fill="#a0acb6" stroke="#a0acb6" stroke-width="0.8" stroke-linejoin="round"/><polygon points="193.8,203.6 175.4,227.0 166.0,210.0" fill="#bbc6cf" stroke="#bbc6cf" stroke-width="0.8" stroke-linejoin="round"/><polygon points="193.8,203.6 166.0,210.0 175.4,193.0" fill="#bfc9d0" stroke="#bfc9d0" stroke-width="0.8" stroke-linejoin="round"/><polygon points="193.8,203.6 175.4,193.0 198.0,186.0" fill="#c7cfd2" stroke="#c7cfd2" stroke-width="0.8" stroke-linejoin="round"/><polygon points="193.8,203.6 198.0,186.0 220.6,193.0" fill="#c0cad0" stroke="#c0cad0" stroke-width="0.8" stroke-linejoin="round"/><polygon points="193.8,203.6 220.6,193.0 230.0,210.0" fill="#a4b0ba" stroke="#a4b0ba" stroke-width="0.8" stroke-linejoin="round"/></g><g><polygon points="162.0,184.0 152.0,192.5 128.0,196.0 104.0,192.5 94.0,184.0 104.0,175.5 128.0,172.0 152.0,175.5" fill="#98A5B2" stroke="#17251B" stroke-width="4" stroke-linejoin="round"/><polygon points="125.9,180.8 162.0,184.0 152.0,192.5" fill="#7d8a95" stroke="#7d8a95" stroke-width="0.8" stroke-linejoin="round"/><polygon points="125.9,180.8 152.0,192.5 128.0,196.0" fill="#6a7780" stroke="#6a7780" stroke-width="0.8" stroke-linejoin="round"/><polygon points="125.9,180.8 128.0,196.0 104.0,192.5" fill="#919eab" stroke="#919eab" stroke-width="0.8" stroke-linejoin="round"/><polygon points="125.9,180.8 104.0,192.5 94.0,184.0" fill="#9da9b4" stroke="#9da9b4" stroke-width="0.8" stroke-linejoin="round"/><polygon points="125.9,180.8 94.0,184.0 104.0,175.5" fill="#a7b1b9" stroke="#a7b1b9" stroke-width="0.8" stroke-linejoin="round"/><polygon points="125.9,180.8 104.0,175.5 128.0,172.0" fill="#aab3ba" stroke="#aab3ba" stroke-width="0.8" stroke-linejoin="round"/><polygon points="125.9,180.8 128.0,172.0 152.0,175.5" fill="#99a5b2" stroke="#99a5b2" stroke-width="0.8" stroke-linejoin="round"/><polygon points="125.9,180.8 152.0,175.5 162.0,184.0" fill="#818e9a" stroke="#818e9a" stroke-width="0.8" stroke-linejoin="round"/></g><g><polygon points="83.9,113.0 78.4,126.0 67.4,126.0 61.9,113.0 67.4,99.9 78.4,99.9" fill="#F4BE8E" stroke="#17251B" stroke-width="4" stroke-linejoin="round"/><polygon points="71.0,110.0 83.9,113.0 78.4,126.0" fill="#af8d6d" stroke="#af8d6d" stroke-width="0.8" stroke-linejoin="round"/><polygon points="71.0,110.0 78.4,126.0 67.4,126.0" fill="#b69270" stroke="#b69270" stroke-width="0.8" stroke-linejoin="round"/><polygon points="71.0,110.0 67.4,126.0 61.9,113.0" fill="#f2bc8d" stroke="#f2bc8d" stroke-width="0.8" stroke-linejoin="round"/><polygon points="71.0,110.0 61.9,113.0 67.4,99.9" fill="#f6ca9e" stroke="#f6ca9e" stroke-width="0.8" stroke-linejoin="round"/><polygon points="71.0,110.0 67.4,99.9 78.4,99.9" fill="#f6ca9e" stroke="#f6ca9e" stroke-width="0.8" stroke-linejoin="round"/><polygon points="71.0,110.0 78.4,99.9 83.9,113.0" fill="#f4be8e" stroke="#f4be8e" stroke-width="0.8" stroke-linejoin="round"/></g><g><polygon points="195.3,113.0 189.8,126.0 178.8,126.0 173.2,113.0 178.8,99.9 189.8,99.9" fill="#F4BE8E" stroke="#17251B" stroke-width="4" stroke-linejoin="round"/><polygon points="182.3,110.0 195.3,113.0 189.8,126.0" fill="#b69270" stroke="#b69270" stroke-width="0.8" stroke-linejoin="round"/><polygon points="182.3,110.0 189.8,126.0 178.8,126.0" fill="#bd9774" stroke="#bd9774" stroke-width="0.8" stroke-linejoin="round"/><polygon points="182.3,110.0 178.8,126.0 173.2,113.0" fill="#f4be8e" stroke="#f4be8e" stroke-width="0.8" stroke-linejoin="round"/><polygon points="182.3,110.0 173.2,113.0 178.8,99.9" fill="#f6cba0" stroke="#f6cba0" stroke-width="0.8" stroke-linejoin="round"/><polygon points="182.3,110.0 178.8,99.9 189.8,99.9" fill="#f5c598" stroke="#f5c598" stroke-width="0.8" stroke-linejoin="round"/><polygon points="182.3,110.0 189.8,99.9 195.3,113.0" fill="#f4bf90" stroke="#f4bf90" stroke-width="0.8" stroke-linejoin="round"/></g><g><polygon points="129.7,169.8 93.9,153.9 72.8,124.3 72.8,87.7 93.9,58.1 128.0,46.8 162.1,58.1 183.2,87.7 183.2,124.3 162.1,153.9" fill="#F4BE8E" stroke="#17251B" stroke-width="4" stroke-linejoin="round"/><polygon points="118.5,91.8 129.7,169.8 93.9,153.9" fill="#c39b76" stroke="#c39b76" stroke-width="0.8" stroke-linejoin="round"/><polygon points="118.5,91.8 93.9,153.9 72.8,124.3" fill="#f4be8f" stroke="#f4be8f" stroke-width="0.8" stroke-linejoin="round"/><polygon points="118.5,91.8 72.8,124.3 72.8,87.7" fill="#f6c79a" stroke="#f6c79a" stroke-width="0.8" stroke-linejoin="round"/><polygon points="118.5,91.8 72.8,87.7 93.9,58.1" fill="#f6c99d" stroke="#f6c99d" stroke-width="0.8" stroke-linejoin="round"/><polygon points="118.5,91.8 93.9,58.1 128.0,46.8" fill="#f6c79b" stroke="#f6c79b" stroke-width="0.8" stroke-linejoin="round"/><polygon points="118.5,91.8 128.0,46.8 162.1,58.1" fill="#f5c598" stroke="#f5c598" stroke-width="0.8" stroke-linejoin="round"/><polygon points="118.5,91.8 162.1,58.1 183.2,87.7" fill="#eeba8b" stroke="#eeba8b" stroke-width="0.8" stroke-linejoin="round"/><polygon points="118.5,91.8 183.2,87.7 183.2,124.3" fill="#d4a77e" stroke="#d4a77e" stroke-width="0.8" stroke-linejoin="round"/><polygon points="118.5,91.8 183.2,124.3 162.1,153.9" fill="#b28f6e" stroke="#b28f6e" stroke-width="0.8" stroke-linejoin="round"/><polygon points="118.5,91.8 162.1,153.9 129.7,169.8" fill="#a9896a" stroke="#a9896a" stroke-width="0.8" stroke-linejoin="round"/></g><polygon points="132.6,116.4 139.6,125.7 128.0,126.3" fill="#c29a76"/><polygon points="112.3,121.1 106.2,117.7 103.6,109.5 106.2,101.3 112.3,97.9 118.5,101.3 121.0,109.5 118.5,117.7" fill="#FFFDF6" stroke="#17251B" stroke-width="3" stroke-linejoin="round"/><polygon points="119.7,113.6 114.1,117.1 108.5,113.6 108.5,106.5 114.1,103.0 119.7,106.5" fill="#2F5D8A"/><polygon points="117.3,110.1 115.7,113.1 112.5,113.1 110.9,110.1 112.5,107.0 115.7,107.0" fill="#17251B"/><polygon points="118.4,107.5 117.0,109.4 114.7,108.7 114.7,106.3 117.0,105.5" fill="#FFFFFF"/><polygon points="150.6,121.1 144.5,117.7 141.9,109.5 144.5,101.3 150.6,97.9 156.8,101.3 159.3,109.5 156.8,117.7" fill="#FFFDF6" stroke="#17251B" stroke-width="3" stroke-linejoin="round"/><polygon points="157.9,113.6 152.4,117.1 146.8,113.6 146.8,106.5 152.4,103.0 157.9,106.5" fill="#2F5D8A"/><polygon points="155.6,110.1 154.0,113.1 150.8,113.1 149.1,110.1 150.8,107.0 154.0,107.0" fill="#17251B"/><polygon points="156.7,107.5 155.2,109.4 152.9,108.7 152.9,106.3 155.2,105.5" fill="#FFFFFF"/><polygon points="101.3,94.6 123.2,90.2 122.3,84.6 100.2,87.2" fill="#4A2A16" stroke="#17251B" stroke-width="2.5" stroke-linejoin="round"/><polygon points="139.6,91.2 161.8,93.7 162.7,88.1 140.8,83.7" fill="#4A2A16" stroke="#17251B" stroke-width="2.5" stroke-linejoin="round"/><polyline points="119.9,136.2 131.5,142.0 143.1,135.6" fill="none" stroke="#17251B" stroke-width="4.930000000000001" stroke-linecap="round" stroke-linejoin="round"/><g><polygon points="71.2,104.8 74.6,65.4 110.6,42.2 157.0,45.7 184.8,77.0 185.4,104.8 170.9,81.6 139.6,75.8 110.6,84.0 86.2,93.2" fill="#6B3E22" stroke="#17251B" stroke-width="4" stroke-linejoin="round"/><polygon points="123.6,69.1 71.2,104.8 74.6,65.4" fill="#73482c" stroke="#73482c" stroke-width="0.8" stroke-linejoin="round"/><polygon points="123.6,69.1 74.6,65.4 110.6,42.2" fill="#886347" stroke="#886347" stroke-width="0.8" stroke-linejoin="round"/><polygon points="123.6,69.1 110.6,42.2 157.0,45.7" fill="#80583c" stroke="#80583c" stroke-width="0.8" stroke-linejoin="round"/><polygon points="123.6,69.1 157.0,45.7 184.8,77.0" fill="#613a22" stroke="#613a22" stroke-width="0.8" stroke-linejoin="round"/><polygon points="123.6,69.1 184.8,77.0 185.4,104.8" fill="#533521" stroke="#533521" stroke-width="0.8" stroke-linejoin="round"/><polygon points="123.6,69.1 185.4,104.8 170.9,81.6" fill="#533521" stroke="#533521" stroke-width="0.8" stroke-linejoin="round"/><polygon points="123.6,69.1 170.9,81.6 139.6,75.8" fill="#5c3822" stroke="#5c3822" stroke-width="0.8" stroke-linejoin="round"/><polygon points="123.6,69.1 139.6,75.8 110.6,84.0" fill="#6a3e22" stroke="#6a3e22" stroke-width="0.8" stroke-linejoin="round"/><polygon points="123.6,69.1 110.6,84.0 86.2,93.2" fill="#784e32" stroke="#784e32" stroke-width="0.8" stroke-linejoin="round"/><polygon points="123.6,69.1 86.2,93.2 71.2,104.8" fill="#72472b" stroke="#72472b" stroke-width="0.8" stroke-linejoin="round"/></g></svg>