<?xml version="1.0" encoding="UTF-8"?>
<!-- Portrait tiré de la planche de personnages (design/planche-de-personnages-trois-signes), recadré en buste. -->
<svg viewBox="15 -8 210 284" width="210" height="284" preserveAspectRatio="xMidYMid meet" xmlns="http://www.w3.org/2000/svg"><polygon points="207.0,290.0 190.6,300.1 147.6,306.4 94.4,306.4 51.4,300.1 35.0,290.0 35.0,308.0 51.4,318.1 94.4,324.4 147.6,324.4 190.6,318.1 207.0,308.0" fill="#17251B" stroke="#17251B" stroke-width="11" stroke-linejoin="round"/><polygon points="207.0,290.0 190.6,300.1 147.6,306.4 94.4,306.4 51.4,300.1 35.0,290.0 51.4,279.9 94.4,273.6 147.6,273.6 190.6,279.9" fill="#17251B" stroke="#17251B" stroke-width="11" stroke-linejoin="round"/><g><polygon points="207.0,290.0 190.6,300.1 147.6,306.4 94.4,306.4 51.4,300.1 35.0,290.0 35.0,308.0 51.4,318.1 94.4,324.4 147.6,324.4 190.6,318.1 207.0,308.0" fill="#1F7A3D" stroke="#17251B" stroke-width="4.5" stroke-linejoin="round"/><polygon points="118.0,303.3 207.0,290.0 190.6,300.1" fill="#1d703a" stroke="#1d703a" stroke-width="0.8" stroke-linejoin="round"/><polygon points="118.0,303.3 190.6,300.1 147.6,306.4" fill="#1c6938" stroke="#1c6938" stroke-width="0.8" stroke-linejoin="round"/><polygon points="118.0,303.3 147.6,306.4 94.4,306.4" fill="#3c8b52" stroke="#3c8b52" stroke-width="0.8" stroke-linejoin="round"/><polygon points="118.0,303.3 94.4,306.4 51.4,300.1" fill="#3f8c54" stroke="#3f8c54" stroke-width="0.8" stroke-linejoin="round"/><polygon points="118.0,303.3 51.4,300.1 35.0,290.0" fill="#408d55" stroke="#408d55" stroke-width="0.8" stroke-linejoin="round"/><polygon points="118.0,303.3 35.0,290.0 35.0,308.0" fill="#3a8950" stroke="#3a8950" stroke-width="0.8" stroke-linejoin="round"/><polygon points="118.0,303.3 35.0,308.0 51.4,318.1" fill="#36874d" stroke="#36874d" stroke-width="0.8" stroke-linejoin="round"/><polygon points="118.0,303.3 51.4,318.1 94.4,324.4" fill="#2b8145" stroke="#2b8145" stroke-width="0.8" stroke-linejoin="round"/><polygon points="118.0,303.3 94.4,324.4 147.6,324.4" fill="#1b6135" stroke="#1b6135" stroke-width="0.8" stroke-linejoin="round"/><polygon points="118.0,303.3 147.6,324.4 190.6,318.1" fill="#1b6135" stroke="#1b6135" stroke-width="0.8" stroke-linejoin="round"/><polygon points="118.0,303.3 190.6,318.1 207.0,308.0" fill="#1c6536" stroke="#1c6536" stroke-width="0.8" stroke-linejoin="round"/><polygon points="118.0,303.3 207.0,308.0 207.0,290.0" fill="#1c6938" stroke="#1c6938" stroke-width="0.8" stroke-linejoin="round"/></g><g><polygon points="207.0,290.0 190.6,300.1 147.6,306.4 94.4,306.4 51.4,300.1 35.0,290.0 51.4,279.9 94.4,273.6 147.6,273.6 190.6,279.9" fill="#3DDC5B" stroke="#17251B" stroke-width="4.5" stroke-linejoin="round"/><polygon points="118.1,285.7 207.0,290.0 190.6,300.1" fill="#34b54f" stroke="#34b54f" stroke-width="0.8" stroke-linejoin="round"/><polygon points="118.1,285.7 190.6,300.1 147.6,306.4" fill="#32ab4c" stroke="#32ab4c" stroke-width="0.8" stroke-linejoin="round"/><polygon points="118.1,285.7 147.6,306.4 94.4,306.4" fill="#30a44a" stroke="#30a44a" stroke-width="0.8" stroke-linejoin="round"/><polygon points="118.1,285.7 94.4,306.4 51.4,300.1" fill="#4bde65" stroke="#4bde65" stroke-width="0.8" stroke-linejoin="round"/><polygon points="118.1,285.7 51.4,300.1 35.0,290.0" fill="#4ade64" stroke="#4ade64" stroke-width="0.8" stroke-linejoin="round"/><polygon points="118.1,285.7 35.0,290.0 51.4,279.9" fill="#4dde66" stroke="#4dde66" stroke-width="0.8" stroke-linejoin="round"/><polygon points="118.1,285.7 51.4,279.9 94.4,273.6" fill="#52df69" stroke="#52df69" stroke-width="0.8" stroke-linejoin="round"/><polygon points="118.1,285.7 94.4,273.6 147.6,273.6" fill="#62e174" stroke="#62e174" stroke-width="0.8" stroke-linejoin="round"/><polygon points="118.1,285.7 147.6,273.6 190.6,279.9" fill="#3acf57" stroke="#3acf57" stroke-width="0.8" stroke-linejoin="round"/><polygon points="118.1,285.7 190.6,279.9 207.0,290.0" fill="#34b750" stroke="#34b750" stroke-width="0.8" stroke-linejoin="round"/></g><g><polygon points="60.7,298.6 65.7,285.6 68.7,294.6 72.7,287.6 75.7,298.6" fill="#9ACD32" stroke="#17251B" stroke-width="3" stroke-linejoin="round"/><polygon points="67.5,291.3 60.7,298.6 65.7,285.6" fill="#aad44d" stroke="#aad44d" stroke-width="0.8" stroke-linejoin="round"/><polygon points="67.5,291.3 65.7,285.6 68.7,294.6" fill="#add552" stroke="#add552" stroke-width="0.8" stroke-linejoin="round"/><polygon points="67.5,291.3 68.7,294.6 72.7,287.6" fill="#9dce37" stroke="#9dce37" stroke-width="0.8" stroke-linejoin="round"/><polygon points="67.5,291.3 72.7,287.6 75.7,298.6" fill="#86b32f" stroke="#86b32f" stroke-width="0.8" stroke-linejoin="round"/><polygon points="67.5,291.3 75.7,298.6 60.7,298.6" fill="#7ba52e" stroke="#7ba52e" stroke-width="0.8" stroke-linejoin="round"/></g><g><polygon points="157.0,302.0 162.0,289.0 165.0,298.0 169.0,291.0 172.0,302.0" fill="#9ACD32" stroke="#17251B" stroke-width="3" stroke-linejoin="round"/><polygon points="163.9,294.7 157.0,302.0 162.0,289.0" fill="#a4d143" stroke="#a4d143" stroke-width="0.8" stroke-linejoin="round"/><polygon points="163.9,294.7 162.0,289.0 165.0,298.0" fill="#b2d75b" stroke="#b2d75b" stroke-width="0.8" stroke-linejoin="round"/><polygon points="163.9,294.7 165.0,298.0 169.0,291.0" fill="#9bcd34" stroke="#9bcd34" stroke-width="0.8" stroke-linejoin="round"/><polygon points="163.9,294.7 169.0,291.0 172.0,302.0" fill="#83af2f" stroke="#83af2f" stroke-width="0.8" stroke-linejoin="round"/><polygon points="163.9,294.7 172.0,302.0 157.0,302.0" fill="#77a02d" stroke="#77a02d" stroke-width="0.8" stroke-linejoin="round"/></g><g><polygon points="181.1,291.7 186.1,278.7 189.1,287.7 193.1,280.7 196.1,291.7" fill="#9ACD32" stroke="#17251B" stroke-width="3" stroke-linejoin="round"/><polygon points="187.9,284.4 181.1,291.7 186.1,278.7" fill="#a4d143" stroke="#a4d143" stroke-width="0.8" stroke-linejoin="round"/><polygon points="187.9,284.4 186.1,278.7 189.1,287.7" fill="#abd450" stroke="#abd450" stroke-width="0.8" stroke-linejoin="round"/><polygon points="187.9,284.4 189.1,287.7 193.1,280.7" fill="#a0cf3b" stroke="#a0cf3b" stroke-width="0.8" stroke-linejoin="round"/><polygon points="187.9,284.4 193.1,280.7 196.1,291.7" fill="#84b12f" stroke="#84b12f" stroke-width="0.8" stroke-linejoin="round"/><polygon points="187.9,284.4 196.1,291.7 181.1,291.7" fill="#759d2d" stroke="#759d2d" stroke-width="0.8" stroke-linejoin="round"/></g><polygon points="181.2,291.0 169.1,297.6 138.6,301.2 103.8,299.9 81.1,294.5 81.1,287.5 103.8,282.1 138.6,280.8 169.1,284.4" fill="#17251B" opacity=".3"/><polygon points="59.7,133.4 32.7,174.1 55.3,189.9 84.3,150.6" fill="#17251B" stroke="#17251B" stroke-width="11" stroke-linejoin="round"/><polygon points="59.0,182.0 51.5,195.0 36.5,195.0 29.0,182.0 36.5,169.0 51.5,169.0" fill="#17251B" stroke="#17251B" stroke-width="11" stroke-linejoin="round"/><polygon points="30.5,182.8 34.0,216.7 58.0,215.3 57.5,181.2" fill="#17251B" stroke="#17251B" stroke-width="11" stroke-linejoin="round"/><polygon points="69.9,223.8 55.1,240.4 33.5,238.7 21.3,219.9 27.7,198.1 47.9,189.8 66.7,201.2" fill="#17251B" stroke="#17251B" stroke-width="11" stroke-linejoin="round"/><polygon points="80.4,214.3 73.7,248.6 102.3,255.4 111.6,221.7" fill="#17251B" stroke="#17251B" stroke-width="11" stroke-linejoin="round"/><polygon points="103.4,252.0 95.7,265.3 80.3,265.3 72.6,252.0 80.3,238.7 95.7,238.7" fill="#17251B" stroke="#17251B" stroke-width="11" stroke-linejoin="round"/><polygon points="75.1,245.6 68.3,262.1 91.7,273.9 100.9,258.4" fill="#17251B" stroke="#17251B" stroke-width="11" stroke-linejoin="round"/><polygon points="60.2,260.0 99.8,260.0 101.8,286.0 47.2,286.0" fill="#17251B" stroke="#17251B" stroke-width="11" stroke-linejoin="round"/><polygon points="130.4,221.7 139.7,255.4 168.3,248.6 161.6,214.3" fill="#17251B" stroke="#17251B" stroke-width="11" stroke-linejoin="round"/><polygon points="169.4,252.0 161.7,265.3 146.3,265.3 138.6,252.0 146.3,238.7 161.7,238.7" fill="#17251B" stroke="#17251B" stroke-width="11" stroke-linejoin="round"/><polygon points="141.1,258.4 150.3,273.9 173.7,262.1 166.9,245.6" fill="#17251B" stroke="#17251B" stroke-width="11" stroke-linejoin="round"/><polygon points="142.2,260.0 181.8,260.0 194.8,286.0 140.2,286.0" fill="#17251B" stroke="#17251B" stroke-width="11" stroke-linejoin="round"/><polygon points="102.0,110.0 98.0,134.0 142.0,134.0 138.0,110.0" fill="#17251B" stroke="#17251B" stroke-width="11" stroke-linejoin="round"/><polygon points="64.0,128.0 176.0,128.0 194.0,172.0 170.0,226.0 72.0,226.0 48.0,172.0" fill="#17251B" stroke="#17251B" stroke-width="11" stroke-linejoin="round"/><polygon points="96.0,130.0 146.0,130.0 134.0,168.0 108.0,168.0" fill="#17251B" stroke="#17251B" stroke-width="11" stroke-linejoin="round"/><polygon points="62.0,218.5 178.0,218.5 178.0,201.5 62.0,201.5" fill="#17251B" stroke="#17251B" stroke-width="11" stroke-linejoin="round"/><polygon points="134.0,210.0 127.5,219.5 114.5,219.5 108.0,210.0 114.5,200.5 127.5,200.5" fill="#17251B" stroke="#17251B" stroke-width="11" stroke-linejoin="round"/><polygon points="95.0,138.0 85.6,152.9 64.4,156.5 47.5,146.2 47.5,129.8 64.4,119.5 85.6,123.1" fill="#17251B" stroke="#17251B" stroke-width="11" stroke-linejoin="round"/><polygon points="197.0,138.0 187.6,152.9 166.4,156.5 149.5,146.2 149.5,129.8 166.4,119.5 187.6,123.1" fill="#17251B" stroke="#17251B" stroke-width="11" stroke-linejoin="round"/><polygon points="122.7,126.1 98.1,114.6 86.5,94.0 90.6,70.7 108.4,55.4 131.6,55.4 149.4,70.7 153.5,94.0 141.9,114.6" fill="#17251B" stroke="#17251B" stroke-width="11" stroke-linejoin="round"/><polygon points="99.6,92.1 96.2,100.0 89.4,100.0 86.0,92.1 89.4,84.1 96.2,84.1" fill="#17251B" stroke="#17251B" stroke-width="11" stroke-linejoin="round"/><polygon points="90.0,96.0 150.0,94.0 158.0,112.0 142.0,132.0 122.0,140.0 100.0,132.0 86.0,112.0" fill="#17251B" stroke="#17251B" stroke-width="11" stroke-linejoin="round"/><polygon points="158.0,151.0 189.0,190.3 211.0,173.7 182.0,133.0" fill="#17251B" stroke="#17251B" stroke-width="11" stroke-linejoin="round"/><polygon points="215.0,182.0 207.5,195.0 192.5,195.0 185.0,182.0 192.5,169.0 207.5,169.0" fill="#17251B" stroke="#17251B" stroke-width="11" stroke-linejoin="round"/><polygon points="197.8,168.7 162.0,176.2 166.0,199.8 202.2,195.3" fill="#17251B" stroke="#17251B" stroke-width="11" stroke-linejoin="round"/><polygon points="187.9,195.8 173.1,212.4 151.5,210.7 139.3,191.9 145.7,170.1 165.9,161.8 184.7,173.2" fill="#17251B" stroke="#17251B" stroke-width="11" stroke-linejoin="round"/><g><polygon points="59.7,133.4 32.7,174.1 55.3,189.9 84.3,150.6" fill="#C98657" stroke="#17251B" stroke-width="4.5" stroke-linejoin="round"/><polygon points="53.5,155.1 59.7,133.4 32.7,174.1" fill="#d59e74" stroke="#d59e74" stroke-width="0.8" stroke-linejoin="round"/><polygon points="53.5,155.1 32.7,174.1 55.3,189.9" fill="#b87c52" stroke="#b87c52" stroke-width="0.8" stroke-linejoin="round"/><polygon points="53.5,155.1 55.3,189.9 84.3,150.6" fill="#8f6546" stroke="#8f6546" stroke-width="0.8" stroke-linejoin="round"/><polygon points="53.5,155.1 84.3,150.6 59.7,133.4" fill="#cd8e60" stroke="#cd8e60" stroke-width="0.8" stroke-linejoin="round"/></g><g><polygon points="59.0,182.0 51.5,195.0 36.5,195.0 29.0,182.0 36.5,169.0 51.5,169.0" fill="#C98657" stroke="#17251B" stroke-width="4.5" stroke-linejoin="round"/><polygon points="41.7,178.5 59.0,182.0 51.5,195.0" fill="#916646" stroke="#916646" stroke-width="0.8" stroke-linejoin="round"/><polygon points="41.7,178.5 51.5,195.0 36.5,195.0" fill="#946847" stroke="#946847" stroke-width="0.8" stroke-linejoin="round"/><polygon points="41.7,178.5 36.5,195.0 29.0,182.0" fill="#cb8b5d" stroke="#cb8b5d" stroke-width="0.8" stroke-linejoin="round"/><polygon points="41.7,178.5 29.0,182.0 36.5,169.0" fill="#d49e73" stroke="#d49e73" stroke-width="0.8" stroke-linejoin="round"/><polygon points="41.7,178.5 36.5,169.0 51.5,169.0" fill="#d39b6f" stroke="#d39b6f" stroke-width="0.8" stroke-linejoin="round"/><polygon points="41.7,178.5 51.5,169.0 59.0,182.0" fill="#c58456" stroke="#c58456" stroke-width="0.8" stroke-linejoin="round"/></g><g><polygon points="30.5,182.8 34.0,216.7 58.0,215.3 57.5,181.2" fill="#1F7A3D" stroke="#17251B" stroke-width="4.5" stroke-linejoin="round"/><polygon points="42.6,195.4 30.5,182.8 34.0,216.7" fill="#3c8a52" stroke="#3c8a52" stroke-width="0.8" stroke-linejoin="round"/><polygon points="42.6,195.4 34.0,216.7 58.0,215.3" fill="#1b6336" stroke="#1b6336" stroke-width="0.8" stroke-linejoin="round"/><polygon points="42.6,195.4 58.0,215.3 57.5,181.2" fill="#1d6d39" stroke="#1d6d39" stroke-width="0.8" stroke-linejoin="round"/><polygon points="42.6,195.4 57.5,181.2 30.5,182.8" fill="#4a925c" stroke="#4a925c" stroke-width="0.8" stroke-linejoin="round"/></g><g><polygon points="69.9,223.8 55.1,240.4 33.5,238.7 21.3,219.9 27.7,198.1 47.9,189.8 66.7,201.2" fill="#1F7A3D" stroke="#17251B" stroke-width="4.5" stroke-linejoin="round"/><polygon points="41.7,209.5 69.9,223.8 55.1,240.4" fill="#1b6035" stroke="#1b6035" stroke-width="0.8" stroke-linejoin="round"/><polygon points="41.7,209.5 55.1,240.4 33.5,238.7" fill="#1b6436" stroke="#1b6436" stroke-width="0.8" stroke-linejoin="round"/><polygon points="41.7,209.5 33.5,238.7 21.3,219.9" fill="#1f773c" stroke="#1f773c" stroke-width="0.8" stroke-linejoin="round"/><polygon points="41.7,209.5 21.3,219.9 27.7,198.1" fill="#469059" stroke="#469059" stroke-width="0.8" stroke-linejoin="round"/><polygon points="41.7,209.5 27.7,198.1 47.9,189.8" fill="#47915a" stroke="#47915a" stroke-width="0.8" stroke-linejoin="round"/><polygon points="41.7,209.5 47.9,189.8 66.7,201.2" fill="#3a8951" stroke="#3a8951" stroke-width="0.8" stroke-linejoin="round"/><polygon points="41.7,209.5 66.7,201.2 69.9,223.8" fill="#1d6b38" stroke="#1d6b38" stroke-width="0.8" stroke-linejoin="round"/></g><g><polygon points="80.4,214.3 73.7,248.6 102.3,255.4 111.6,221.7" fill="#4B3A2C" stroke="#17251B" stroke-width="4.5" stroke-linejoin="round"/><polygon points="88.7,230.0 80.4,214.3 73.7,248.6" fill="#6a5b4b" stroke="#6a5b4b" stroke-width="0.8" stroke-linejoin="round"/><polygon points="88.7,230.0 73.7,248.6 102.3,255.4" fill="#3f342a" stroke="#3f342a" stroke-width="0.8" stroke-linejoin="round"/><polygon points="88.7,230.0 102.3,255.4 111.6,221.7" fill="#3f342a" stroke="#3f342a" stroke-width="0.8" stroke-linejoin="round"/><polygon points="88.7,230.0 111.6,221.7 80.4,214.3" fill="#635344" stroke="#635344" stroke-width="0.8" stroke-linejoin="round"/></g><g><polygon points="103.4,252.0 95.7,265.3 80.3,265.3 72.6,252.0 80.3,238.7 95.7,238.7" fill="#4B3A2C" stroke="#17251B" stroke-width="4.5" stroke-linejoin="round"/><polygon points="85.7,248.5 103.4,252.0 95.7,265.3" fill="#3c3229" stroke="#3c3229" stroke-width="0.8" stroke-linejoin="round"/><polygon points="85.7,248.5 95.7,265.3 80.3,265.3" fill="#3d3329" stroke="#3d3329" stroke-width="0.8" stroke-linejoin="round"/><polygon points="85.7,248.5 80.3,265.3 72.6,252.0" fill="#4a392c" stroke="#4a392c" stroke-width="0.8" stroke-linejoin="round"/><polygon points="85.7,248.5 72.6,252.0 80.3,238.7" fill="#675848" stroke="#675848" stroke-width="0.8" stroke-linejoin="round"/><polygon points="85.7,248.5 80.3,238.7 95.7,238.7" fill="#645545" stroke="#645545" stroke-width="0.8" stroke-linejoin="round"/><polygon points="85.7,248.5 95.7,238.7 103.4,252.0" fill="#48382b" stroke="#48382b" stroke-width="0.8" stroke-linejoin="round"/></g><g><polygon points="75.1,245.6 68.3,262.1 91.7,273.9 100.9,258.4" fill="#4B3A2C" stroke="#17251B" stroke-width="4.5" stroke-linejoin="round"/><polygon points="81.5,256.2 75.1,245.6 68.3,262.1" fill="#6b5c4c" stroke="#6b5c4c" stroke-width="0.8" stroke-linejoin="round"/><polygon points="81.5,256.2 68.3,262.1 91.7,273.9" fill="#43362a" stroke="#43362a" stroke-width="0.8" stroke-linejoin="round"/><polygon points="81.5,256.2 91.7,273.9 100.9,258.4" fill="#3b3229" stroke="#3b3229" stroke-width="0.8" stroke-linejoin="round"/><polygon points="81.5,256.2 100.9,258.4 75.1,245.6" fill="#625243" stroke="#625243" stroke-width="0.8" stroke-linejoin="round"/></g><g><polygon points="60.2,260.0 99.8,260.0 101.8,286.0 47.2,286.0" fill="#2E241C" stroke="#17251B" stroke-width="4.5" stroke-linejoin="round"/><polygon points="75.0,269.5 60.2,260.0 99.8,260.0" fill="#51483d" stroke="#51483d" stroke-width="0.8" stroke-linejoin="round"/><polygon points="75.0,269.5 99.8,260.0 101.8,286.0" fill="#29231d" stroke="#29231d" stroke-width="0.8" stroke-linejoin="round"/><polygon points="75.0,269.5 101.8,286.0 47.2,286.0" fill="#27221d" stroke="#27221d" stroke-width="0.8" stroke-linejoin="round"/><polygon points="75.0,269.5 47.2,286.0 60.2,260.0" fill="#463c32" stroke="#463c32" stroke-width="0.8" stroke-linejoin="round"/></g><g><polygon points="130.4,221.7 139.7,255.4 168.3,248.6 161.6,214.3" fill="#4B3A2C" stroke="#17251B" stroke-width="4.5" stroke-linejoin="round"/><polygon points="146.7,230.0 130.4,221.7 139.7,255.4" fill="#574738" stroke="#574738" stroke-width="0.8" stroke-linejoin="round"/><polygon points="146.7,230.0 139.7,255.4 168.3,248.6" fill="#393128" stroke="#393128" stroke-width="0.8" stroke-linejoin="round"/><polygon points="146.7,230.0 168.3,248.6 161.6,214.3" fill="#45372b" stroke="#45372b" stroke-width="0.8" stroke-linejoin="round"/><polygon points="146.7,230.0 161.6,214.3 130.4,221.7" fill="#706151" stroke="#706151" stroke-width="0.8" stroke-linejoin="round"/></g><g><polygon points="169.4,252.0 161.7,265.3 146.3,265.3 138.6,252.0 146.3,238.7 161.7,238.7" fill="#4B3A2C" stroke="#17251B" stroke-width="4.5" stroke-linejoin="round"/><polygon points="151.7,248.5 169.4,252.0 161.7,265.3" fill="#3a3129" stroke="#3a3129" stroke-width="0.8" stroke-linejoin="round"/><polygon points="151.7,248.5 161.7,265.3 146.3,265.3" fill="#3b3229" stroke="#3b3229" stroke-width="0.8" stroke-linejoin="round"/><polygon points="151.7,248.5 146.3,265.3 138.6,252.0" fill="#4d3c2e" stroke="#4d3c2e" stroke-width="0.8" stroke-linejoin="round"/><polygon points="151.7,248.5 138.6,252.0 146.3,238.7" fill="#675848" stroke="#675848" stroke-width="0.8" stroke-linejoin="round"/><polygon points="151.7,248.5 146.3,238.7 161.7,238.7" fill="#6c5d4c" stroke="#6c5d4c" stroke-width="0.8" stroke-linejoin="round"/><polygon points="151.7,248.5 161.7,238.7 169.4,252.0" fill="#4b3a2c" stroke="#4b3a2c" stroke-width="0.8" stroke-linejoin="round"/></g><g><polygon points="141.1,258.4 150.3,273.9 173.7,262.1 166.9,245.6" fill="#4B3A2C" stroke="#17251B" stroke-width="4.5" stroke-linejoin="round"/><polygon points="155.5,256.2 141.1,258.4 150.3,273.9" fill="#4c3c2d" stroke="#4c3c2d" stroke-width="0.8" stroke-linejoin="round"/><polygon points="155.5,256.2 150.3,273.9 173.7,262.1" fill="#373028" stroke="#373028" stroke-width="0.8" stroke-linejoin="round"/><polygon points="155.5,256.2 173.7,262.1 166.9,245.6" fill="#49392c" stroke="#49392c" stroke-width="0.8" stroke-linejoin="round"/><polygon points="155.5,256.2 166.9,245.6 141.1,258.4" fill="#6f6050" stroke="#6f6050" stroke-width="0.8" stroke-linejoin="round"/></g><g><polygon points="142.2,260.0 181.8,260.0 194.8,286.0 140.2,286.0" fill="#2E241C" stroke="#17251B" stroke-width="4.5" stroke-linejoin="round"/><polygon points="162.5,269.5 142.2,260.0 181.8,260.0" fill="#5c5347" stroke="#5c5347" stroke-width="0.8" stroke-linejoin="round"/><polygon points="162.5,269.5 181.8,260.0 194.8,286.0" fill="#29231d" stroke="#29231d" stroke-width="0.8" stroke-linejoin="round"/><polygon points="162.5,269.5 194.8,286.0 140.2,286.0" fill="#25221d" stroke="#25221d" stroke-width="0.8" stroke-linejoin="round"/><polygon points="162.5,269.5 140.2,286.0 142.2,260.0" fill="#473d33" stroke="#473d33" stroke-width="0.8" stroke-linejoin="round"/></g><g><polygon points="102.0,110.0 98.0,134.0 142.0,134.0 138.0,110.0" fill="#C98657" stroke="#17251B" stroke-width="4.5" stroke-linejoin="round"/><polygon points="117.9,118.8 102.0,110.0 98.0,134.0" fill="#cf9367" stroke="#cf9367" stroke-width="0.8" stroke-linejoin="round"/><polygon points="117.9,118.8 98.0,134.0 142.0,134.0" fill="#9a6b49" stroke="#9a6b49" stroke-width="0.8" stroke-linejoin="round"/><polygon points="117.9,118.8 142.0,134.0 138.0,110.0" fill="#a9744e" stroke="#a9744e" stroke-width="0.8" stroke-linejoin="round"/><polygon points="117.9,118.8 138.0,110.0 102.0,110.0" fill="#d1966a" stroke="#d1966a" stroke-width="0.8" stroke-linejoin="round"/></g><g><polygon points="64.0,128.0 176.0,128.0 194.0,172.0 170.0,226.0 72.0,226.0 48.0,172.0" fill="#8A5A34" stroke="#17251B" stroke-width="4.5" stroke-linejoin="round"/><polygon points="112.0,162.3 64.0,128.0 176.0,128.0" fill="#9b714d" stroke="#9b714d" stroke-width="0.8" stroke-linejoin="round"/><polygon points="112.0,162.3 176.0,128.0 194.0,172.0" fill="#7e5432" stroke="#7e5432" stroke-width="0.8" stroke-linejoin="round"/><polygon points="112.0,162.3 194.0,172.0 170.0,226.0" fill="#69492f" stroke="#69492f" stroke-width="0.8" stroke-linejoin="round"/><polygon points="112.0,162.3 170.0,226.0 72.0,226.0" fill="#6b4a2f" stroke="#6b4a2f" stroke-width="0.8" stroke-linejoin="round"/><polygon points="112.0,162.3 72.0,226.0 48.0,172.0" fill="#926540" stroke="#926540" stroke-width="0.8" stroke-linejoin="round"/><polygon points="112.0,162.3 48.0,172.0 64.0,128.0" fill="#9e7652" stroke="#9e7652" stroke-width="0.8" stroke-linejoin="round"/></g><g><polygon points="96.0,130.0 146.0,130.0 134.0,168.0 108.0,168.0" fill="#C98657" stroke="#17251B" stroke-width="4.5" stroke-linejoin="round"/><polygon points="117.7,144.0 96.0,130.0 146.0,130.0" fill="#d1986c" stroke="#d1986c" stroke-width="0.8" stroke-linejoin="round"/><polygon points="117.7,144.0 146.0,130.0 134.0,168.0" fill="#a6724d" stroke="#a6724d" stroke-width="0.8" stroke-linejoin="round"/><polygon points="117.7,144.0 134.0,168.0 108.0,168.0" fill="#966948" stroke="#966948" stroke-width="0.8" stroke-linejoin="round"/><polygon points="117.7,144.0 108.0,168.0 96.0,130.0" fill="#cd8f62" stroke="#cd8f62" stroke-width="0.8" stroke-linejoin="round"/></g><g><polygon points="62.0,218.5 178.0,218.5 178.0,201.5 62.0,201.5" fill="#3B2A1E" stroke="#17251B" stroke-width="4.5" stroke-linejoin="round"/><polygon points="118.5,207.7 62.0,218.5 178.0,218.5" fill="#2e261f" stroke="#2e261f" stroke-width="0.8" stroke-linejoin="round"/><polygon points="118.5,207.7 178.0,218.5 178.0,201.5" fill="#32271e" stroke="#32271e" stroke-width="0.8" stroke-linejoin="round"/><polygon points="118.5,207.7 178.0,201.5 62.0,201.5" fill="#5b4c3e" stroke="#5b4c3e" stroke-width="0.8" stroke-linejoin="round"/><polygon points="118.5,207.7 62.0,201.5 62.0,218.5" fill="#4f3f31" stroke="#4f3f31" stroke-width="0.8" stroke-linejoin="round"/></g><g><polygon points="134.0,210.0 127.5,219.5 114.5,219.5 108.0,210.0 114.5,200.5 127.5,200.5" fill="#9ACD32" stroke="#17251B" stroke-width="4.5" stroke-linejoin="round"/><polygon points="119.3,207.5 134.0,210.0 127.5,219.5" fill="#70972c" stroke="#70972c" stroke-width="0.8" stroke-linejoin="round"/><polygon points="119.3,207.5 127.5,219.5 114.5,219.5" fill="#77a02d" stroke="#77a02d" stroke-width="0.8" stroke-linejoin="round"/><polygon points="119.3,207.5 114.5,219.5 108.0,210.0" fill="#9cce35" stroke="#9cce35" stroke-width="0.8" stroke-linejoin="round"/><polygon points="119.3,207.5 108.0,210.0 114.5,200.5" fill="#abd44f" stroke="#abd44f" stroke-width="0.8" stroke-linejoin="round"/><polygon points="119.3,207.5 114.5,200.5 127.5,200.5" fill="#a8d349" stroke="#a8d349" stroke-width="0.8" stroke-linejoin="round"/><polygon points="119.3,207.5 127.5,200.5 134.0,210.0" fill="#98ca32" stroke="#98ca32" stroke-width="0.8" stroke-linejoin="round"/></g><g><polygon points="95.0,138.0 85.6,152.9 64.4,156.5 47.5,146.2 47.5,129.8 64.4,119.5 85.6,123.1" fill="#1F7A3D" stroke="#17251B" stroke-width="4.5" stroke-linejoin="round"/><polygon points="66.7,133.1 95.0,138.0 85.6,152.9" fill="#1b6035" stroke="#1b6035" stroke-width="0.8" stroke-linejoin="round"/><polygon points="66.7,133.1 85.6,152.9 64.4,156.5" fill="#1a5c34" stroke="#1a5c34" stroke-width="0.8" stroke-linejoin="round"/><polygon points="66.7,133.1 64.4,156.5 47.5,146.2" fill="#1e723b" stroke="#1e723b" stroke-width="0.8" stroke-linejoin="round"/><polygon points="66.7,133.1 47.5,146.2 47.5,129.8" fill="#32854b" stroke="#32854b" stroke-width="0.8" stroke-linejoin="round"/><polygon points="66.7,133.1 47.5,129.8 64.4,119.5" fill="#49925b" stroke="#49925b" stroke-width="0.8" stroke-linejoin="round"/><polygon points="66.7,133.1 64.4,119.5 85.6,123.1" fill="#36874e" stroke="#36874e" stroke-width="0.8" stroke-linejoin="round"/><polygon points="66.7,133.1 85.6,123.1 95.0,138.0" fill="#1e743b" stroke="#1e743b" stroke-width="0.8" stroke-linejoin="round"/></g><g><polygon points="197.0,138.0 187.6,152.9 166.4,156.5 149.5,146.2 149.5,129.8 166.4,119.5 187.6,123.1" fill="#1F7A3D" stroke="#17251B" stroke-width="4.5" stroke-linejoin="round"/><polygon points="168.7,133.1 197.0,138.0 187.6,152.9" fill="#1b6236" stroke="#1b6236" stroke-width="0.8" stroke-linejoin="round"/><polygon points="168.7,133.1 187.6,152.9 166.4,156.5" fill="#1b5f35" stroke="#1b5f35" stroke-width="0.8" stroke-linejoin="round"/><polygon points="168.7,133.1 166.4,156.5 149.5,146.2" fill="#1f773c" stroke="#1f773c" stroke-width="0.8" stroke-linejoin="round"/><polygon points="168.7,133.1 149.5,146.2 149.5,129.8" fill="#38884f" stroke="#38884f" stroke-width="0.8" stroke-linejoin="round"/><polygon points="168.7,133.1 149.5,129.8 166.4,119.5" fill="#519661" stroke="#519661" stroke-width="0.8" stroke-linejoin="round"/><polygon points="168.7,133.1 166.4,119.5 187.6,123.1" fill="#3f8c54" stroke="#3f8c54" stroke-width="0.8" stroke-linejoin="round"/><polygon points="168.7,133.1 187.6,123.1 197.0,138.0" fill="#1d703a" stroke="#1d703a" stroke-width="0.8" stroke-linejoin="round"/></g><g><polygon points="122.7,126.1 98.1,114.6 86.5,94.0 90.6,70.7 108.4,55.4 131.6,55.4 149.4,70.7 153.5,94.0 141.9,114.6" fill="#C98657" stroke="#17251B" stroke-width="4.5" stroke-linejoin="round"/><polygon points="114.4,79.5 122.7,126.1 98.1,114.6" fill="#a5724c" stroke="#a5724c" stroke-width="0.8" stroke-linejoin="round"/><polygon points="114.4,79.5 98.1,114.6 86.5,94.0" fill="#cb8a5b" stroke="#cb8a5b" stroke-width="0.8" stroke-linejoin="round"/><polygon points="114.4,79.5 86.5,94.0 90.6,70.7" fill="#d2996e" stroke="#d2996e" stroke-width="0.8" stroke-linejoin="round"/><polygon points="114.4,79.5 90.6,70.7 108.4,55.4" fill="#d49d73" stroke="#d49d73" stroke-width="0.8" stroke-linejoin="round"/><polygon points="114.4,79.5 108.4,55.4 131.6,55.4" fill="#d49d73" stroke="#d49d73" stroke-width="0.8" stroke-linejoin="round"/><polygon points="114.4,79.5 131.6,55.4 149.4,70.7" fill="#cb8b5d" stroke="#cb8b5d" stroke-width="0.8" stroke-linejoin="round"/><polygon points="114.4,79.5 149.4,70.7 153.5,94.0" fill="#ba7d52" stroke="#ba7d52" stroke-width="0.8" stroke-linejoin="round"/><polygon points="114.4,79.5 153.5,94.0 141.9,114.6" fill="#8d6445" stroke="#8d6445" stroke-width="0.8" stroke-linejoin="round"/><polygon points="114.4,79.5 141.9,114.6 122.7,126.1" fill="#8a6244" stroke="#8a6244" stroke-width="0.8" stroke-linejoin="round"/></g><g><polygon points="99.6,92.1 96.2,100.0 89.4,100.0 86.0,92.1 89.4,84.1 96.2,84.1" fill="#C98657" stroke="#17251B" stroke-width="4.5" stroke-linejoin="round"/><polygon points="91.6,90.3 99.6,92.1 96.2,100.0" fill="#8e6446" stroke="#8e6446" stroke-width="0.8" stroke-linejoin="round"/><polygon points="91.6,90.3 96.2,100.0 89.4,100.0" fill="#9d6d4a" stroke="#9d6d4a" stroke-width="0.8" stroke-linejoin="round"/><polygon points="91.6,90.3 89.4,100.0 86.0,92.1" fill="#c98758" stroke="#c98758" stroke-width="0.8" stroke-linejoin="round"/><polygon points="91.6,90.3 86.0,92.1 89.4,84.1" fill="#d49e73" stroke="#d49e73" stroke-width="0.8" stroke-linejoin="round"/><polygon points="91.6,90.3 89.4,84.1 96.2,84.1" fill="#d2996e" stroke="#d2996e" stroke-width="0.8" stroke-linejoin="round"/><polygon points="91.6,90.3 96.2,84.1 99.6,92.1" fill="#c88557" stroke="#c88557" stroke-width="0.8" stroke-linejoin="round"/></g><g><polygon points="90.0,96.0 150.0,94.0 158.0,112.0 142.0,132.0 122.0,140.0 100.0,132.0 86.0,112.0" fill="#6B3E22" stroke="#17251B" stroke-width="4.5" stroke-linejoin="round"/><polygon points="117.1,110.7 90.0,96.0 150.0,94.0" fill="#855e43" stroke="#855e43" stroke-width="0.8" stroke-linejoin="round"/><polygon points="117.1,110.7 150.0,94.0 158.0,112.0" fill="#683d22" stroke="#683d22" stroke-width="0.8" stroke-linejoin="round"/><polygon points="117.1,110.7 158.0,112.0 142.0,132.0" fill="#553622" stroke="#553622" stroke-width="0.8" stroke-linejoin="round"/><polygon points="117.1,110.7 142.0,132.0 122.0,140.0" fill="#503421" stroke="#503421" stroke-width="0.8" stroke-linejoin="round"/><polygon points="117.1,110.7 122.0,140.0 100.0,132.0" fill="#5e3922" stroke="#5e3922" stroke-width="0.8" stroke-linejoin="round"/><polygon points="117.1,110.7 100.0,132.0 86.0,112.0" fill="#784e32" stroke="#784e32" stroke-width="0.8" stroke-linejoin="round"/><polygon points="117.1,110.7 86.0,112.0 90.0,96.0" fill="#886347" stroke="#886347" stroke-width="0.8" stroke-linejoin="round"/></g><polygon points="125.4,93.4 130.2,98.9 123.7,99.2" fill="#a06f4b"/><polygon points="113.2,93.8 109.2,92.1 108.2,88.4 111.0,85.4 115.4,85.4 118.2,88.4 117.2,92.1" fill="#FFFDF6" stroke="#17251B" stroke-width="3" stroke-linejoin="round"/><polygon points="117.7,91.3 114.9,93.1 112.1,91.3 112.1,87.8 114.9,86.1 117.7,87.8" fill="#3A2E28"/><polygon points="116.5,89.6 115.7,91.1 114.1,91.1 113.3,89.6 114.1,88.1 115.7,88.1" fill="#17251B"/><polygon points="117.0,88.1 116.3,89.1 115.2,88.7 115.2,87.5 116.3,87.1" fill="#fff"/><polygon points="135.0,93.8 131.0,92.1 130.0,88.4 132.7,85.4 137.2,85.4 139.9,88.4 138.9,92.1" fill="#FFFDF6" stroke="#17251B" stroke-width="3" stroke-linejoin="round"/><polygon points="139.4,91.3 136.7,93.1 133.9,91.3 133.9,87.8 136.7,86.1 139.4,87.8" fill="#3A2E28"/><polygon points="138.3,89.6 137.5,91.1 135.9,91.1 135.1,89.6 135.9,88.1 137.5,88.1" fill="#17251B"/><polygon points="138.8,88.1 138.1,89.1 137.0,88.7 137.0,87.5 138.1,87.1" fill="#fff"/><polygon points="106.8,80.8 119.6,78.1 119.1,74.8 106.0,76.1" fill="#6B3E22" stroke="#17251B" stroke-width="2.5" stroke-linejoin="round"/><polygon points="128.5,78.8 141.5,80.2 142.0,76.8 129.2,74.1" fill="#6B3E22" stroke="#17251B" stroke-width="2.5" stroke-linejoin="round"/><polygon points="113.2,103.0 135.0,101.3 131.6,110.4 124.1,112.8 117.3,109.8" fill="#5B1E22" stroke="#17251B" stroke-width="3.5" stroke-linejoin="round"/><polygon points="114.6,103.3 133.9,101.6 132.9,105.3 115.6,106.7" fill="#FFFDF6"/><polygon points="114.0,64.0 108.5,68.8 99.5,66.9 99.5,61.1 108.5,59.2" fill="#fff" opacity=".45"/><g><polygon points="158.0,151.0 189.0,190.3 211.0,173.7 182.0,133.0" fill="#C98657" stroke="#17251B" stroke-width="4.5" stroke-linejoin="round"/><polygon points="180.3,155.0 158.0,151.0 189.0,190.3" fill="#c38255" stroke="#c38255" stroke-width="0.8" stroke-linejoin="round"/><polygon points="180.3,155.0 189.0,190.3 211.0,173.7" fill="#876043" stroke="#876043" stroke-width="0.8" stroke-linejoin="round"/><polygon points="180.3,155.0 211.0,173.7 182.0,133.0" fill="#cb895b" stroke="#cb895b" stroke-width="0.8" stroke-linejoin="round"/><polygon points="180.3,155.0 182.0,133.0 158.0,151.0" fill="#d49d72" stroke="#d49d72" stroke-width="0.8" stroke-linejoin="round"/></g><g><polygon points="215.0,182.0 207.5,195.0 192.5,195.0 185.0,182.0 192.5,169.0 207.5,169.0" fill="#C98657" stroke="#17251B" stroke-width="4.5" stroke-linejoin="round"/><polygon points="197.7,178.5 215.0,182.0 207.5,195.0" fill="#966948" stroke="#966948" stroke-width="0.8" stroke-linejoin="round"/><polygon points="197.7,178.5 207.5,195.0 192.5,195.0" fill="#9b6b49" stroke="#9b6b49" stroke-width="0.8" stroke-linejoin="round"/><polygon points="197.7,178.5 192.5,195.0 185.0,182.0" fill="#ca895b" stroke="#ca895b" stroke-width="0.8" stroke-linejoin="round"/><polygon points="197.7,178.5 185.0,182.0 192.5,169.0" fill="#d1966a" stroke="#d1966a" stroke-width="0.8" stroke-linejoin="round"/><polygon points="197.7,178.5 192.5,169.0 207.5,169.0" fill="#d39b70" stroke="#d39b70" stroke-width="0.8" stroke-linejoin="round"/><polygon points="197.7,178.5 207.5,169.0 215.0,182.0" fill="#ca885a" stroke="#ca885a" stroke-width="0.8" stroke-linejoin="round"/></g><g><polygon points="197.8,168.7 162.0,176.2 166.0,199.8 202.2,195.3" fill="#1F7A3D" stroke="#17251B" stroke-width="4.5" stroke-linejoin="round"/><polygon points="179.3,180.9 197.8,168.7 162.0,176.2" fill="#4e945f" stroke="#4e945f" stroke-width="0.8" stroke-linejoin="round"/><polygon points="179.3,180.9 162.0,176.2 166.0,199.8" fill="#34864c" stroke="#34864c" stroke-width="0.8" stroke-linejoin="round"/><polygon points="179.3,180.9 166.0,199.8 202.2,195.3" fill="#1b5f35" stroke="#1b5f35" stroke-width="0.8" stroke-linejoin="round"/><polygon points="179.3,180.9 202.2,195.3 197.8,168.7" fill="#1d6c39" stroke="#1d6c39" stroke-width="0.8" stroke-linejoin="round"/></g><g><polygon points="187.9,195.8 173.1,212.4 151.5,210.7 139.3,191.9 145.7,170.1 165.9,161.8 184.7,173.2" fill="#1F7A3D" stroke="#17251B" stroke-width="4.5" stroke-linejoin="round"/><polygon points="159.7,181.5 187.9,195.8 173.1,212.4" fill="#1a5e34" stroke="#1a5e34" stroke-width="0.8" stroke-linejoin="round"/><polygon points="159.7,181.5 173.1,212.4 151.5,210.7" fill="#1b6336" stroke="#1b6336" stroke-width="0.8" stroke-linejoin="round"/><polygon points="159.7,181.5 151.5,210.7 139.3,191.9" fill="#1f783d" stroke="#1f783d" stroke-width="0.8" stroke-linejoin="round"/><polygon points="159.7,181.5 139.3,191.9 145.7,170.1" fill="#398950" stroke="#398950" stroke-width="0.8" stroke-linejoin="round"/><polygon points="159.7,181.5 145.7,170.1 165.9,161.8" fill="#519661" stroke="#519661" stroke-width="0.8" stroke-linejoin="round"/><polygon points="159.7,181.5 165.9,161.8 184.7,173.2" fill="#36874e" stroke="#36874e" stroke-width="0.8" stroke-linejoin="round"/><polygon points="159.7,181.5 184.7,173.2 187.9,195.8" fill="#1e713a" stroke="#1e713a" stroke-width="0.8" stroke-linejoin="round"/></g><g><polygon points="160.5,180.0 157.4,184.3 152.4,182.6 152.4,177.4 157.4,175.7" fill="#9ACD32" stroke="#17251B" stroke-width="2.5" stroke-linejoin="round"/><polygon points="155.3,178.9 160.5,180.0 157.4,184.3" fill="#6f952c" stroke="#6f952c" stroke-width="0.8" stroke-linejoin="round"/><polygon points="155.3,178.9 157.4,184.3 152.4,182.6" fill="#81ad2f" stroke="#81ad2f" stroke-width="0.8" stroke-linejoin="round"/><polygon points="155.3,178.9 152.4,182.6 152.4,177.4" fill="#a9d34b" stroke="#a9d34b" stroke-width="0.8" stroke-linejoin="round"/><polygon points="155.3,178.9 152.4,177.4 157.4,175.7" fill="#aed554" stroke="#aed554" stroke-width="0.8" stroke-linejoin="round"/><polygon points="155.3,178.9 157.4,175.7 160.5,180.0" fill="#9cce35" stroke="#9cce35" stroke-width="0.8" stroke-linejoin="round"/></g><g><polygon points="170.5,176.0 167.4,180.3 162.4,178.6 162.4,173.4 167.4,171.7" fill="#9ACD32" stroke="#17251B" stroke-width="2.5" stroke-linejoin="round"/><polygon points="165.3,174.9 170.5,176.0 167.4,180.3" fill="#6d942c" stroke="#6d942c" stroke-width="0.8" stroke-linejoin="round"/><polygon points="165.3,174.9 167.4,180.3 162.4,178.6" fill="#7ca62e" stroke="#7ca62e" stroke-width="0.8" stroke-linejoin="round"/><polygon points="165.3,174.9 162.4,178.6 162.4,173.4" fill="#a5d244" stroke="#a5d244" stroke-width="0.8" stroke-linejoin="round"/><polygon points="165.3,174.9 162.4,173.4 167.4,171.7" fill="#add552" stroke="#add552" stroke-width="0.8" stroke-linejoin="round"/><polygon points="165.3,174.9 167.4,171.7 170.5,176.0" fill="#96c832" stroke="#96c832" stroke-width="0.8" stroke-linejoin="round"/></g><g><polygon points="180.5,182.0 177.4,186.3 172.4,184.6 172.4,179.4 177.4,177.7" fill="#9ACD32" stroke="#17251B" stroke-width="2.5" stroke-linejoin="round"/><polygon points="175.3,180.9 180.5,182.0 177.4,186.3" fill="#72992d" stroke="#72992d" stroke-width="0.8" stroke-linejoin="round"/><polygon points="175.3,180.9 177.4,186.3 172.4,184.6" fill="#82ae2f" stroke="#82ae2f" stroke-width="0.8" stroke-linejoin="round"/><polygon points="175.3,180.9 172.4,184.6 172.4,179.4" fill="#a8d34a" stroke="#a8d34a" stroke-width="0.8" stroke-linejoin="round"/><polygon points="175.3,180.9 172.4,179.4 177.4,177.7" fill="#aad44d" stroke="#aad44d" stroke-width="0.8" stroke-linejoin="round"/><polygon points="175.3,180.9 177.4,177.7 180.5,182.0" fill="#99cc32" stroke="#99cc32" stroke-width="0.8" stroke-linejoin="round"/></g><g><polygon points="44.5,208.0 41.4,212.3 36.4,210.6 36.4,205.4 41.4,203.7" fill="#9ACD32" stroke="#17251B" stroke-width="2.5" stroke-linejoin="round"/><polygon points="39.3,206.9 44.5,208.0 41.4,212.3" fill="#729a2d" stroke="#729a2d" stroke-width="0.8" stroke-linejoin="round"/><polygon points="39.3,206.9 41.4,212.3 36.4,210.6" fill="#7ea92e" stroke="#7ea92e" stroke-width="0.8" stroke-linejoin="round"/><polygon points="39.3,206.9 36.4,210.6 36.4,205.4" fill="#a4d142" stroke="#a4d142" stroke-width="0.8" stroke-linejoin="round"/><polygon points="39.3,206.9 36.4,205.4 41.4,203.7" fill="#acd550" stroke="#acd550" stroke-width="0.8" stroke-linejoin="round"/><polygon points="39.3,206.9 41.4,203.7 44.5,208.0" fill="#96c832" stroke="#96c832" stroke-width="0.8" stroke-linejoin="round"/></g><g><polygon points="54.5,204.0 51.4,208.3 46.4,206.6 46.4,201.4 51.4,199.7" fill="#9ACD32" stroke="#17251B" stroke-width="2.5" stroke-linejoin="round"/><polygon points="49.3,202.9 54.5,204.0 51.4,208.3" fill="#6f962c" stroke="#6f962c" stroke-width="0.8" stroke-linejoin="round"/><polygon points="49.3,202.9 51.4,208.3 46.4,206.6" fill="#7ea92e" stroke="#7ea92e" stroke-width="0.8" stroke-linejoin="round"/><polygon points="49.3,202.9 46.4,206.6 46.4,201.4" fill="#a6d247" stroke="#a6d247" stroke-width="0.8" stroke-linejoin="round"/><polygon points="49.3,202.9 46.4,201.4 51.4,199.7" fill="#add553" stroke="#add553" stroke-width="0.8" stroke-linejoin="round"/><polygon points="49.3,202.9 51.4,199.7 54.5,204.0" fill="#9bce34" stroke="#9bce34" stroke-width="0.8" stroke-linejoin="round"/></g><g><polygon points="62.5,212.0 59.4,216.3 54.4,214.6 54.4,209.4 59.4,207.7" fill="#9ACD32" stroke="#17251B" stroke-width="2.5" stroke-linejoin="round"/><polygon points="57.3,210.9 62.5,212.0 59.4,216.3" fill="#70972d" stroke="#70972d" stroke-width="0.8" stroke-linejoin="round"/><polygon points="57.3,210.9 59.4,216.3 54.4,214.6" fill="#80ac2f" stroke="#80ac2f" stroke-width="0.8" stroke-linejoin="round"/><polygon points="57.3,210.9 54.4,214.6 54.4,209.4" fill="#a8d34a" stroke="#a8d34a" stroke-width="0.8" stroke-linejoin="round"/><polygon points="57.3,210.9 54.4,209.4 59.4,207.7" fill="#b1d759" stroke="#b1d759" stroke-width="0.8" stroke-linejoin="round"/><polygon points="57.3,210.9 59.4,207.7 62.5,212.0" fill="#9bcd33" stroke="#9bcd33" stroke-width="0.8" stroke-linejoin="round"/></g></svg>
