<svg xmlns="http://www.w3.org/2000/svg" viewBox="0 0 256 256" width="256" height="256"><polygon points="13.4,51.3 41.6,41.0 54.6,76.7 26.4,87.0" fill="#2B2536" stroke="#2B2536" stroke-width="10" stroke-linejoin="round"/><polygon points="215.6,46.7 243.2,58.3 228.4,93.3 200.8,81.7" fill="#2B2536" stroke="#2B2536" stroke-width="10" stroke-linejoin="round"/><polygon points="186.4,3.2 210.1,6.8 205.6,36.8 181.9,33.2" fill="#2B2536" stroke="#2B2536" stroke-width="10" stroke-linejoin="round"/><polygon points="46.2,7.8 67.1,5.7 69.8,32.2 48.9,34.3" fill="#2B2536" stroke="#2B2536" stroke-width="10" stroke-linejoin="round"/><polygon points="68.8,85.7 81.6,65.4 174.4,65.4 187.2,85.7 194.1,181.4 164.0,191.8 92.0,191.8 61.9,181.4" fill="#2B2536" stroke="#2B2536" stroke-width="10" stroke-linejoin="round"/><polygon points="109.0,150.0 108.0,186.0 148.0,186.0 147.0,150.0" fill="#2B2536" stroke="#2B2536" stroke-width="10" stroke-linejoin="round"/><polygon points="28.0,264.0 38.0,214.0 76.0,182.0 128.0,176.0 180.0,182.0 218.0,214.0 228.0,264.0" fill="#2B2536" stroke="#2B2536" stroke-width="10" stroke-linejoin="round"/><polygon points="93.1,185.0 122.0,248.6 134.0,243.4 106.9,179.0" fill="#2B2536" stroke="#2B2536" stroke-width="10" stroke-linejoin="round"/><polygon points="149.1,179.0 122.0,243.4 134.0,248.6 162.9,185.0" fill="#2B2536" stroke="#2B2536" stroke-width="10" stroke-linejoin="round"/><polygon points="30.0,259.0 226.0,259.0 226.0,241.0 30.0,241.0" fill="#2B2536" stroke="#2B2536" stroke-width="10" stroke-linejoin="round"/><polygon points="44.0,243.0 51.0,255.0 37.0,255.0" fill="#2B2536" stroke="#2B2536" stroke-width="10" stroke-linejoin="round"/><polygon points="71.5,250.0 69.6,254.6 65.0,256.5 60.4,254.6 58.5,250.0 60.4,245.4 65.0,243.5 69.6,245.4" fill="#2B2536" stroke="#2B2536" stroke-width="10" stroke-linejoin="round"/><polygon points="89.6,250.0 87.8,253.1 84.2,253.1 82.4,250.0 84.2,246.9 87.8,246.9" fill="#2B2536" stroke="#2B2536" stroke-width="10" stroke-linejoin="round"/><polygon points="107.0,243.0 114.0,255.0 100.0,255.0" fill="#2B2536" stroke="#2B2536" stroke-width="10" stroke-linejoin="round"/><polygon points="134.5,250.0 132.6,254.6 128.0,256.5 123.4,254.6 121.5,250.0 123.4,245.4 128.0,243.5 132.6,245.4" fill="#2B2536" stroke="#2B2536" stroke-width="10" stroke-linejoin="round"/><polygon points="152.6,250.0 150.8,253.1 147.2,253.1 145.4,250.0 147.2,246.9 150.8,246.9" fill="#2B2536" stroke="#2B2536" stroke-width="10" stroke-linejoin="round"/><polygon points="170.0,243.0 177.0,255.0 163.0,255.0" fill="#2B2536" stroke="#2B2536" stroke-width="10" stroke-linejoin="round"/><polygon points="197.5,250.0 195.6,254.6 191.0,256.5 186.4,254.6 184.5,250.0 186.4,245.4 191.0,243.5 195.6,245.4" fill="#2B2536" stroke="#2B2536" stroke-width="10" stroke-linejoin="round"/><polygon points="215.6,250.0 213.8,253.1 210.2,253.1 208.4,250.0 210.2,246.9 213.8,246.9" fill="#2B2536" stroke="#2B2536" stroke-width="10" stroke-linejoin="round"/><polygon points="64.0,215.0 71.0,227.0 57.0,227.0" fill="#2B2536" stroke="#2B2536" stroke-width="10" stroke-linejoin="round"/><polygon points="198.5,222.0 196.6,226.6 192.0,228.5 187.4,226.6 185.5,222.0 187.4,217.4 192.0,215.5 196.6,217.4" fill="#2B2536" stroke="#2B2536" stroke-width="10" stroke-linejoin="round"/><polygon points="64.0,226.0 84.0,222.0 88.0,244.0 66.0,248.0" fill="#2B2536" stroke="#2B2536" stroke-width="10" stroke-linejoin="round"/><polygon points="176.0,214.0 194.0,218.0 190.0,236.0 172.0,232.0" fill="#2B2536" stroke="#2B2536" stroke-width="10" stroke-linejoin="round"/><polygon points="83.9,113.0 78.4,126.0 67.4,126.0 61.9,113.0 67.4,99.9 78.4,99.9" fill="#2B2536" stroke="#2B2536" stroke-width="10" stroke-linejoin="round"/><polygon points="195.3,113.0 189.8,126.0 178.8,126.0 173.2,113.0 178.8,99.9 189.8,99.9" fill="#2B2536" stroke="#2B2536" stroke-width="10" stroke-linejoin="round"/><polygon points="129.7,169.8 93.9,153.9 72.8,124.3 72.8,87.7 93.9,58.1 128.0,46.8 162.1,58.1 183.2,87.7 183.2,124.3 162.1,153.9" fill="#2B2536" stroke="#2B2536" stroke-width="10" stroke-linejoin="round"/><polygon points="77.0,108.9 90.9,131.5 114.1,146.6 148.9,146.6 172.1,131.5 186.0,108.9 183.7,146.6 166.3,181.4 143.1,207.5 131.5,219.1 117.0,204.6 96.7,181.4 79.3,146.6" fill="#2B2536" stroke="#2B2536" stroke-width="10" stroke-linejoin="round"/><polygon points="132.6,126.3 125.7,123.4 107.1,126.9 95.5,142.0 112.9,137.3 132.6,133.8" fill="#2B2536" stroke="#2B2536" stroke-width="10" stroke-linejoin="round"/><polygon points="130.3,133.8 150.0,137.3 167.4,142.0 155.8,126.9 137.3,123.4 130.3,126.3" fill="#2B2536" stroke="#2B2536" stroke-width="10" stroke-linejoin="round"/><polygon points="68.3,116.4 65.9,82.8 79.3,63.1 93.2,65.4 81.6,86.3 78.1,111.8" fill="#2B2536" stroke="#2B2536" stroke-width="10" stroke-linejoin="round"/><polygon points="177.9,111.8 174.4,86.3 162.8,65.4 176.7,63.1 190.1,82.8 187.7,116.4" fill="#2B2536" stroke="#2B2536" stroke-width="10" stroke-linejoin="round"/><polygon points="21.3,153.4 49.9,162.3 38.7,198.6 10.1,189.7" fill="#2B2536" stroke="#2B2536" stroke-width="10" stroke-linejoin="round"/><polygon points="208.1,154.3 236.7,145.4 247.9,181.7 219.3,190.6" fill="#2B2536" stroke="#2B2536" stroke-width="10" stroke-linejoin="round"/><polygon points="205.3,218.7 228.8,223.5 222.7,253.3 199.2,248.5" fill="#2B2536" stroke="#2B2536" stroke-width="10" stroke-linejoin="round"/><g><polygon points="13.4,51.3 41.6,41.0 54.6,76.7 26.4,87.0" fill="#cabfe9" stroke="#2B2536" stroke-width="3" stroke-linejoin="round"/><polygon points="30.4,58.5 13.4,51.3 41.6,41.0" fill="#d0c6eb" stroke="#d0c6eb" stroke-width="0.8" stroke-linejoin="round"/><polygon points="30.4,58.5 41.6,41.0 54.6,76.7" fill="#c3b8e1" stroke="#c3b8e1" stroke-width="0.8" stroke-linejoin="round"/><polygon points="30.4,58.5 54.6,76.7 26.4,87.0" fill="#988eb1" stroke="#988eb1" stroke-width="0.8" stroke-linejoin="round"/><polygon points="30.4,58.5 26.4,87.0 13.4,51.3" fill="#cac0e9" stroke="#cac0e9" stroke-width="0.8" stroke-linejoin="round"/></g><polyline points="22.3,58.2 39.2,52.0" fill="none" stroke="#a39abf" stroke-width="2" stroke-linecap="round" stroke-linejoin="round"/><polyline points="25.5,67.1 42.5,60.9" fill="none" stroke="#a39abf" stroke-width="2" stroke-linecap="round" stroke-linejoin="round"/><polyline points="28.8,76.0 45.7,69.8" fill="none" stroke="#a39abf" stroke-width="2" stroke-linecap="round" stroke-linejoin="round"/><g><polygon points="215.6,46.7 243.2,58.3 228.4,93.3 200.8,81.7" fill="#cabfe9" stroke="#2B2536" stroke-width="3" stroke-linejoin="round"/><polygon points="218.3,64.4 215.6,46.7 243.2,58.3" fill="#cfc4eb" stroke="#cfc4eb" stroke-width="0.8" stroke-linejoin="round"/><polygon points="218.3,64.4 243.2,58.3 228.4,93.3" fill="#a298bc" stroke="#a298bc" stroke-width="0.8" stroke-linejoin="round"/><polygon points="218.3,64.4 228.4,93.3 200.8,81.7" fill="#a69cc1" stroke="#a69cc1" stroke-width="0.8" stroke-linejoin="round"/><polygon points="218.3,64.4 200.8,81.7 215.6,46.7" fill="#d1c8ec" stroke="#d1c8ec" stroke-width="0.8" stroke-linejoin="round"/></g><polyline points="217.4,57.7 234.0,64.8" fill="none" stroke="#a39abf" stroke-width="2" stroke-linecap="round" stroke-linejoin="round"/><polyline points="213.7,66.5 230.3,73.5" fill="none" stroke="#a39abf" stroke-width="2" stroke-linecap="round" stroke-linejoin="round"/><polyline points="210.0,75.2 226.6,82.3" fill="none" stroke="#a39abf" stroke-width="2" stroke-linecap="round" stroke-linejoin="round"/><g><polygon points="186.4,3.2 210.1,6.8 205.6,36.8 181.9,33.2" fill="#cabfe9" stroke="#2B2536" stroke-width="3" stroke-linejoin="round"/><polygon points="193.5,16.2 186.4,3.2 210.1,6.8" fill="#d1c7ec" stroke="#d1c7ec" stroke-width="0.8" stroke-linejoin="round"/><polygon points="193.5,16.2 210.1,6.8 205.6,36.8" fill="#a79dc2" stroke="#a79dc2" stroke-width="0.8" stroke-linejoin="round"/><polygon points="193.5,16.2 205.6,36.8 181.9,33.2" fill="#a198bc" stroke="#a198bc" stroke-width="0.8" stroke-linejoin="round"/><polygon points="193.5,16.2 181.9,33.2 186.4,3.2" fill="#cfc4eb" stroke="#cfc4eb" stroke-width="0.8" stroke-linejoin="round"/></g><polyline points="190.0,11.4 204.3,13.6" fill="none" stroke="#a39abf" stroke-width="2" stroke-linecap="round" stroke-linejoin="round"/><polyline points="188.9,18.9 203.1,21.1" fill="none" stroke="#a39abf" stroke-width="2" stroke-linecap="round" stroke-linejoin="round"/><polyline points="187.7,26.4 202.0,28.6" fill="none" stroke="#a39abf" stroke-width="2" stroke-linecap="round" stroke-linejoin="round"/><g><polygon points="46.2,7.8 67.1,5.7 69.8,32.2 48.9,34.3" fill="#cabfe9" stroke="#2B2536" stroke-width="3" stroke-linejoin="round"/><polygon points="55.9,16.9 46.2,7.8 67.1,5.7" fill="#d0c6eb" stroke="#d0c6eb" stroke-width="0.8" stroke-linejoin="round"/><polygon points="55.9,16.9 67.1,5.7 69.8,32.2" fill="#b5aad1" stroke="#b5aad1" stroke-width="0.8" stroke-linejoin="round"/><polygon points="55.9,16.9 69.8,32.2 48.9,34.3" fill="#968daf" stroke="#968daf" stroke-width="0.8" stroke-linejoin="round"/><polygon points="55.9,16.9 48.9,34.3 46.2,7.8" fill="#cec4eb" stroke="#cec4eb" stroke-width="0.8" stroke-linejoin="round"/></g><polyline points="51.1,14.0 63.6,12.8" fill="none" stroke="#a39abf" stroke-width="2" stroke-linecap="round" stroke-linejoin="round"/><polyline points="51.7,20.6 64.3,19.4" fill="none" stroke="#a39abf" stroke-width="2" stroke-linecap="round" stroke-linejoin="round"/><polyline points="52.4,27.2 64.9,26.0" fill="none" stroke="#a39abf" stroke-width="2" stroke-linecap="round" stroke-linejoin="round"/><g><polygon points="68.8,85.7 81.6,65.4 174.4,65.4 187.2,85.7 194.1,181.4 164.0,191.8 92.0,191.8 61.9,181.4" fill="#cabfe9" stroke="#2B2536" stroke-width="4" stroke-linejoin="round"/><polygon points="116.9,114.3 68.8,85.7 81.6,65.4" fill="#d2c8ec" stroke="#d2c8ec" stroke-width="0.8" stroke-linejoin="round"/><polygon points="116.9,114.3 81.6,65.4 174.4,65.4" fill="#cfc5eb" stroke="#cfc5eb" stroke-width="0.8" stroke-linejoin="round"/><polygon points="116.9,114.3 174.4,65.4 187.2,85.7" fill="#cbc1ea" stroke="#cbc1ea" stroke-width="0.8" stroke-linejoin="round"/><polygon points="116.9,114.3 187.2,85.7 194.1,181.4" fill="#aaa0c6" stroke="#aaa0c6" stroke-width="0.8" stroke-linejoin="round"/><polygon points="116.9,114.3 194.1,181.4 164.0,191.8" fill="#9188a9" stroke="#9188a9" stroke-width="0.8" stroke-linejoin="round"/><polygon points="116.9,114.3 164.0,191.8 92.0,191.8" fill="#988fb1" stroke="#988fb1" stroke-width="0.8" stroke-linejoin="round"/><polygon points="116.9,114.3 92.0,191.8 61.9,181.4" fill="#c3b9e2" stroke="#c3b9e2" stroke-width="0.8" stroke-linejoin="round"/><polygon points="116.9,114.3 61.9,181.4 68.8,85.7" fill="#cec3eb" stroke="#cec3eb" stroke-width="0.8" stroke-linejoin="round"/></g><g><polygon points="109.0,150.0 108.0,186.0 148.0,186.0 147.0,150.0" fill="#b5acd3" stroke="#2B2536" stroke-width="4" stroke-linejoin="round"/><polygon points="124.8,163.2 109.0,150.0 108.0,186.0" fill="#bcb3d7" stroke="#bcb3d7" stroke-width="0.8" stroke-linejoin="round"/><polygon points="124.8,163.2 108.0,186.0 148.0,186.0" fill="#8f87a8" stroke="#8f87a8" stroke-width="0.8" stroke-linejoin="round"/><polygon points="124.8,163.2 148.0,186.0 147.0,150.0" fill="#968db0" stroke="#968db0" stroke-width="0.8" stroke-linejoin="round"/><polygon points="124.8,163.2 147.0,150.0 109.0,150.0" fill="#beb6d9" stroke="#beb6d9" stroke-width="0.8" stroke-linejoin="round"/></g><g><polygon points="28.0,264.0 38.0,214.0 76.0,182.0 128.0,176.0 180.0,182.0 218.0,214.0 228.0,264.0" fill="#a29abe" stroke="#2B2536" stroke-width="4" stroke-linejoin="round"/><polygon points="120.3,202.0 28.0,264.0 38.0,214.0" fill="#a59dc0" stroke="#a59dc0" stroke-width="0.8" stroke-linejoin="round"/><polygon points="120.3,202.0 38.0,214.0 76.0,182.0" fill="#aca5c6" stroke="#aca5c6" stroke-width="0.8" stroke-linejoin="round"/><polygon points="120.3,202.0 76.0,182.0 128.0,176.0" fill="#aea7c7" stroke="#aea7c7" stroke-width="0.8" stroke-linejoin="round"/><polygon points="120.3,202.0 128.0,176.0 180.0,182.0" fill="#a9a1c3" stroke="#a9a1c3" stroke-width="0.8" stroke-linejoin="round"/><polygon points="120.3,202.0 180.0,182.0 218.0,214.0" fill="#968eb1" stroke="#968eb1" stroke-width="0.8" stroke-linejoin="round"/><polygon points="120.3,202.0 218.0,214.0 228.0,264.0" fill="#7f7796" stroke="#7f7796" stroke-width="0.8" stroke-linejoin="round"/><polygon points="120.3,202.0 228.0,264.0 28.0,264.0" fill="#7d7594" stroke="#7d7594" stroke-width="0.8" stroke-linejoin="round"/></g><g><polygon points="93.1,185.0 122.0,248.6 134.0,243.4 106.9,179.0" fill="#928aad" stroke="#2B2536" stroke-width="4" stroke-linejoin="round"/><polygon points="110.4,208.6 93.1,185.0 122.0,248.6" fill="#938bae" stroke="#938bae" stroke-width="0.8" stroke-linejoin="round"/><polygon points="110.4,208.6 122.0,248.6 134.0,243.4" fill="#736b89" stroke="#736b89" stroke-width="0.8" stroke-linejoin="round"/><polygon points="110.4,208.6 134.0,243.4 106.9,179.0" fill="#8d85a7" stroke="#8d85a7" stroke-width="0.8" stroke-linejoin="round"/><polygon points="110.4,208.6 106.9,179.0 93.1,185.0" fill="#a69fbe" stroke="#a69fbe" stroke-width="0.8" stroke-linejoin="round"/></g><g><polygon points="149.1,179.0 122.0,243.4 134.0,248.6 162.9,185.0" fill="#928aad" stroke="#2B2536" stroke-width="4" stroke-linejoin="round"/><polygon points="138.4,208.6 149.1,179.0 122.0,243.4" fill="#9e97b7" stroke="#9e97b7" stroke-width="0.8" stroke-linejoin="round"/><polygon points="138.4,208.6 122.0,243.4 134.0,248.6" fill="#7e7696" stroke="#7e7696" stroke-width="0.8" stroke-linejoin="round"/><polygon points="138.4,208.6 134.0,248.6 162.9,185.0" fill="#756e8c" stroke="#756e8c" stroke-width="0.8" stroke-linejoin="round"/><polygon points="138.4,208.6 162.9,185.0 149.1,179.0" fill="#9f97b7" stroke="#9f97b7" stroke-width="0.8" stroke-linejoin="round"/></g><g><polygon points="30.0,259.0 226.0,259.0 226.0,241.0 30.0,241.0" fill="#928aad" stroke="#2B2536" stroke-width="4" stroke-linejoin="round"/><polygon points="126.4,247.6 30.0,259.0 226.0,259.0" fill="#756d8c" stroke="#756d8c" stroke-width="0.8" stroke-linejoin="round"/><polygon points="126.4,247.6 226.0,259.0 226.0,241.0" fill="#7d7595" stroke="#7d7595" stroke-width="0.8" stroke-linejoin="round"/><polygon points="126.4,247.6 226.0,241.0 30.0,241.0" fill="#a29bba" stroke="#a29bba" stroke-width="0.8" stroke-linejoin="round"/><polygon points="126.4,247.6 30.0,241.0 30.0,259.0" fill="#9f98b8" stroke="#9f98b8" stroke-width="0.8" stroke-linejoin="round"/></g><g><polygon points="44.0,243.0 51.0,255.0 37.0,255.0" fill="#9c94b8" stroke="#2B2536" stroke-width="2.5" stroke-linejoin="round"/><polygon points="42.9,249.4 44.0,243.0 51.0,255.0" fill="#9991b5" stroke="#9991b5" stroke-width="0.8" stroke-linejoin="round"/><polygon points="42.9,249.4 51.0,255.0 37.0,255.0" fill="#807999" stroke="#807999" stroke-width="0.8" stroke-linejoin="round"/><polygon points="42.9,249.4 37.0,255.0 44.0,243.0" fill="#aba4c4" stroke="#aba4c4" stroke-width="0.8" stroke-linejoin="round"/></g><g><polygon points="71.5,250.0 69.6,254.6 65.0,256.5 60.4,254.6 58.5,250.0 60.4,245.4 65.0,243.5 69.6,245.4" fill="#9890b4" stroke="#2B2536" stroke-width="2.5" stroke-linejoin="round"/><polygon points="63.9,248.3 71.5,250.0 69.6,254.6" fill="#7c7594" stroke="#7c7594" stroke-width="0.8" stroke-linejoin="round"/><polygon points="63.9,248.3 69.6,254.6 65.0,256.5" fill="#736c8a" stroke="#736c8a" stroke-width="0.8" stroke-linejoin="round"/><polygon points="63.9,248.3 65.0,256.5 60.4,254.6" fill="#807999" stroke="#807999" stroke-width="0.8" stroke-linejoin="round"/><polygon points="63.9,248.3 60.4,254.6 58.5,250.0" fill="#9890b4" stroke="#9890b4" stroke-width="0.8" stroke-linejoin="round"/><polygon points="63.9,248.3 58.5,250.0 60.4,245.4" fill="#a9a2c1" stroke="#a9a2c1" stroke-width="0.8" stroke-linejoin="round"/><polygon points="63.9,248.3 60.4,245.4 65.0,243.5" fill="#aaa3c2" stroke="#aaa3c2" stroke-width="0.8" stroke-linejoin="round"/><polygon points="63.9,248.3 65.0,243.5 69.6,245.4" fill="#a39bbd" stroke="#a39bbd" stroke-width="0.8" stroke-linejoin="round"/><polygon points="63.9,248.3 69.6,245.4 71.5,250.0" fill="#938bae" stroke="#938bae" stroke-width="0.8" stroke-linejoin="round"/></g><g><polygon points="89.6,250.0 87.8,253.1 84.2,253.1 82.4,250.0 84.2,246.9 87.8,246.9" fill="#8b83a6" stroke="#2B2536" stroke-width="2" stroke-linejoin="round"/><polygon points="85.5,249.2 89.6,250.0 87.8,253.1" fill="#69627f" stroke="#69627f" stroke-width="0.8" stroke-linejoin="round"/><polygon points="85.5,249.2 87.8,253.1 84.2,253.1" fill="#6e6685" stroke="#6e6685" stroke-width="0.8" stroke-linejoin="round"/><polygon points="85.5,249.2 84.2,253.1 82.4,250.0" fill="#8f88aa" stroke="#8f88aa" stroke-width="0.8" stroke-linejoin="round"/><polygon points="85.5,249.2 82.4,250.0 84.2,246.9" fill="#9992b2" stroke="#9992b2" stroke-width="0.8" stroke-linejoin="round"/><polygon points="85.5,249.2 84.2,246.9 87.8,246.9" fill="#9a93b3" stroke="#9a93b3" stroke-width="0.8" stroke-linejoin="round"/><polygon points="85.5,249.2 87.8,246.9 89.6,250.0" fill="#857d9f" stroke="#857d9f" stroke-width="0.8" stroke-linejoin="round"/></g><g><polygon points="107.0,243.0 114.0,255.0 100.0,255.0" fill="#9c94b8" stroke="#2B2536" stroke-width="2.5" stroke-linejoin="round"/><polygon points="105.9,249.4 107.0,243.0 114.0,255.0" fill="#9b93b7" stroke="#9b93b7" stroke-width="0.8" stroke-linejoin="round"/><polygon points="105.9,249.4 114.0,255.0 100.0,255.0" fill="#7f7897" stroke="#7f7897" stroke-width="0.8" stroke-linejoin="round"/><polygon points="105.9,249.4 100.0,255.0 107.0,243.0" fill="#ada6c5" stroke="#ada6c5" stroke-width="0.8" stroke-linejoin="round"/></g><g><polygon points="134.5,250.0 132.6,254.6 128.0,256.5 123.4,254.6 121.5,250.0 123.4,245.4 128.0,243.5 132.6,245.4" fill="#9890b4" stroke="#2B2536" stroke-width="2.5" stroke-linejoin="round"/><polygon points="126.9,248.3 134.5,250.0 132.6,254.6" fill="#7e7696" stroke="#7e7696" stroke-width="0.8" stroke-linejoin="round"/><polygon points="126.9,248.3 132.6,254.6 128.0,256.5" fill="#766f8e" stroke="#766f8e" stroke-width="0.8" stroke-linejoin="round"/><polygon points="126.9,248.3 128.0,256.5 123.4,254.6" fill="#847c9d" stroke="#847c9d" stroke-width="0.8" stroke-linejoin="round"/><polygon points="126.9,248.3 123.4,254.6 121.5,250.0" fill="#9890b4" stroke="#9890b4" stroke-width="0.8" stroke-linejoin="round"/><polygon points="126.9,248.3 121.5,250.0 123.4,245.4" fill="#a69fbf" stroke="#a69fbf" stroke-width="0.8" stroke-linejoin="round"/><polygon points="126.9,248.3 123.4,245.4 128.0,243.5" fill="#a69fbf" stroke="#a69fbf" stroke-width="0.8" stroke-linejoin="round"/><polygon points="126.9,248.3 128.0,243.5 132.6,245.4" fill="#9f97b9" stroke="#9f97b9" stroke-width="0.8" stroke-linejoin="round"/><polygon points="126.9,248.3 132.6,245.4 134.5,250.0" fill="#928aad" stroke="#928aad" stroke-width="0.8" stroke-linejoin="round"/></g><g><polygon points="152.6,250.0 150.8,253.1 147.2,253.1 145.4,250.0 147.2,246.9 150.8,246.9" fill="#8b83a6" stroke="#2B2536" stroke-width="2" stroke-linejoin="round"/><polygon points="148.5,249.2 152.6,250.0 150.8,253.1" fill="#6b6381" stroke="#6b6381" stroke-width="0.8" stroke-linejoin="round"/><polygon points="148.5,249.2 150.8,253.1 147.2,253.1" fill="#716988" stroke="#716988" stroke-width="0.8" stroke-linejoin="round"/><polygon points="148.5,249.2 147.2,253.1 145.4,250.0" fill="#8981a4" stroke="#8981a4" stroke-width="0.8" stroke-linejoin="round"/><polygon points="148.5,249.2 145.4,250.0 147.2,246.9" fill="#9f97b6" stroke="#9f97b6" stroke-width="0.8" stroke-linejoin="round"/><polygon points="148.5,249.2 147.2,246.9 150.8,246.9" fill="#9f98b7" stroke="#9f98b7" stroke-width="0.8" stroke-linejoin="round"/><polygon points="148.5,249.2 150.8,246.9 152.6,250.0" fill="#877fa1" stroke="#877fa1" stroke-width="0.8" stroke-linejoin="round"/></g><g><polygon points="170.0,243.0 177.0,255.0 163.0,255.0" fill="#9c94b8" stroke="#2B2536" stroke-width="2.5" stroke-linejoin="round"/><polygon points="168.9,249.4 170.0,243.0 177.0,255.0" fill="#9c94b8" stroke="#9c94b8" stroke-width="0.8" stroke-linejoin="round"/><polygon points="168.9,249.4 177.0,255.0 163.0,255.0" fill="#7a7392" stroke="#7a7392" stroke-width="0.8" stroke-linejoin="round"/><polygon points="168.9,249.4 163.0,255.0 170.0,243.0" fill="#a8a1c2" stroke="#a8a1c2" stroke-width="0.8" stroke-linejoin="round"/></g><g><polygon points="197.5,250.0 195.6,254.6 191.0,256.5 186.4,254.6 184.5,250.0 186.4,245.4 191.0,243.5 195.6,245.4" fill="#9890b4" stroke="#2B2536" stroke-width="2.5" stroke-linejoin="round"/><polygon points="189.9,248.3 197.5,250.0 195.6,254.6" fill="#756e8c" stroke="#756e8c" stroke-width="0.8" stroke-linejoin="round"/><polygon points="189.9,248.3 195.6,254.6 191.0,256.5" fill="#766f8e" stroke="#766f8e" stroke-width="0.8" stroke-linejoin="round"/><polygon points="189.9,248.3 191.0,256.5 186.4,254.6" fill="#807999" stroke="#807999" stroke-width="0.8" stroke-linejoin="round"/><polygon points="189.9,248.3 186.4,254.6 184.5,250.0" fill="#9e97b9" stroke="#9e97b9" stroke-width="0.8" stroke-linejoin="round"/><polygon points="189.9,248.3 184.5,250.0 186.4,245.4" fill="#aaa2c2" stroke="#aaa2c2" stroke-width="0.8" stroke-linejoin="round"/><polygon points="189.9,248.3 186.4,245.4 191.0,243.5" fill="#a9a2c2" stroke="#a9a2c2" stroke-width="0.8" stroke-linejoin="round"/><polygon points="189.9,248.3 191.0,243.5 195.6,245.4" fill="#9f97ba" stroke="#9f97ba" stroke-width="0.8" stroke-linejoin="round"/><polygon points="189.9,248.3 195.6,245.4 197.5,250.0" fill="#938bae" stroke="#938bae" stroke-width="0.8" stroke-linejoin="round"/></g><g><polygon points="215.6,250.0 213.8,253.1 210.2,253.1 208.4,250.0 210.2,246.9 213.8,246.9" fill="#8b83a6" stroke="#2B2536" stroke-width="2" stroke-linejoin="round"/><polygon points="211.5,249.2 215.6,250.0 213.8,253.1" fill="#6f6786" stroke="#6f6786" stroke-width="0.8" stroke-linejoin="round"/><polygon points="211.5,249.2 213.8,253.1 210.2,253.1" fill="#6d6684" stroke="#6d6684" stroke-width="0.8" stroke-linejoin="round"/><polygon points="211.5,249.2 210.2,253.1 208.4,250.0" fill="#8880a3" stroke="#8880a3" stroke-width="0.8" stroke-linejoin="round"/><polygon points="211.5,249.2 208.4,250.0 210.2,246.9" fill="#9e96b5" stroke="#9e96b5" stroke-width="0.8" stroke-linejoin="round"/><polygon points="211.5,249.2 210.2,246.9 213.8,246.9" fill="#9891b1" stroke="#9891b1" stroke-width="0.8" stroke-linejoin="round"/><polygon points="211.5,249.2 213.8,246.9 215.6,250.0" fill="#8981a4" stroke="#8981a4" stroke-width="0.8" stroke-linejoin="round"/></g><g><polygon points="64.0,215.0 71.0,227.0 57.0,227.0" fill="#9c94b8" stroke="#2B2536" stroke-width="2.5" stroke-linejoin="round"/><polygon points="62.9,221.4 64.0,215.0 71.0,227.0" fill="#9d95b9" stroke="#9d95b9" stroke-width="0.8" stroke-linejoin="round"/><polygon points="62.9,221.4 71.0,227.0 57.0,227.0" fill="#78718f" stroke="#78718f" stroke-width="0.8" stroke-linejoin="round"/><polygon points="62.9,221.4 57.0,227.0 64.0,215.0" fill="#ada6c5" stroke="#ada6c5" stroke-width="0.8" stroke-linejoin="round"/></g><g><polygon points="198.5,222.0 196.6,226.6 192.0,228.5 187.4,226.6 185.5,222.0 187.4,217.4 192.0,215.5 196.6,217.4" fill="#9890b4" stroke="#2B2536" stroke-width="2.5" stroke-linejoin="round"/><polygon points="190.9,220.3 198.5,222.0 196.6,226.6" fill="#776f8e" stroke="#776f8e" stroke-width="0.8" stroke-linejoin="round"/><polygon points="190.9,220.3 196.6,226.6 192.0,228.5" fill="#716a88" stroke="#716a88" stroke-width="0.8" stroke-linejoin="round"/><polygon points="190.9,220.3 192.0,228.5 187.4,226.6" fill="#877fa1" stroke="#877fa1" stroke-width="0.8" stroke-linejoin="round"/><polygon points="190.9,220.3 187.4,226.6 185.5,222.0" fill="#9a93b6" stroke="#9a93b6" stroke-width="0.8" stroke-linejoin="round"/><polygon points="190.9,220.3 185.5,222.0 187.4,217.4" fill="#a79fc0" stroke="#a79fc0" stroke-width="0.8" stroke-linejoin="round"/><polygon points="190.9,220.3 187.4,217.4 192.0,215.5" fill="#aaa3c2" stroke="#aaa3c2" stroke-width="0.8" stroke-linejoin="round"/><polygon points="190.9,220.3 192.0,215.5 196.6,217.4" fill="#a39cbd" stroke="#a39cbd" stroke-width="0.8" stroke-linejoin="round"/><polygon points="190.9,220.3 196.6,217.4 198.5,222.0" fill="#938baf" stroke="#938baf" stroke-width="0.8" stroke-linejoin="round"/></g><g><polygon points="64.0,226.0 84.0,222.0 88.0,244.0 66.0,248.0" fill="#8b83a5" stroke="#2B2536" stroke-width="3" stroke-linejoin="round"/><polygon points="73.4,231.8 64.0,226.0 84.0,222.0" fill="#a099b7" stroke="#a099b7" stroke-width="0.8" stroke-linejoin="round"/><polygon points="73.4,231.8 84.0,222.0 88.0,244.0" fill="#7a7292" stroke="#7a7292" stroke-width="0.8" stroke-linejoin="round"/><polygon points="73.4,231.8 88.0,244.0 66.0,248.0" fill="#6d6582" stroke="#6d6582" stroke-width="0.8" stroke-linejoin="round"/><polygon points="73.4,231.8 66.0,248.0 64.0,226.0" fill="#9088a9" stroke="#9088a9" stroke-width="0.8" stroke-linejoin="round"/></g><g><polygon points="176.0,214.0 194.0,218.0 190.0,236.0 172.0,232.0" fill="#8b83a5" stroke="#2B2536" stroke-width="3" stroke-linejoin="round"/><polygon points="181.1,222.1 176.0,214.0 194.0,218.0" fill="#9992b1" stroke="#9992b1" stroke-width="0.8" stroke-linejoin="round"/><polygon points="181.1,222.1 194.0,218.0 190.0,236.0" fill="#756d8c" stroke="#756d8c" stroke-width="0.8" stroke-linejoin="round"/><polygon points="181.1,222.1 190.0,236.0 172.0,232.0" fill="#746c8b" stroke="#746c8b" stroke-width="0.8" stroke-linejoin="round"/><polygon points="181.1,222.1 172.0,232.0 176.0,214.0" fill="#9992b1" stroke="#9992b1" stroke-width="0.8" stroke-linejoin="round"/></g><g><polygon points="83.9,113.0 78.4,126.0 67.4,126.0 61.9,113.0 67.4,99.9 78.4,99.9" fill="#b5acd3" stroke="#2B2536" stroke-width="4" stroke-linejoin="round"/><polygon points="71.0,110.0 83.9,113.0 78.4,126.0" fill="#8b82a3" stroke="#8b82a3" stroke-width="0.8" stroke-linejoin="round"/><polygon points="71.0,110.0 78.4,126.0 67.4,126.0" fill="#9188aa" stroke="#9188aa" stroke-width="0.8" stroke-linejoin="round"/><polygon points="71.0,110.0 67.4,126.0 61.9,113.0" fill="#b5acd3" stroke="#b5acd3" stroke-width="0.8" stroke-linejoin="round"/><polygon points="71.0,110.0 61.9,113.0 67.4,99.9" fill="#beb5d9" stroke="#beb5d9" stroke-width="0.8" stroke-linejoin="round"/><polygon points="71.0,110.0 67.4,99.9 78.4,99.9" fill="#bcb4d8" stroke="#bcb4d8" stroke-width="0.8" stroke-linejoin="round"/><polygon points="71.0,110.0 78.4,99.9 83.9,113.0" fill="#b2a9d0" stroke="#b2a9d0" stroke-width="0.8" stroke-linejoin="round"/></g><g><polygon points="195.3,113.0 189.8,126.0 178.8,126.0 173.2,113.0 178.8,99.9 189.8,99.9" fill="#b5acd3" stroke="#2B2536" stroke-width="4" stroke-linejoin="round"/><polygon points="182.3,110.0 195.3,113.0 189.8,126.0" fill="#847c9c" stroke="#847c9c" stroke-width="0.8" stroke-linejoin="round"/><polygon points="182.3,110.0 189.8,126.0 178.8,126.0" fill="#8f87a8" stroke="#8f87a8" stroke-width="0.8" stroke-linejoin="round"/><polygon points="182.3,110.0 178.8,126.0 173.2,113.0" fill="#b2aad0" stroke="#b2aad0" stroke-width="0.8" stroke-linejoin="round"/><polygon points="182.3,110.0 173.2,113.0 178.8,99.9" fill="#c0b8da" stroke="#c0b8da" stroke-width="0.8" stroke-linejoin="round"/><polygon points="182.3,110.0 178.8,99.9 189.8,99.9" fill="#bdb5d8" stroke="#bdb5d8" stroke-width="0.8" stroke-linejoin="round"/><polygon points="182.3,110.0 189.8,99.9 195.3,113.0" fill="#b8afd5" stroke="#b8afd5" stroke-width="0.8" stroke-linejoin="round"/></g><g><polygon points="129.7,169.8 93.9,153.9 72.8,124.3 72.8,87.7 93.9,58.1 128.0,46.8 162.1,58.1 183.2,87.7 183.2,124.3 162.1,153.9" fill="#b5acd3" stroke="#2B2536" stroke-width="4" stroke-linejoin="round"/><polygon points="118.5,91.8 129.7,169.8 93.9,153.9" fill="#9d94b8" stroke="#9d94b8" stroke-width="0.8" stroke-linejoin="round"/><polygon points="118.5,91.8 93.9,153.9 72.8,124.3" fill="#b3aad1" stroke="#b3aad1" stroke-width="0.8" stroke-linejoin="round"/><polygon points="118.5,91.8 72.8,124.3 72.8,87.7" fill="#bbb2d7" stroke="#bbb2d7" stroke-width="0.8" stroke-linejoin="round"/><polygon points="118.5,91.8 72.8,87.7 93.9,58.1" fill="#bfb7d9" stroke="#bfb7d9" stroke-width="0.8" stroke-linejoin="round"/><polygon points="118.5,91.8 93.9,58.1 128.0,46.8" fill="#c2badc" stroke="#c2badc" stroke-width="0.8" stroke-linejoin="round"/><polygon points="118.5,91.8 128.0,46.8 162.1,58.1" fill="#bcb4d8" stroke="#bcb4d8" stroke-width="0.8" stroke-linejoin="round"/><polygon points="118.5,91.8 162.1,58.1 183.2,87.7" fill="#b6add4" stroke="#b6add4" stroke-width="0.8" stroke-linejoin="round"/><polygon points="118.5,91.8 183.2,87.7 183.2,124.3" fill="#a199bd" stroke="#a199bd" stroke-width="0.8" stroke-linejoin="round"/><polygon points="118.5,91.8 183.2,124.3 162.1,153.9" fill="#867e9e" stroke="#867e9e" stroke-width="0.8" stroke-linejoin="round"/><polygon points="118.5,91.8 162.1,153.9 129.7,169.8" fill="#8d85a6" stroke="#8d85a6" stroke-width="0.8" stroke-linejoin="round"/></g><polygon points="132.6,116.4 139.6,125.7 128.0,126.3" fill="#958caf"/><polygon points="112.3,121.1 106.2,117.7 103.6,109.5 106.2,101.3 112.3,97.9 118.5,101.3 121.0,109.5 118.5,117.7" fill="#c0b6df" stroke="#2B2536" stroke-width="3" stroke-linejoin="round"/><polygon points="116.7,111.8 115.1,115.4 111.4,116.3 108.4,113.8 108.4,109.8 111.4,107.3 115.1,108.2" fill="#a49bc1"/><polygon points="101.6,94.9 123.0,94.9 123.0,107.7 101.6,107.7" fill="#b5acd3"/><polyline points="102.6,107.7 122.0,107.7" fill="none" stroke="#2B2536" stroke-width="3.5" stroke-linecap="round" stroke-linejoin="round"/><polygon points="150.6,121.1 144.5,117.7 141.9,109.5 144.5,101.3 150.6,97.9 156.8,101.3 159.3,109.5 156.8,117.7" fill="#c0b6df" stroke="#2B2536" stroke-width="3" stroke-linejoin="round"/><polygon points="155.0,111.8 153.3,115.4 149.7,116.3 146.7,113.8 146.7,109.8 149.7,107.3 153.3,108.2" fill="#a49bc1"/><polygon points="139.9,94.9 161.3,94.9 161.3,107.7 139.9,107.7" fill="#b5acd3"/><polyline points="140.9,107.7 160.3,107.7" fill="none" stroke="#2B2536" stroke-width="3.5" stroke-linecap="round" stroke-linejoin="round"/><polyline points="99.6,110.6 93.8,107.2" fill="none" stroke="#8981a2" stroke-width="2.2" stroke-linecap="round" stroke-linejoin="round"/><polyline points="99.6,115.3 94.4,118.2" fill="none" stroke="#8981a2" stroke-width="2.2" stroke-linecap="round" stroke-linejoin="round"/><polyline points="163.4,110.6 169.2,107.2" fill="none" stroke="#8981a2" stroke-width="2.2" stroke-linecap="round" stroke-linejoin="round"/><polyline points="163.4,115.3 168.6,118.2" fill="none" stroke="#8981a2" stroke-width="2.2" stroke-linecap="round" stroke-linejoin="round"/><polyline points="118.7,77.0 143.1,75.8" fill="none" stroke="#8981a2" stroke-width="2.2" stroke-linecap="round" stroke-linejoin="round"/><polyline points="123.4,70.0 138.4,69.5" fill="none" stroke="#8981a2" stroke-width="2.2" stroke-linecap="round" stroke-linejoin="round"/><polyline points="119.9,126.9 114.1,137.3" fill="none" stroke="#8981a2" stroke-width="2.2" stroke-linecap="round" stroke-linejoin="round"/><polyline points="144.2,126.9 150.0,137.3" fill="none" stroke="#8981a2" stroke-width="2.2" stroke-linecap="round" stroke-linejoin="round"/><polygon points="100.7,97.3 122.2,95.8 122.2,87.2 100.7,85.7" fill="#cbc1eb" stroke="#2B2536" stroke-width="2.5" stroke-linejoin="round"/><polygon points="140.8,97.3 162.2,95.8 162.2,87.2 140.8,85.7" fill="#cbc1eb" stroke="#2B2536" stroke-width="2.5" stroke-linejoin="round"/><g><polygon points="77.0,108.9 90.9,131.5 114.1,146.6 148.9,146.6 172.1,131.5 186.0,108.9 183.7,146.6 166.3,181.4 143.1,207.5 131.5,219.1 117.0,204.6 96.7,181.4 79.3,146.6" fill="#cbc1eb" stroke="#2B2536" stroke-width="4" stroke-linejoin="round"/><polygon points="121.7,144.1 77.0,108.9 90.9,131.5" fill="#d2c9ee" stroke="#d2c9ee" stroke-width="0.8" stroke-linejoin="round"/><polygon points="121.7,144.1 90.9,131.5 114.1,146.6" fill="#d3caee" stroke="#d3caee" stroke-width="0.8" stroke-linejoin="round"/><polygon points="121.7,144.1 114.1,146.6 148.9,146.6" fill="#cfc6ed" stroke="#cfc6ed" stroke-width="0.8" stroke-linejoin="round"/><polygon points="121.7,144.1 148.9,146.6 172.1,131.5" fill="#c8bee7" stroke="#c8bee7" stroke-width="0.8" stroke-linejoin="round"/><polygon points="121.7,144.1 172.1,131.5 186.0,108.9" fill="#cbc1eb" stroke="#cbc1eb" stroke-width="0.8" stroke-linejoin="round"/><polygon points="121.7,144.1 186.0,108.9 183.7,146.6" fill="#c9bfe9" stroke="#c9bfe9" stroke-width="0.8" stroke-linejoin="round"/><polygon points="121.7,144.1 183.7,146.6 166.3,181.4" fill="#afa5cb" stroke="#afa5cb" stroke-width="0.8" stroke-linejoin="round"/><polygon points="121.7,144.1 166.3,181.4 143.1,207.5" fill="#9087a9" stroke="#9087a9" stroke-width="0.8" stroke-linejoin="round"/><polygon points="121.7,144.1 143.1,207.5 131.5,219.1" fill="#9a91b4" stroke="#9a91b4" stroke-width="0.8" stroke-linejoin="round"/><polygon points="121.7,144.1 131.5,219.1 117.0,204.6" fill="#a39abe" stroke="#a39abe" stroke-width="0.8" stroke-linejoin="round"/><polygon points="121.7,144.1 117.0,204.6 96.7,181.4" fill="#bbb1d9" stroke="#bbb1d9" stroke-width="0.8" stroke-linejoin="round"/><polygon points="121.7,144.1 96.7,181.4 79.3,146.6" fill="#cdc4ec" stroke="#cdc4ec" stroke-width="0.8" stroke-linejoin="round"/><polygon points="121.7,144.1 79.3,146.6 77.0,108.9" fill="#d0c7ed" stroke="#d0c7ed" stroke-width="0.8" stroke-linejoin="round"/></g><polyline points="122.8,146.0 131.5,145.2 140.2,146.6" fill="none" stroke="#2B2536" stroke-width="4.0600000000000005" stroke-linecap="round" stroke-linejoin="round"/><g><polygon points="132.6,126.3 125.7,123.4 107.1,126.9 95.5,142.0 112.9,137.3 132.6,133.8" fill="#cbc1eb" stroke="#2B2536" stroke-width="3" stroke-linejoin="round"/><polygon points="116.1,129.2 132.6,126.3 125.7,123.4" fill="#cbc1eb" stroke="#cbc1eb" stroke-width="0.8" stroke-linejoin="round"/><polygon points="116.1,129.2 125.7,123.4 107.1,126.9" fill="#d1c8ed" stroke="#d1c8ed" stroke-width="0.8" stroke-linejoin="round"/><polygon points="116.1,129.2 107.1,126.9 95.5,142.0" fill="#ccc3ec" stroke="#ccc3ec" stroke-width="0.8" stroke-linejoin="round"/><polygon points="116.1,129.2 95.5,142.0 112.9,137.3" fill="#ccc3eb" stroke="#ccc3eb" stroke-width="0.8" stroke-linejoin="round"/><polygon points="116.1,129.2 112.9,137.3 132.6,133.8" fill="#9c93b6" stroke="#9c93b6" stroke-width="0.8" stroke-linejoin="round"/><polygon points="116.1,129.2 132.6,133.8 132.6,126.3" fill="#b0a6cc" stroke="#b0a6cc" stroke-width="0.8" stroke-linejoin="round"/></g><g><polygon points="130.3,133.8 150.0,137.3 167.4,142.0 155.8,126.9 137.3,123.4 130.3,126.3" fill="#cbc1eb" stroke="#2B2536" stroke-width="3" stroke-linejoin="round"/><polygon points="143.6,129.2 130.3,133.8 150.0,137.3" fill="#c9bfe9" stroke="#c9bfe9" stroke-width="0.8" stroke-linejoin="round"/><polygon points="143.6,129.2 150.0,137.3 167.4,142.0" fill="#9d94b7" stroke="#9d94b7" stroke-width="0.8" stroke-linejoin="round"/><polygon points="143.6,129.2 167.4,142.0 155.8,126.9" fill="#a59cc1" stroke="#a59cc1" stroke-width="0.8" stroke-linejoin="round"/><polygon points="143.6,129.2 155.8,126.9 137.3,123.4" fill="#d0c7ed" stroke="#d0c7ed" stroke-width="0.8" stroke-linejoin="round"/><polygon points="143.6,129.2 137.3,123.4 130.3,126.3" fill="#d1c9ed" stroke="#d1c9ed" stroke-width="0.8" stroke-linejoin="round"/><polygon points="143.6,129.2 130.3,126.3 130.3,133.8" fill="#cfc6ed" stroke="#cfc6ed" stroke-width="0.8" stroke-linejoin="round"/></g><g><polygon points="68.3,116.4 65.9,82.8 79.3,63.1 93.2,65.4 81.6,86.3 78.1,111.8" fill="#cabfe9" stroke="#2B2536" stroke-width="4" stroke-linejoin="round"/><polygon points="75.3,84.0 68.3,116.4 65.9,82.8" fill="#beb3dc" stroke="#beb3dc" stroke-width="0.8" stroke-linejoin="round"/><polygon points="75.3,84.0 65.9,82.8 79.3,63.1" fill="#d2c8ec" stroke="#d2c8ec" stroke-width="0.8" stroke-linejoin="round"/><polygon points="75.3,84.0 79.3,63.1 93.2,65.4" fill="#cec4eb" stroke="#cec4eb" stroke-width="0.8" stroke-linejoin="round"/><polygon points="75.3,84.0 93.2,65.4 81.6,86.3" fill="#cbc0e9" stroke="#cbc0e9" stroke-width="0.8" stroke-linejoin="round"/><polygon points="75.3,84.0 81.6,86.3 78.1,111.8" fill="#9d94b7" stroke="#9d94b7" stroke-width="0.8" stroke-linejoin="round"/><polygon points="75.3,84.0 78.1,111.8 68.3,116.4" fill="#9d93b7" stroke="#9d93b7" stroke-width="0.8" stroke-linejoin="round"/></g><g><polygon points="177.9,111.8 174.4,86.3 162.8,65.4 176.7,63.1 190.1,82.8 187.7,116.4" fill="#cabfe9" stroke="#2B2536" stroke-width="4" stroke-linejoin="round"/><polygon points="175.9,84.0 177.9,111.8 174.4,86.3" fill="#a99fc4" stroke="#a99fc4" stroke-width="0.8" stroke-linejoin="round"/><polygon points="175.9,84.0 174.4,86.3 162.8,65.4" fill="#d1c7ec" stroke="#d1c7ec" stroke-width="0.8" stroke-linejoin="round"/><polygon points="175.9,84.0 162.8,65.4 176.7,63.1" fill="#d0c6eb" stroke="#d0c6eb" stroke-width="0.8" stroke-linejoin="round"/><polygon points="175.9,84.0 176.7,63.1 190.1,82.8" fill="#cfc4eb" stroke="#cfc4eb" stroke-width="0.8" stroke-linejoin="round"/><polygon points="175.9,84.0 190.1,82.8 187.7,116.4" fill="#968caf" stroke="#968caf" stroke-width="0.8" stroke-linejoin="round"/><polygon points="175.9,84.0 187.7,116.4 177.9,111.8" fill="#9389ac" stroke="#9389ac" stroke-width="0.8" stroke-linejoin="round"/></g><g><polygon points="21.3,153.4 49.9,162.3 38.7,198.6 10.1,189.7" fill="#cabfe9" stroke="#2B2536" stroke-width="3" stroke-linejoin="round"/><polygon points="26.5,170.7 21.3,153.4 49.9,162.3" fill="#cfc5eb" stroke="#cfc5eb" stroke-width="0.8" stroke-linejoin="round"/><polygon points="26.5,170.7 49.9,162.3 38.7,198.6" fill="#a79dc2" stroke="#a79dc2" stroke-width="0.8" stroke-linejoin="round"/><polygon points="26.5,170.7 38.7,198.6 10.1,189.7" fill="#a49bbf" stroke="#a49bbf" stroke-width="0.8" stroke-linejoin="round"/><polygon points="26.5,170.7 10.1,189.7 21.3,153.4" fill="#cec4eb" stroke="#cec4eb" stroke-width="0.8" stroke-linejoin="round"/></g><polyline points="24.2,164.3 41.4,169.6" fill="none" stroke="#a39abf" stroke-width="2" stroke-linecap="round" stroke-linejoin="round"/><polyline points="21.4,173.3 38.6,178.7" fill="none" stroke="#a39abf" stroke-width="2" stroke-linecap="round" stroke-linejoin="round"/><polyline points="18.6,182.4 35.8,187.7" fill="none" stroke="#a39abf" stroke-width="2" stroke-linecap="round" stroke-linejoin="round"/><g><polygon points="208.1,154.3 236.7,145.4 247.9,181.7 219.3,190.6" fill="#cabfe9" stroke="#2B2536" stroke-width="3" stroke-linejoin="round"/><polygon points="224.5,162.7 208.1,154.3 236.7,145.4" fill="#d1c8ec" stroke="#d1c8ec" stroke-width="0.8" stroke-linejoin="round"/><polygon points="224.5,162.7 236.7,145.4 247.9,181.7" fill="#c1b6df" stroke="#c1b6df" stroke-width="0.8" stroke-linejoin="round"/><polygon points="224.5,162.7 247.9,181.7 219.3,190.6" fill="#9b91b4" stroke="#9b91b4" stroke-width="0.8" stroke-linejoin="round"/><polygon points="224.5,162.7 219.3,190.6 208.1,154.3" fill="#ccc1ea" stroke="#ccc1ea" stroke-width="0.8" stroke-linejoin="round"/></g><polyline points="216.6,161.6 233.8,156.3" fill="none" stroke="#a39abf" stroke-width="2" stroke-linecap="round" stroke-linejoin="round"/><polyline points="219.4,170.7 236.6,165.3" fill="none" stroke="#a39abf" stroke-width="2" stroke-linecap="round" stroke-linejoin="round"/><polyline points="222.2,179.7 239.4,174.4" fill="none" stroke="#a39abf" stroke-width="2" stroke-linecap="round" stroke-linejoin="round"/><g><polygon points="205.3,218.7 228.8,223.5 222.7,253.3 199.2,248.5" fill="#cabfe9" stroke="#2B2536" stroke-width="3" stroke-linejoin="round"/><polygon points="211.4,232.1 205.3,218.7 228.8,223.5" fill="#cfc4eb" stroke="#cfc4eb" stroke-width="0.8" stroke-linejoin="round"/><polygon points="211.4,232.1 228.8,223.5 222.7,253.3" fill="#a79dc2" stroke="#a79dc2" stroke-width="0.8" stroke-linejoin="round"/><polygon points="211.4,232.1 222.7,253.3 199.2,248.5" fill="#aaa0c6" stroke="#aaa0c6" stroke-width="0.8" stroke-linejoin="round"/><polygon points="211.4,232.1 199.2,248.5 205.3,218.7" fill="#d0c7ec" stroke="#d0c7ec" stroke-width="0.8" stroke-linejoin="round"/></g><polyline points="208.5,227.1 222.6,230.0" fill="none" stroke="#a39abf" stroke-width="2" stroke-linecap="round" stroke-linejoin="round"/><polyline points="206.9,234.6 221.1,237.4" fill="none" stroke="#a39abf" stroke-width="2" stroke-linecap="round" stroke-linejoin="round"/><polyline points="205.4,242.0 219.5,244.9" fill="none" stroke="#a39abf" stroke-width="2" stroke-linecap="round" stroke-linejoin="round"/></svg>