<?xml version="1.0" encoding="UTF-8"?>
<!-- Portrait tiré de la planche de personnages (design/planche-de-personnages-trois-signes), recadré en buste. -->
<svg viewBox="15 -8 210 284" width="210" height="284" preserveAspectRatio="xMidYMid meet" xmlns="http://www.w3.org/2000/svg"><polygon points="200.0,290.0 184.7,299.4 144.7,305.2 95.3,305.2 55.3,299.4 40.0,290.0 40.0,308.0 55.3,317.4 95.3,323.2 144.7,323.2 184.7,317.4 200.0,308.0" fill="#17251B" stroke="#17251B" stroke-width="11" stroke-linejoin="round"/><polygon points="200.0,290.0 184.7,299.4 144.7,305.2 95.3,305.2 55.3,299.4 40.0,290.0 55.3,280.6 95.3,274.8 144.7,274.8 184.7,280.6" fill="#17251B" stroke="#17251B" stroke-width="11" stroke-linejoin="round"/><g><polygon points="200.0,290.0 184.7,299.4 144.7,305.2 95.3,305.2 55.3,299.4 40.0,290.0 40.0,308.0 55.3,317.4 95.3,323.2 144.7,323.2 184.7,317.4 200.0,308.0" fill="#1F7A3D" stroke="#17251B" stroke-width="4.5" stroke-linejoin="round"/><polygon points="117.1,302.8 200.0,290.0 184.7,299.4" fill="#1d6f3a" stroke="#1d6f3a" stroke-width="0.8" stroke-linejoin="round"/><polygon points="117.1,302.8 184.7,299.4 144.7,305.2" fill="#1d703a" stroke="#1d703a" stroke-width="0.8" stroke-linejoin="round"/><polygon points="117.1,302.8 144.7,305.2 95.3,305.2" fill="#3f8c54" stroke="#3f8c54" stroke-width="0.8" stroke-linejoin="round"/><polygon points="117.1,302.8 95.3,305.2 55.3,299.4" fill="#35864d" stroke="#35864d" stroke-width="0.8" stroke-linejoin="round"/><polygon points="117.1,302.8 55.3,299.4 40.0,290.0" fill="#38884f" stroke="#38884f" stroke-width="0.8" stroke-linejoin="round"/><polygon points="117.1,302.8 40.0,290.0 40.0,308.0" fill="#3e8c54" stroke="#3e8c54" stroke-width="0.8" stroke-linejoin="round"/><polygon points="117.1,302.8 40.0,308.0 55.3,317.4" fill="#308449" stroke="#308449" stroke-width="0.8" stroke-linejoin="round"/><polygon points="117.1,302.8 55.3,317.4 95.3,323.2" fill="#2b8146" stroke="#2b8146" stroke-width="0.8" stroke-linejoin="round"/><polygon points="117.1,302.8 95.3,323.2 144.7,323.2" fill="#1c6536" stroke="#1c6536" stroke-width="0.8" stroke-linejoin="round"/><polygon points="117.1,302.8 144.7,323.2 184.7,317.4" fill="#1b6336" stroke="#1b6336" stroke-width="0.8" stroke-linejoin="round"/><polygon points="117.1,302.8 184.7,317.4 200.0,308.0" fill="#1c6938" stroke="#1c6938" stroke-width="0.8" stroke-linejoin="round"/><polygon points="117.1,302.8 200.0,308.0 200.0,290.0" fill="#1d6e39" stroke="#1d6e39" stroke-width="0.8" stroke-linejoin="round"/></g><g><polygon points="200.0,290.0 184.7,299.4 144.7,305.2 95.3,305.2 55.3,299.4 40.0,290.0 55.3,280.6 95.3,274.8 144.7,274.8 184.7,280.6" fill="#3DDC5B" stroke="#17251B" stroke-width="4.5" stroke-linejoin="round"/><polygon points="117.3,286.0 200.0,290.0 184.7,299.4" fill="#34b54f" stroke="#34b54f" stroke-width="0.8" stroke-linejoin="round"/><polygon points="117.3,286.0 184.7,299.4 144.7,305.2" fill="#32ad4c" stroke="#32ad4c" stroke-width="0.8" stroke-linejoin="round"/><polygon points="117.3,286.0 144.7,305.2 95.3,305.2" fill="#2fa249" stroke="#2fa249" stroke-width="0.8" stroke-linejoin="round"/><polygon points="117.3,286.0 95.3,305.2 55.3,299.4" fill="#45dd60" stroke="#45dd60" stroke-width="0.8" stroke-linejoin="round"/><polygon points="117.3,286.0 55.3,299.4 40.0,290.0" fill="#55df6b" stroke="#55df6b" stroke-width="0.8" stroke-linejoin="round"/><polygon points="117.3,286.0 40.0,290.0 55.3,280.6" fill="#5ce070" stroke="#5ce070" stroke-width="0.8" stroke-linejoin="round"/><polygon points="117.3,286.0 55.3,280.6 95.3,274.8" fill="#55df6b" stroke="#55df6b" stroke-width="0.8" stroke-linejoin="round"/><polygon points="117.3,286.0 95.3,274.8 144.7,274.8" fill="#64e275" stroke="#64e275" stroke-width="0.8" stroke-linejoin="round"/><polygon points="117.3,286.0 144.7,274.8 184.7,280.6" fill="#39c955" stroke="#39c955" stroke-width="0.8" stroke-linejoin="round"/><polygon points="117.3,286.0 184.7,280.6 200.0,290.0" fill="#35b850" stroke="#35b850" stroke-width="0.8" stroke-linejoin="round"/></g><g><polygon points="63.4,298.0 68.4,285.0 71.4,294.0 75.4,287.0 78.4,298.0" fill="#9ACD32" stroke="#17251B" stroke-width="3" stroke-linejoin="round"/><polygon points="70.3,290.7 63.4,298.0 68.4,285.0" fill="#a5d245" stroke="#a5d245" stroke-width="0.8" stroke-linejoin="round"/><polygon points="70.3,290.7 68.4,285.0 71.4,294.0" fill="#afd655" stroke="#afd655" stroke-width="0.8" stroke-linejoin="round"/><polygon points="70.3,290.7 71.4,294.0 75.4,287.0" fill="#9bcd33" stroke="#9bcd33" stroke-width="0.8" stroke-linejoin="round"/><polygon points="70.3,290.7 75.4,287.0 78.4,298.0" fill="#7ca72e" stroke="#7ca72e" stroke-width="0.8" stroke-linejoin="round"/><polygon points="70.3,290.7 78.4,298.0 63.4,298.0" fill="#759e2d" stroke="#759e2d" stroke-width="0.8" stroke-linejoin="round"/></g><g><polygon points="153.0,301.2 158.0,288.2 161.0,297.2 165.0,290.2 168.0,301.2" fill="#9ACD32" stroke="#17251B" stroke-width="3" stroke-linejoin="round"/><polygon points="159.9,293.9 153.0,301.2 158.0,288.2" fill="#a9d34b" stroke="#a9d34b" stroke-width="0.8" stroke-linejoin="round"/><polygon points="159.9,293.9 158.0,288.2 161.0,297.2" fill="#aed655" stroke="#aed655" stroke-width="0.8" stroke-linejoin="round"/><polygon points="159.9,293.9 161.0,297.2 165.0,290.2" fill="#9dce38" stroke="#9dce38" stroke-width="0.8" stroke-linejoin="round"/><polygon points="159.9,293.9 165.0,290.2 168.0,301.2" fill="#87b42f" stroke="#87b42f" stroke-width="0.8" stroke-linejoin="round"/><polygon points="159.9,293.9 168.0,301.2 153.0,301.2" fill="#739b2d" stroke="#739b2d" stroke-width="0.8" stroke-linejoin="round"/></g><g><polygon points="175.4,291.6 180.4,278.6 183.4,287.6 187.4,280.6 190.4,291.6" fill="#9ACD32" stroke="#17251B" stroke-width="3" stroke-linejoin="round"/><polygon points="182.3,284.3 175.4,291.6 180.4,278.6" fill="#a7d348" stroke="#a7d348" stroke-width="0.8" stroke-linejoin="round"/><polygon points="182.3,284.3 180.4,278.6 183.4,287.6" fill="#acd551" stroke="#acd551" stroke-width="0.8" stroke-linejoin="round"/><polygon points="182.3,284.3 183.4,287.6 187.4,280.6" fill="#99cc32" stroke="#99cc32" stroke-width="0.8" stroke-linejoin="round"/><polygon points="182.3,284.3 187.4,280.6 190.4,291.6" fill="#7ca62e" stroke="#7ca62e" stroke-width="0.8" stroke-linejoin="round"/><polygon points="182.3,284.3 190.4,291.6 175.4,291.6" fill="#77a02d" stroke="#77a02d" stroke-width="0.8" stroke-linejoin="round"/></g><polygon points="176.0,291.0 164.8,297.2 136.3,300.5 104.0,299.3 82.9,294.3 82.9,287.7 104.0,282.7 136.3,281.5 164.8,284.8" fill="#17251B" opacity=".3"/><polygon points="106.4,144.9 82.2,137.5 77.8,150.5 101.6,159.1" fill="#17251B" stroke="#17251B" stroke-width="11" stroke-linejoin="round"/><polygon points="87.5,144.0 83.8,150.5 76.3,150.5 72.5,144.0 76.3,137.5 83.8,137.5" fill="#17251B" stroke="#17251B" stroke-width="11" stroke-linejoin="round"/><polygon points="85.0,139.5 66.5,120.0 57.5,128.0 75.0,148.5" fill="#17251B" stroke="#17251B" stroke-width="11" stroke-linejoin="round"/><polygon points="71.6,127.1 65.6,133.8 57.0,133.1 52.1,125.6 54.7,116.9 62.8,113.5 70.3,118.1" fill="#17251B" stroke="#17251B" stroke-width="11" stroke-linejoin="round"/><polygon points="108.0,140.0 64.0,120.0 34.0,134.0 58.0,146.0 38.0,162.0 94.0,156.0" fill="#17251B" stroke="#17251B" stroke-width="11" stroke-linejoin="round"/><polygon points="105.1,191.5 73.6,226.0 86.4,238.0 118.9,204.5" fill="#17251B" stroke="#17251B" stroke-width="11" stroke-linejoin="round"/><polygon points="89.1,232.0 84.6,239.9 75.4,239.9 70.9,232.0 75.4,224.1 84.6,224.1" fill="#17251B" stroke="#17251B" stroke-width="11" stroke-linejoin="round"/><polygon points="72.0,228.9 58.7,265.2 73.3,270.8 88.0,235.1" fill="#17251B" stroke="#17251B" stroke-width="11" stroke-linejoin="round"/><polygon points="54.2,260.0 77.8,260.0 79.8,286.0 41.2,286.0" fill="#17251B" stroke="#17251B" stroke-width="11" stroke-linejoin="round"/><polygon points="100.0,146.0 140.0,138.0 152.0,178.0 140.0,206.0 108.0,208.0 96.0,178.0" fill="#17251B" stroke="#17251B" stroke-width="11" stroke-linejoin="round"/><polygon points="104.7,199.9 148.7,191.9 147.3,184.1 103.3,192.1" fill="#17251B" stroke="#17251B" stroke-width="11" stroke-linejoin="round"/><polygon points="129.3,204.7 165.8,240.2 178.2,227.8 142.7,191.3" fill="#17251B" stroke="#17251B" stroke-width="11" stroke-linejoin="round"/><polygon points="181.1,234.0 176.6,241.9 167.4,241.9 162.9,234.0 167.4,226.1 176.6,226.1" fill="#17251B" stroke="#17251B" stroke-width="11" stroke-linejoin="round"/><polygon points="163.6,232.5 158.3,266.6 173.7,269.4 180.4,235.5" fill="#17251B" stroke="#17251B" stroke-width="11" stroke-linejoin="round"/><polygon points="154.2,260.0 177.8,260.0 190.8,286.0 152.2,286.0" fill="#17251B" stroke="#17251B" stroke-width="11" stroke-linejoin="round"/><polygon points="92.0,122.0 96.0,84.0 122.0,64.0 154.0,70.0 170.0,98.0 166.0,128.0 150.0,140.0 104.0,140.0" fill="#17251B" stroke="#17251B" stroke-width="11" stroke-linejoin="round"/><polygon points="132.7,148.1 108.1,136.6 96.5,116.0 100.6,92.7 118.4,77.4 141.6,77.4 159.4,92.7 163.5,116.0 151.9,136.6" fill="#17251B" stroke="#17251B" stroke-width="11" stroke-linejoin="round"/><polygon points="109.6,114.1 106.2,122.0 99.4,122.0 96.0,114.1 99.4,106.1 106.2,106.1" fill="#17251B" stroke="#17251B" stroke-width="11" stroke-linejoin="round"/><polygon points="94.0,108.0 102.0,78.0 128.0,64.0 158.0,72.0 168.0,100.0 154.0,88.0 132.0,84.0 112.0,92.0" fill="#17251B" stroke="#17251B" stroke-width="11" stroke-linejoin="round"/><polygon points="108.0,92.0 132.0,82.0 150.0,86.0 124.0,96.0" fill="#17251B" stroke="#17251B" stroke-width="11" stroke-linejoin="round"/><polygon points="150.0,142.0 141.0,150.6 120.7,152.7 104.4,146.8 104.4,137.2 120.7,131.3 141.0,133.4" fill="#17251B" stroke="#17251B" stroke-width="11" stroke-linejoin="round"/><polygon points="203.2,162.0 179.9,173.6 183.5,180.7 206.7,169.1" fill="#17251B" stroke="#17251B" stroke-width="11" stroke-linejoin="round"/><polygon points="209.2,169.6 224.3,161.0 236.0,150.0 220.2,152.8 204.3,159.7" fill="#17251B" stroke="#17251B" stroke-width="11" stroke-linejoin="round"/><polygon points="198.2,157.7 207.2,175.6 215.2,171.6 206.3,153.7" fill="#17251B" stroke="#17251B" stroke-width="11" stroke-linejoin="round"/><polygon points="185.1,178.9 181.6,185.0 174.6,185.0 171.1,178.9 174.6,172.9 181.6,172.9" fill="#17251B" stroke="#17251B" stroke-width="11" stroke-linejoin="round"/><polygon points="140.3,156.9 164.8,184.5 175.2,175.5 151.7,147.1" fill="#17251B" stroke="#17251B" stroke-width="11" stroke-linejoin="round"/><polygon points="177.5,180.0 173.8,186.5 166.3,186.5 162.5,180.0 166.3,173.5 173.8,173.5" fill="#17251B" stroke="#17251B" stroke-width="11" stroke-linejoin="round"/><polygon points="172.4,186.3 198.2,175.6 193.8,164.4 167.6,173.7" fill="#17251B" stroke="#17251B" stroke-width="11" stroke-linejoin="round"/><polygon points="205.6,173.1 199.6,179.8 191.0,179.1 186.1,171.6 188.7,162.9 196.8,159.5 204.3,164.1" fill="#17251B" stroke="#17251B" stroke-width="11" stroke-linejoin="round"/><g><polygon points="106.4,144.9 82.2,137.5 77.8,150.5 101.6,159.1" fill="#2F3A44" stroke="#17251B" stroke-width="4.5" stroke-linejoin="round"/><polygon points="90.1,145.1 106.4,144.9 82.2,137.5" fill="#424b52" stroke="#424b52" stroke-width="0.8" stroke-linejoin="round"/><polygon points="90.1,145.1 82.2,137.5 77.8,150.5" fill="#4b5459" stroke="#4b5459" stroke-width="0.8" stroke-linejoin="round"/><polygon points="90.1,145.1 77.8,150.5 101.6,159.1" fill="#2a353e" stroke="#2a353e" stroke-width="0.8" stroke-linejoin="round"/><polygon points="90.1,145.1 101.6,159.1 106.4,144.9" fill="#28333c" stroke="#28333c" stroke-width="0.8" stroke-linejoin="round"/></g><g><polygon points="87.5,144.0 83.8,150.5 76.3,150.5 72.5,144.0 76.3,137.5 83.8,137.5" fill="#2F3A44" stroke="#17251B" stroke-width="4.5" stroke-linejoin="round"/><polygon points="78.9,142.3 87.5,144.0 83.8,150.5" fill="#27323a" stroke="#27323a" stroke-width="0.8" stroke-linejoin="round"/><polygon points="78.9,142.3 83.8,150.5 76.3,150.5" fill="#27323a" stroke="#27323a" stroke-width="0.8" stroke-linejoin="round"/><polygon points="78.9,142.3 76.3,150.5 72.5,144.0" fill="#37424a" stroke="#37424a" stroke-width="0.8" stroke-linejoin="round"/><polygon points="78.9,142.3 72.5,144.0 76.3,137.5" fill="#5c6365" stroke="#5c6365" stroke-width="0.8" stroke-linejoin="round"/><polygon points="78.9,142.3 76.3,137.5 83.8,137.5" fill="#575e61" stroke="#575e61" stroke-width="0.8" stroke-linejoin="round"/><polygon points="78.9,142.3 83.8,137.5 87.5,144.0" fill="#2f3a44" stroke="#2f3a44" stroke-width="0.8" stroke-linejoin="round"/></g><g><polygon points="85.0,139.5 66.5,120.0 57.5,128.0 75.0,148.5" fill="#2F3A44" stroke="#17251B" stroke-width="4.5" stroke-linejoin="round"/><polygon points="68.6,130.4 85.0,139.5 66.5,120.0" fill="#364149" stroke="#364149" stroke-width="0.8" stroke-linejoin="round"/><polygon points="68.6,130.4 66.5,120.0 57.5,128.0" fill="#555d60" stroke="#555d60" stroke-width="0.8" stroke-linejoin="round"/><polygon points="68.6,130.4 57.5,128.0 75.0,148.5" fill="#2d3842" stroke="#2d3842" stroke-width="0.8" stroke-linejoin="round"/><polygon points="68.6,130.4 75.0,148.5 85.0,139.5" fill="#253139" stroke="#253139" stroke-width="0.8" stroke-linejoin="round"/></g><g><polygon points="71.6,127.1 65.6,133.8 57.0,133.1 52.1,125.6 54.7,116.9 62.8,113.5 70.3,118.1" fill="#E8AE82" stroke="#17251B" stroke-width="4.5" stroke-linejoin="round"/><polygon points="60.3,121.4 71.6,127.1 65.6,133.8" fill="#a58063" stroke="#a58063" stroke-width="0.8" stroke-linejoin="round"/><polygon points="60.3,121.4 65.6,133.8 57.0,133.1" fill="#b38a6a" stroke="#b38a6a" stroke-width="0.8" stroke-linejoin="round"/><polygon points="60.3,121.4 57.0,133.1 52.1,125.6" fill="#e8ae83" stroke="#e8ae83" stroke-width="0.8" stroke-linejoin="round"/><polygon points="60.3,121.4 52.1,125.6 54.7,116.9" fill="#ecbb92" stroke="#ecbb92" stroke-width="0.8" stroke-linejoin="round"/><polygon points="60.3,121.4 54.7,116.9 62.8,113.5" fill="#edbd95" stroke="#edbd95" stroke-width="0.8" stroke-linejoin="round"/><polygon points="60.3,121.4 62.8,113.5 70.3,118.1" fill="#ebb68c" stroke="#ebb68c" stroke-width="0.8" stroke-linejoin="round"/><polygon points="60.3,121.4 70.3,118.1 71.6,127.1" fill="#d29f78" stroke="#d29f78" stroke-width="0.8" stroke-linejoin="round"/></g><g><polygon points="108.0,140.0 64.0,120.0 34.0,134.0 58.0,146.0 38.0,162.0 94.0,156.0" fill="#3DDC5B" stroke="#17251B" stroke-width="4.5" stroke-linejoin="round"/><polygon points="62.3,137.4 108.0,140.0 64.0,120.0" fill="#42dd5e" stroke="#42dd5e" stroke-width="0.8" stroke-linejoin="round"/><polygon points="62.3,137.4 64.0,120.0 34.0,134.0" fill="#6ae37a" stroke="#6ae37a" stroke-width="0.8" stroke-linejoin="round"/><polygon points="62.3,137.4 34.0,134.0 58.0,146.0" fill="#56e06c" stroke="#56e06c" stroke-width="0.8" stroke-linejoin="round"/><polygon points="62.3,137.4 58.0,146.0 38.0,162.0" fill="#3edc5c" stroke="#3edc5c" stroke-width="0.8" stroke-linejoin="round"/><polygon points="62.3,137.4 38.0,162.0 94.0,156.0" fill="#33b04d" stroke="#33b04d" stroke-width="0.8" stroke-linejoin="round"/><polygon points="62.3,137.4 94.0,156.0 108.0,140.0" fill="#35bb51" stroke="#35bb51" stroke-width="0.8" stroke-linejoin="round"/></g><g><polygon points="105.1,191.5 73.6,226.0 86.4,238.0 118.9,204.5" fill="#2F3A44" stroke="#17251B" stroke-width="4.5" stroke-linejoin="round"/><polygon points="92.0,209.0 105.1,191.5 73.6,226.0" fill="#555d60" stroke="#555d60" stroke-width="0.8" stroke-linejoin="round"/><polygon points="92.0,209.0 73.6,226.0 86.4,238.0" fill="#2c3740" stroke="#2c3740" stroke-width="0.8" stroke-linejoin="round"/><polygon points="92.0,209.0 86.4,238.0 118.9,204.5" fill="#253038" stroke="#253038" stroke-width="0.8" stroke-linejoin="round"/><polygon points="92.0,209.0 118.9,204.5 105.1,191.5" fill="#3f4850" stroke="#3f4850" stroke-width="0.8" stroke-linejoin="round"/></g><g><polygon points="89.1,232.0 84.6,239.9 75.4,239.9 70.9,232.0 75.4,224.1 84.6,224.1" fill="#2F3A44" stroke="#17251B" stroke-width="4.5" stroke-linejoin="round"/><polygon points="78.6,229.9 89.1,232.0 84.6,239.9" fill="#27323a" stroke="#27323a" stroke-width="0.8" stroke-linejoin="round"/><polygon points="78.6,229.9 84.6,239.9 75.4,239.9" fill="#27333b" stroke="#27333b" stroke-width="0.8" stroke-linejoin="round"/><polygon points="78.6,229.9 75.4,239.9 70.9,232.0" fill="#39434b" stroke="#39434b" stroke-width="0.8" stroke-linejoin="round"/><polygon points="78.6,229.9 70.9,232.0 75.4,224.1" fill="#596063" stroke="#596063" stroke-width="0.8" stroke-linejoin="round"/><polygon points="78.6,229.9 75.4,224.1 84.6,224.1" fill="#4d555a" stroke="#4d555a" stroke-width="0.8" stroke-linejoin="round"/><polygon points="78.6,229.9 84.6,224.1 89.1,232.0" fill="#2e3943" stroke="#2e3943" stroke-width="0.8" stroke-linejoin="round"/></g><g><polygon points="72.0,228.9 58.7,265.2 73.3,270.8 88.0,235.1" fill="#2F3A44" stroke="#17251B" stroke-width="4.5" stroke-linejoin="round"/><polygon points="70.4,246.1 72.0,228.9 58.7,265.2" fill="#565d61" stroke="#565d61" stroke-width="0.8" stroke-linejoin="round"/><polygon points="70.4,246.1 58.7,265.2 73.3,270.8" fill="#28343c" stroke="#28343c" stroke-width="0.8" stroke-linejoin="round"/><polygon points="70.4,246.1 73.3,270.8 88.0,235.1" fill="#28333c" stroke="#28333c" stroke-width="0.8" stroke-linejoin="round"/><polygon points="70.4,246.1 88.0,235.1 72.0,228.9" fill="#4c5459" stroke="#4c5459" stroke-width="0.8" stroke-linejoin="round"/></g><g><polygon points="54.2,260.0 77.8,260.0 79.8,286.0 41.2,286.0" fill="#1E252C" stroke="#17251B" stroke-width="4.5" stroke-linejoin="round"/><polygon points="61.0,269.5 54.2,260.0 77.8,260.0" fill="#404547" stroke="#404547" stroke-width="0.8" stroke-linejoin="round"/><polygon points="61.0,269.5 77.8,260.0 79.8,286.0" fill="#1c242a" stroke="#1c242a" stroke-width="0.8" stroke-linejoin="round"/><polygon points="61.0,269.5 79.8,286.0 41.2,286.0" fill="#1b2329" stroke="#1b2329" stroke-width="0.8" stroke-linejoin="round"/><polygon points="61.0,269.5 41.2,286.0 54.2,260.0" fill="#363b3f" stroke="#363b3f" stroke-width="0.8" stroke-linejoin="round"/></g><g><polygon points="100.0,146.0 140.0,138.0 152.0,178.0 140.0,206.0 108.0,208.0 96.0,178.0" fill="#3E4B58" stroke="#17251B" stroke-width="4.5" stroke-linejoin="round"/><polygon points="117.7,168.2 100.0,146.0 140.0,138.0" fill="#656e73" stroke="#656e73" stroke-width="0.8" stroke-linejoin="round"/><polygon points="117.7,168.2 140.0,138.0 152.0,178.0" fill="#414e5a" stroke="#414e5a" stroke-width="0.8" stroke-linejoin="round"/><polygon points="117.7,168.2 152.0,178.0 140.0,206.0" fill="#323e49" stroke="#323e49" stroke-width="0.8" stroke-linejoin="round"/><polygon points="117.7,168.2 140.0,206.0 108.0,208.0" fill="#313d48" stroke="#313d48" stroke-width="0.8" stroke-linejoin="round"/><polygon points="117.7,168.2 108.0,208.0 96.0,178.0" fill="#3d4a57" stroke="#3d4a57" stroke-width="0.8" stroke-linejoin="round"/><polygon points="117.7,168.2 96.0,178.0 100.0,146.0" fill="#5f696f" stroke="#5f696f" stroke-width="0.8" stroke-linejoin="round"/></g><g><polygon points="104.7,199.9 148.7,191.9 147.3,184.1 103.3,192.1" fill="#3DDC5B" stroke="#17251B" stroke-width="4.5" stroke-linejoin="round"/><polygon points="124.6,189.9 104.7,199.9 148.7,191.9" fill="#2fa249" stroke="#2fa249" stroke-width="0.8" stroke-linejoin="round"/><polygon points="124.6,189.9 148.7,191.9 147.3,184.1" fill="#36bf52" stroke="#36bf52" stroke-width="0.8" stroke-linejoin="round"/><polygon points="124.6,189.9 147.3,184.1 103.3,192.1" fill="#62e174" stroke="#62e174" stroke-width="0.8" stroke-linejoin="round"/><polygon points="124.6,189.9 103.3,192.1 104.7,199.9" fill="#48de62" stroke="#48de62" stroke-width="0.8" stroke-linejoin="round"/></g><g><polygon points="129.3,204.7 165.8,240.2 178.2,227.8 142.7,191.3" fill="#2F3A44" stroke="#17251B" stroke-width="4.5" stroke-linejoin="round"/><polygon points="149.7,209.5 129.3,204.7 165.8,240.2" fill="#2e3943" stroke="#2e3943" stroke-width="0.8" stroke-linejoin="round"/><polygon points="149.7,209.5 165.8,240.2 178.2,227.8" fill="#26313a" stroke="#26313a" stroke-width="0.8" stroke-linejoin="round"/><polygon points="149.7,209.5 178.2,227.8 142.7,191.3" fill="#353f48" stroke="#353f48" stroke-width="0.8" stroke-linejoin="round"/><polygon points="149.7,209.5 142.7,191.3 129.3,204.7" fill="#5b6264" stroke="#5b6264" stroke-width="0.8" stroke-linejoin="round"/></g><g><polygon points="181.1,234.0 176.6,241.9 167.4,241.9 162.9,234.0 167.4,226.1 176.6,226.1" fill="#2F3A44" stroke="#17251B" stroke-width="4.5" stroke-linejoin="round"/><polygon points="170.6,231.9 181.1,234.0 176.6,241.9" fill="#27323b" stroke="#27323b" stroke-width="0.8" stroke-linejoin="round"/><polygon points="170.6,231.9 176.6,241.9 167.4,241.9" fill="#263139" stroke="#263139" stroke-width="0.8" stroke-linejoin="round"/><polygon points="170.6,231.9 167.4,241.9 162.9,234.0" fill="#2f3a44" stroke="#2f3a44" stroke-width="0.8" stroke-linejoin="round"/><polygon points="170.6,231.9 162.9,234.0 167.4,226.1" fill="#5b6265" stroke="#5b6265" stroke-width="0.8" stroke-linejoin="round"/><polygon points="170.6,231.9 167.4,226.1 176.6,226.1" fill="#495257" stroke="#495257" stroke-width="0.8" stroke-linejoin="round"/><polygon points="170.6,231.9 176.6,226.1 181.1,234.0" fill="#2d3942" stroke="#2d3942" stroke-width="0.8" stroke-linejoin="round"/></g><g><polygon points="163.6,232.5 158.3,266.6 173.7,269.4 180.4,235.5" fill="#2F3A44" stroke="#17251B" stroke-width="4.5" stroke-linejoin="round"/><polygon points="167.1,248.1 163.6,232.5 158.3,266.6" fill="#4a5358" stroke="#4a5358" stroke-width="0.8" stroke-linejoin="round"/><polygon points="167.1,248.1 158.3,266.6 173.7,269.4" fill="#27323a" stroke="#27323a" stroke-width="0.8" stroke-linejoin="round"/><polygon points="167.1,248.1 173.7,269.4 180.4,235.5" fill="#29343d" stroke="#29343d" stroke-width="0.8" stroke-linejoin="round"/><polygon points="167.1,248.1 180.4,235.5 163.6,232.5" fill="#545b5f" stroke="#545b5f" stroke-width="0.8" stroke-linejoin="round"/></g><g><polygon points="154.2,260.0 177.8,260.0 190.8,286.0 152.2,286.0" fill="#1E252C" stroke="#17251B" stroke-width="4.5" stroke-linejoin="round"/><polygon points="166.5,269.5 154.2,260.0 177.8,260.0" fill="#424748" stroke="#424748" stroke-width="0.8" stroke-linejoin="round"/><polygon points="166.5,269.5 177.8,260.0 190.8,286.0" fill="#1b232a" stroke="#1b232a" stroke-width="0.8" stroke-linejoin="round"/><polygon points="166.5,269.5 190.8,286.0 152.2,286.0" fill="#1a2329" stroke="#1a2329" stroke-width="0.8" stroke-linejoin="round"/><polygon points="166.5,269.5 152.2,286.0 154.2,260.0" fill="#3a4042" stroke="#3a4042" stroke-width="0.8" stroke-linejoin="round"/></g><g><polygon points="92.0,122.0 96.0,84.0 122.0,64.0 154.0,70.0 170.0,98.0 166.0,128.0 150.0,140.0 104.0,140.0" fill="#3E4B58" stroke="#17251B" stroke-width="4.5" stroke-linejoin="round"/><polygon points="125.1,95.7 92.0,122.0 96.0,84.0" fill="#505c65" stroke="#505c65" stroke-width="0.8" stroke-linejoin="round"/><polygon points="125.1,95.7 96.0,84.0 122.0,64.0" fill="#5e686f" stroke="#5e686f" stroke-width="0.8" stroke-linejoin="round"/><polygon points="125.1,95.7 122.0,64.0 154.0,70.0" fill="#5c666d" stroke="#5c666d" stroke-width="0.8" stroke-linejoin="round"/><polygon points="125.1,95.7 154.0,70.0 170.0,98.0" fill="#3d4a56" stroke="#3d4a56" stroke-width="0.8" stroke-linejoin="round"/><polygon points="125.1,95.7 170.0,98.0 166.0,128.0" fill="#35424d" stroke="#35424d" stroke-width="0.8" stroke-linejoin="round"/><polygon points="125.1,95.7 166.0,128.0 150.0,140.0" fill="#303d47" stroke="#303d47" stroke-width="0.8" stroke-linejoin="round"/><polygon points="125.1,95.7 150.0,140.0 104.0,140.0" fill="#34414c" stroke="#34414c" stroke-width="0.8" stroke-linejoin="round"/><polygon points="125.1,95.7 104.0,140.0 92.0,122.0" fill="#3c4955" stroke="#3c4955" stroke-width="0.8" stroke-linejoin="round"/></g><g><polygon points="132.7,148.1 108.1,136.6 96.5,116.0 100.6,92.7 118.4,77.4 141.6,77.4 159.4,92.7 163.5,116.0 151.9,136.6" fill="#E8AE82" stroke="#17251B" stroke-width="4.5" stroke-linejoin="round"/><polygon points="124.4,101.5 132.7,148.1 108.1,136.6" fill="#b98f6d" stroke="#b98f6d" stroke-width="0.8" stroke-linejoin="round"/><polygon points="124.4,101.5 108.1,136.6 96.5,116.0" fill="#e9b085" stroke="#e9b085" stroke-width="0.8" stroke-linejoin="round"/><polygon points="124.4,101.5 96.5,116.0 100.6,92.7" fill="#ecbb92" stroke="#ecbb92" stroke-width="0.8" stroke-linejoin="round"/><polygon points="124.4,101.5 100.6,92.7 118.4,77.4" fill="#edbd95" stroke="#edbd95" stroke-width="0.8" stroke-linejoin="round"/><polygon points="124.4,101.5 118.4,77.4 141.6,77.4" fill="#ecbb92" stroke="#ecbb92" stroke-width="0.8" stroke-linejoin="round"/><polygon points="124.4,101.5 141.6,77.4 159.4,92.7" fill="#eab48a" stroke="#eab48a" stroke-width="0.8" stroke-linejoin="round"/><polygon points="124.4,101.5 159.4,92.7 163.5,116.0" fill="#d19f78" stroke="#d19f78" stroke-width="0.8" stroke-linejoin="round"/><polygon points="124.4,101.5 163.5,116.0 151.9,136.6" fill="#ae8768" stroke="#ae8768" stroke-width="0.8" stroke-linejoin="round"/><polygon points="124.4,101.5 151.9,136.6 132.7,148.1" fill="#a78264" stroke="#a78264" stroke-width="0.8" stroke-linejoin="round"/></g><g><polygon points="109.6,114.1 106.2,122.0 99.4,122.0 96.0,114.1 99.4,106.1 106.2,106.1" fill="#E8AE82" stroke="#17251B" stroke-width="4.5" stroke-linejoin="round"/><polygon points="101.6,112.3 109.6,114.1 106.2,122.0" fill="#a07d61" stroke="#a07d61" stroke-width="0.8" stroke-linejoin="round"/><polygon points="101.6,112.3 106.2,122.0 99.4,122.0" fill="#a78264" stroke="#a78264" stroke-width="0.8" stroke-linejoin="round"/><polygon points="101.6,112.3 99.4,122.0 96.0,114.1" fill="#e5ac80" stroke="#e5ac80" stroke-width="0.8" stroke-linejoin="round"/><polygon points="101.6,112.3 96.0,114.1 99.4,106.1" fill="#ecba91" stroke="#ecba91" stroke-width="0.8" stroke-linejoin="round"/><polygon points="101.6,112.3 99.4,106.1 106.2,106.1" fill="#ecbb92" stroke="#ecbb92" stroke-width="0.8" stroke-linejoin="round"/><polygon points="101.6,112.3 106.2,106.1 109.6,114.1" fill="#e7ad82" stroke="#e7ad82" stroke-width="0.8" stroke-linejoin="round"/></g><g><polygon points="94.0,108.0 102.0,78.0 128.0,64.0 158.0,72.0 168.0,100.0 154.0,88.0 132.0,84.0 112.0,92.0" fill="#3E4B58" stroke="#17251B" stroke-width="4.5" stroke-linejoin="round"/><polygon points="127.1,79.9 94.0,108.0 102.0,78.0" fill="#48545f" stroke="#48545f" stroke-width="0.8" stroke-linejoin="round"/><polygon points="127.1,79.9 102.0,78.0 128.0,64.0" fill="#656e73" stroke="#656e73" stroke-width="0.8" stroke-linejoin="round"/><polygon points="127.1,79.9 128.0,64.0 158.0,72.0" fill="#4f5a64" stroke="#4f5a64" stroke-width="0.8" stroke-linejoin="round"/><polygon points="127.1,79.9 158.0,72.0 168.0,100.0" fill="#37444f" stroke="#37444f" stroke-width="0.8" stroke-linejoin="round"/><polygon points="127.1,79.9 168.0,100.0 154.0,88.0" fill="#323f49" stroke="#323f49" stroke-width="0.8" stroke-linejoin="round"/><polygon points="127.1,79.9 154.0,88.0 132.0,84.0" fill="#374450" stroke="#374450" stroke-width="0.8" stroke-linejoin="round"/><polygon points="127.1,79.9 132.0,84.0 112.0,92.0" fill="#44505c" stroke="#44505c" stroke-width="0.8" stroke-linejoin="round"/><polygon points="127.1,79.9 112.0,92.0 94.0,108.0" fill="#45525d" stroke="#45525d" stroke-width="0.8" stroke-linejoin="round"/></g><g><polygon points="108.0,92.0 132.0,82.0 150.0,86.0 124.0,96.0" fill="#1E252C" stroke="#17251B" stroke-width="3" stroke-linejoin="round"/><polygon points="127.3,87.1 108.0,92.0 132.0,82.0" fill="#3d4244" stroke="#3d4244" stroke-width="0.8" stroke-linejoin="round"/><polygon points="127.3,87.1 132.0,82.0 150.0,86.0" fill="#1d252c" stroke="#1d252c" stroke-width="0.8" stroke-linejoin="round"/><polygon points="127.3,87.1 150.0,86.0 124.0,96.0" fill="#1b2329" stroke="#1b2329" stroke-width="0.8" stroke-linejoin="round"/><polygon points="127.3,87.1 124.0,96.0 108.0,92.0" fill="#2d3338" stroke="#2d3338" stroke-width="0.8" stroke-linejoin="round"/></g><g><polygon points="150.0,142.0 141.0,150.6 120.7,152.7 104.4,146.8 104.4,137.2 120.7,131.3 141.0,133.4" fill="#3DDC5B" stroke="#17251B" stroke-width="4.5" stroke-linejoin="round"/><polygon points="124.1,139.2 150.0,142.0 141.0,150.6" fill="#31aa4c" stroke="#31aa4c" stroke-width="0.8" stroke-linejoin="round"/><polygon points="124.1,139.2 141.0,150.6 120.7,152.7" fill="#30a64a" stroke="#30a64a" stroke-width="0.8" stroke-linejoin="round"/><polygon points="124.1,139.2 120.7,152.7 104.4,146.8" fill="#3fdc5d" stroke="#3fdc5d" stroke-width="0.8" stroke-linejoin="round"/><polygon points="124.1,139.2 104.4,146.8 104.4,137.2" fill="#57e06d" stroke="#57e06d" stroke-width="0.8" stroke-linejoin="round"/><polygon points="124.1,139.2 104.4,137.2 120.7,131.3" fill="#5ee172" stroke="#5ee172" stroke-width="0.8" stroke-linejoin="round"/><polygon points="124.1,139.2 120.7,131.3 141.0,133.4" fill="#56e06c" stroke="#56e06c" stroke-width="0.8" stroke-linejoin="round"/><polygon points="124.1,139.2 141.0,133.4 150.0,142.0" fill="#39ca56" stroke="#39ca56" stroke-width="0.8" stroke-linejoin="round"/></g><polygon points="135.4,115.4 140.2,120.9 133.7,121.2" fill="#b88e6c"/><polygon points="123.2,118.5 119.2,115.8 118.2,109.8 121.0,104.9 125.4,104.9 128.2,109.8 127.2,115.8" fill="#FFFDF6" stroke="#17251B" stroke-width="3" stroke-linejoin="round"/><polygon points="128.1,113.7 124.9,115.8 121.7,113.7 121.7,109.7 124.9,107.7 128.1,109.7" fill="#1F7A3D"/><polygon points="126.7,111.7 125.8,113.5 124.0,113.5 123.1,111.7 124.0,110.0 125.8,110.0" fill="#17251B"/><polygon points="127.4,109.9 126.5,111.0 125.2,110.6 125.2,109.2 126.5,108.8" fill="#fff"/><polygon points="116.1,101.2 130.3,101.2 130.3,110.3 116.1,111.7" fill="#E8AE82"/><line x1="116.1" y1="111.717" x2="130.29999999999998" y2="110.289" stroke="#17251B" stroke-width="3.5" stroke-linecap="round"/><polygon points="145.0,118.5 141.0,115.8 140.0,109.8 142.7,104.9 147.2,104.9 149.9,109.8 148.9,115.8" fill="#FFFDF6" stroke="#17251B" stroke-width="3" stroke-linejoin="round"/><polygon points="149.8,113.7 146.7,115.8 143.5,113.7 143.5,109.7 146.7,107.7 149.8,109.7" fill="#1F7A3D"/><polygon points="148.5,111.7 147.6,113.5 145.7,113.5 144.8,111.7 145.7,110.0 147.6,110.0" fill="#17251B"/><polygon points="149.1,109.9 148.3,111.0 147.0,110.6 147.0,109.2 148.3,108.8" fill="#fff"/><polygon points="137.9,101.2 152.1,101.2 152.1,110.3 137.9,111.7" fill="#E8AE82"/><line x1="137.85999999999999" y1="111.717" x2="152.05999999999997" y2="110.289" stroke="#17251B" stroke-width="3.5" stroke-linecap="round"/><polygon points="115.5,99.3 128.0,103.7 129.3,100.6 117.3,94.9" fill="#17251B" stroke="#17251B" stroke-width="2.5" stroke-linejoin="round"/><polygon points="139.9,99.8 152.4,97.1 151.8,93.7 139.1,95.1" fill="#17251B" stroke="#17251B" stroke-width="2.5" stroke-linejoin="round"/><polyline points="128.0,129.0 136.8,129.4 143.9,124.6" fill="none" stroke="#17251B" stroke-width="3.06" stroke-linecap="round" stroke-linejoin="round"/><g><polygon points="203.2,162.0 179.9,173.6 183.5,180.7 206.7,169.1" fill="#5C3A22" stroke="#17251B" stroke-width="4.5" stroke-linejoin="round"/><polygon points="191.7,168.8 203.2,162.0 179.9,173.6" fill="#7f634b" stroke="#7f634b" stroke-width="0.8" stroke-linejoin="round"/><polygon points="191.7,168.8 179.9,173.6 183.5,180.7" fill="#65452d" stroke="#65452d" stroke-width="0.8" stroke-linejoin="round"/><polygon points="191.7,168.8 183.5,180.7 206.7,169.1" fill="#463121" stroke="#463121" stroke-width="0.8" stroke-linejoin="round"/><polygon points="191.7,168.8 206.7,169.1 203.2,162.0" fill="#573822" stroke="#573822" stroke-width="0.8" stroke-linejoin="round"/></g><g><polygon points="209.2,169.6 224.3,161.0 236.0,150.0 220.2,152.8 204.3,159.7" fill="#CFF5D6" stroke="#17251B" stroke-width="4.5" stroke-linejoin="round"/><polygon points="217.1,156.0 209.2,169.6 224.3,161.0" fill="#accdb4" stroke="#accdb4" stroke-width="0.8" stroke-linejoin="round"/><polygon points="217.1,156.0 224.3,161.0 236.0,150.0" fill="#b7d9bf" stroke="#b7d9bf" stroke-width="0.8" stroke-linejoin="round"/><polygon points="217.1,156.0 236.0,150.0 220.2,152.8" fill="#ccf2d3" stroke="#ccf2d3" stroke-width="0.8" stroke-linejoin="round"/><polygon points="217.1,156.0 220.2,152.8 204.3,159.7" fill="#d8f6d8" stroke="#d8f6d8" stroke-width="0.8" stroke-linejoin="round"/><polygon points="217.1,156.0 204.3,159.7 209.2,169.6" fill="#d2f5d6" stroke="#d2f5d6" stroke-width="0.8" stroke-linejoin="round"/></g><polygon points="207.3,165.8 222.7,157.9 222.0,156.4 206.5,164.1" fill="#3DDC5B" opacity=".7"/><g><polygon points="198.2,157.7 207.2,175.6 215.2,171.6 206.3,153.7" fill="#3DDC5B" stroke="#17251B" stroke-width="4.5" stroke-linejoin="round"/><polygon points="205.2,162.4 198.2,157.7 207.2,175.6" fill="#3cda5a" stroke="#3cda5a" stroke-width="0.8" stroke-linejoin="round"/><polygon points="205.2,162.4 207.2,175.6 215.2,171.6" fill="#2d9946" stroke="#2d9946" stroke-width="0.8" stroke-linejoin="round"/><polygon points="205.2,162.4 215.2,171.6 206.3,153.7" fill="#3ad158" stroke="#3ad158" stroke-width="0.8" stroke-linejoin="round"/><polygon points="205.2,162.4 206.3,153.7 198.2,157.7" fill="#6ae37a" stroke="#6ae37a" stroke-width="0.8" stroke-linejoin="round"/></g><g><polygon points="185.1,178.9 181.6,185.0 174.6,185.0 171.1,178.9 174.6,172.9 181.6,172.9" fill="#3DDC5B" stroke="#17251B" stroke-width="4.5" stroke-linejoin="round"/><polygon points="177.0,177.3 185.1,178.9 181.6,185.0" fill="#31ab4c" stroke="#31ab4c" stroke-width="0.8" stroke-linejoin="round"/><polygon points="177.0,177.3 181.6,185.0 174.6,185.0" fill="#33b04d" stroke="#33b04d" stroke-width="0.8" stroke-linejoin="round"/><polygon points="177.0,177.3 174.6,185.0 171.1,178.9" fill="#3ddb5b" stroke="#3ddb5b" stroke-width="0.8" stroke-linejoin="round"/><polygon points="177.0,177.3 171.1,178.9 174.6,172.9" fill="#5be06f" stroke="#5be06f" stroke-width="0.8" stroke-linejoin="round"/><polygon points="177.0,177.3 174.6,172.9 181.6,172.9" fill="#56e06c" stroke="#56e06c" stroke-width="0.8" stroke-linejoin="round"/><polygon points="177.0,177.3 181.6,172.9 185.1,178.9" fill="#3cd85a" stroke="#3cd85a" stroke-width="0.8" stroke-linejoin="round"/></g><g><polygon points="140.3,156.9 164.8,184.5 175.2,175.5 151.7,147.1" fill="#2F3A44" stroke="#17251B" stroke-width="4.5" stroke-linejoin="round"/><polygon points="154.9,161.4 140.3,156.9 164.8,184.5" fill="#2e3943" stroke="#2e3943" stroke-width="0.8" stroke-linejoin="round"/><polygon points="154.9,161.4 164.8,184.5 175.2,175.5" fill="#243038" stroke="#243038" stroke-width="0.8" stroke-linejoin="round"/><polygon points="154.9,161.4 175.2,175.5 151.7,147.1" fill="#313c46" stroke="#313c46" stroke-width="0.8" stroke-linejoin="round"/><polygon points="154.9,161.4 151.7,147.1 140.3,156.9" fill="#585f62" stroke="#585f62" stroke-width="0.8" stroke-linejoin="round"/></g><g><polygon points="177.5,180.0 173.8,186.5 166.3,186.5 162.5,180.0 166.3,173.5 173.8,173.5" fill="#2F3A44" stroke="#17251B" stroke-width="4.5" stroke-linejoin="round"/><polygon points="168.9,178.3 177.5,180.0 173.8,186.5" fill="#253139" stroke="#253139" stroke-width="0.8" stroke-linejoin="round"/><polygon points="168.9,178.3 173.8,186.5 166.3,186.5" fill="#263139" stroke="#263139" stroke-width="0.8" stroke-linejoin="round"/><polygon points="168.9,178.3 166.3,186.5 162.5,180.0" fill="#2e3943" stroke="#2e3943" stroke-width="0.8" stroke-linejoin="round"/><polygon points="168.9,178.3 162.5,180.0 166.3,173.5" fill="#4d565a" stroke="#4d565a" stroke-width="0.8" stroke-linejoin="round"/><polygon points="168.9,178.3 166.3,173.5 173.8,173.5" fill="#545c5f" stroke="#545c5f" stroke-width="0.8" stroke-linejoin="round"/><polygon points="168.9,178.3 173.8,173.5 177.5,180.0" fill="#2e3943" stroke="#2e3943" stroke-width="0.8" stroke-linejoin="round"/></g><g><polygon points="172.4,186.3 198.2,175.6 193.8,164.4 167.6,173.7" fill="#2F3A44" stroke="#17251B" stroke-width="4.5" stroke-linejoin="round"/><polygon points="181.1,172.1 172.4,186.3 198.2,175.6" fill="#26313a" stroke="#26313a" stroke-width="0.8" stroke-linejoin="round"/><polygon points="181.1,172.1 198.2,175.6 193.8,164.4" fill="#2d3842" stroke="#2d3842" stroke-width="0.8" stroke-linejoin="round"/><polygon points="181.1,172.1 193.8,164.4 167.6,173.7" fill="#585f62" stroke="#585f62" stroke-width="0.8" stroke-linejoin="round"/><polygon points="181.1,172.1 167.6,173.7 172.4,186.3" fill="#3b454d" stroke="#3b454d" stroke-width="0.8" stroke-linejoin="round"/></g><g><polygon points="205.6,173.1 199.6,179.8 191.0,179.1 186.1,171.6 188.7,162.9 196.8,159.5 204.3,164.1" fill="#E8AE82" stroke="#17251B" stroke-width="4.5" stroke-linejoin="round"/><polygon points="194.3,167.4 205.6,173.1 199.6,179.8" fill="#a37f63" stroke="#a37f63" stroke-width="0.8" stroke-linejoin="round"/><polygon points="194.3,167.4 199.6,179.8 191.0,179.1" fill="#b38a6a" stroke="#b38a6a" stroke-width="0.8" stroke-linejoin="round"/><polygon points="194.3,167.4 191.0,179.1 186.1,171.6" fill="#e9b084" stroke="#e9b084" stroke-width="0.8" stroke-linejoin="round"/><polygon points="194.3,167.4 186.1,171.6 188.7,162.9" fill="#ecbb92" stroke="#ecbb92" stroke-width="0.8" stroke-linejoin="round"/><polygon points="194.3,167.4 188.7,162.9 196.8,159.5" fill="#edbf97" stroke="#edbf97" stroke-width="0.8" stroke-linejoin="round"/><polygon points="194.3,167.4 196.8,159.5 204.3,164.1" fill="#ebb68c" stroke="#ebb68c" stroke-width="0.8" stroke-linejoin="round"/><polygon points="194.3,167.4 204.3,164.1 205.6,173.1" fill="#cd9c76" stroke="#cd9c76" stroke-width="0.8" stroke-linejoin="round"/></g><g stroke="#3DDC5B" stroke-width="4" stroke-linecap="round"><line x1="40" y1="200" x2="62" y2="200"/><line x1="30" y1="216" x2="58" y2="216"/></g></svg>
