<svg xmlns="http://www.w3.org/2000/svg" viewBox="0 0 256 256" width="256" height="256"><polygon points="210.5,221.0 230.6,196.1 245.5,140.0 248.6,82.1 240.0,34.0 221.1,89.4 207.4,157.4 206.0,210.9" fill="#17251B" stroke="#17251B" stroke-width="10" stroke-linejoin="round"/><polygon points="201.8,275.7 201.6,245.3 211.5,246.8" fill="#17251B" stroke="#17251B" stroke-width="10" stroke-linejoin="round"/><polygon points="67.7,120.5 70.0,71.2 99.0,43.4 145.4,41.0 181.4,59.6 189.5,100.2 187.7,123.4 68.3,123.4" fill="#17251B" stroke="#17251B" stroke-width="10" stroke-linejoin="round"/><polygon points="155.3,39.9 148.1,54.6 130.9,60.8 113.7,54.6 106.5,39.9 113.7,25.1 130.9,19.0 148.1,25.1" fill="#17251B" stroke="#17251B" stroke-width="10" stroke-linejoin="round"/><polygon points="109.0,150.0 108.0,186.0 148.0,186.0 147.0,150.0" fill="#17251B" stroke="#17251B" stroke-width="10" stroke-linejoin="round"/><polygon points="38.0,264.0 47.0,214.0 81.2,182.0 128.0,176.0 174.8,182.0 209.0,214.0 218.0,264.0" fill="#17251B" stroke="#17251B" stroke-width="10" stroke-linejoin="round"/><polygon points="88.4,184.0 92.0,156.0 113.6,170.0 128.0,186.0 142.4,170.0 164.0,156.0 167.6,184.0" fill="#17251B" stroke="#17251B" stroke-width="10" stroke-linejoin="round"/><polygon points="128.0,252.0 106.4,180.0 92.0,190.0 104.6,216.0" fill="#17251B" stroke="#17251B" stroke-width="10" stroke-linejoin="round"/><polygon points="128.0,252.0 149.6,180.0 164.0,190.0 151.4,216.0" fill="#17251B" stroke="#17251B" stroke-width="10" stroke-linejoin="round"/><polygon points="145.6,240.0 143.1,244.3 138.1,244.3 135.6,240.0 138.1,235.7 143.1,235.7" fill="#17251B" stroke="#17251B" stroke-width="10" stroke-linejoin="round"/><polygon points="83.9,113.0 78.4,126.0 67.4,126.0 61.9,113.0 67.4,99.9 78.4,99.9" fill="#17251B" stroke="#17251B" stroke-width="10" stroke-linejoin="round"/><polygon points="195.3,113.0 189.8,126.0 178.8,126.0 173.2,113.0 178.8,99.9 189.8,99.9" fill="#17251B" stroke="#17251B" stroke-width="10" stroke-linejoin="round"/><polygon points="129.7,169.8 93.9,153.9 72.8,124.3 72.8,87.7 93.9,58.1 128.0,46.8 162.1,58.1 183.2,87.7 183.2,124.3 162.1,153.9" fill="#17251B" stroke="#17251B" stroke-width="10" stroke-linejoin="round"/><polygon points="70.6,108.9 72.9,68.3 104.8,42.2 151.2,42.2 183.1,68.3 185.4,108.9 174.4,89.8 157.0,85.1 148.3,93.2 130.9,84.0 116.4,92.1 101.9,84.0 81.6,89.8" fill="#17251B" stroke="#17251B" stroke-width="10" stroke-linejoin="round"/><polygon points="12.5,61.6 50.7,49.8 59.5,78.4 21.3,90.2" fill="#17251B" stroke="#17251B" stroke-width="10" stroke-linejoin="round"/><polygon points="19.8,66.4 51.9,56.4 56.8,72.2 24.7,82.1" fill="#17251B" stroke="#17251B" stroke-width="10" stroke-linejoin="round"/><polygon points="14.0,158.0 48.9,166.9 42.0,194.0 7.1,185.1" fill="#17251B" stroke="#17251B" stroke-width="10" stroke-linejoin="round"/><polygon points="17.3,165.3 46.6,172.8 42.8,187.7 13.5,180.3" fill="#17251B" stroke="#17251B" stroke-width="10" stroke-linejoin="round"/><polygon points="202.8,186.6 236.1,179.9 241.2,205.4 207.9,212.1" fill="#17251B" stroke="#17251B" stroke-width="10" stroke-linejoin="round"/><polygon points="208.6,191.4 236.6,185.8 239.4,199.8 211.4,205.4" fill="#17251B" stroke="#17251B" stroke-width="10" stroke-linejoin="round"/><g><polygon points="210.5,221.0 230.6,196.1 245.5,140.0 248.6,82.1 240.0,34.0 221.1,89.4 207.4,157.4 206.0,210.9" fill="#FFFDF6" stroke="#17251B" stroke-width="4" stroke-linejoin="round"/><polygon points="222.5,135.7 210.5,221.0 230.6,196.1" fill="#babcb8" stroke="#babcb8" stroke-width="0.8" stroke-linejoin="round"/><polygon points="222.5,135.7 230.6,196.1 245.5,140.0" fill="#bdbfbb" stroke="#bdbfbb" stroke-width="0.8" stroke-linejoin="round"/><polygon points="222.5,135.7 245.5,140.0 248.6,82.1" fill="#fffdf4" stroke="#fffdf4" stroke-width="0.8" stroke-linejoin="round"/><polygon points="222.5,135.7 248.6,82.1 240.0,34.0" fill="#fffcf3" stroke="#fffcf3" stroke-width="0.8" stroke-linejoin="round"/><polygon points="222.5,135.7 240.0,34.0 221.1,89.4" fill="#fffcf3" stroke="#fffcf3" stroke-width="0.8" stroke-linejoin="round"/><polygon points="222.5,135.7 221.1,89.4 207.4,157.4" fill="#fffcf2" stroke="#fffcf2" stroke-width="0.8" stroke-linejoin="round"/><polygon points="222.5,135.7 207.4,157.4 206.0,210.9" fill="#dcdcd7" stroke="#dcdcd7" stroke-width="0.8" stroke-linejoin="round"/><polygon points="222.5,135.7 206.0,210.9 210.5,221.0" fill="#d1d2cd" stroke="#d1d2cd" stroke-width="0.8" stroke-linejoin="round"/></g><polyline points="204.7,257.4 239.3,38.6" fill="none" stroke="#17251B" stroke-width="3.2" stroke-linecap="round" stroke-linejoin="round"/><polyline points="218.4,170.8 239.1,155.4" fill="none" stroke="#17251B" stroke-width="2" stroke-linecap="round" stroke-linejoin="round"/><polyline points="226.3,120.6 245.0,104.9" fill="none" stroke="#17251B" stroke-width="2" stroke-linecap="round" stroke-linejoin="round"/><polyline points="222.0,148.0 213.3,132.6" fill="none" stroke="#17251B" stroke-width="2" stroke-linecap="round" stroke-linejoin="round"/><g><polygon points="201.8,275.7 201.6,245.3 211.5,246.8" fill="#FFD23F" stroke="#17251B" stroke-width="3" stroke-linejoin="round"/><polygon points="204.1,254.6 201.8,275.7 201.6,245.3" fill="#eac23c" stroke="#eac23c" stroke-width="0.8" stroke-linejoin="round"/><polygon points="204.1,254.6 201.6,245.3 211.5,246.8" fill="#ffd857" stroke="#ffd857" stroke-width="0.8" stroke-linejoin="round"/><polygon points="204.1,254.6 211.5,246.8 201.8,275.7" fill="#b79b36" stroke="#b79b36" stroke-width="0.8" stroke-linejoin="round"/></g><g><polygon points="67.7,120.5 70.0,71.2 99.0,43.4 145.4,41.0 181.4,59.6 189.5,100.2 187.7,123.4 68.3,123.4" fill="#2E2A3A" stroke="#17251B" stroke-width="4" stroke-linejoin="round"/><polygon points="118.9,74.4 67.7,120.5 70.0,71.2" fill="#423e4a" stroke="#423e4a" stroke-width="0.8" stroke-linejoin="round"/><polygon points="118.9,74.4 70.0,71.2 99.0,43.4" fill="#565159" stroke="#565159" stroke-width="0.8" stroke-linejoin="round"/><polygon points="118.9,74.4 99.0,43.4 145.4,41.0" fill="#504b54" stroke="#504b54" stroke-width="0.8" stroke-linejoin="round"/><polygon points="118.9,74.4 145.4,41.0 181.4,59.6" fill="#2e2a3a" stroke="#2e2a3a" stroke-width="0.8" stroke-linejoin="round"/><polygon points="118.9,74.4 181.4,59.6 189.5,100.2" fill="#292735" stroke="#292735" stroke-width="0.8" stroke-linejoin="round"/><polygon points="118.9,74.4 189.5,100.2 187.7,123.4" fill="#262633" stroke="#262633" stroke-width="0.8" stroke-linejoin="round"/><polygon points="118.9,74.4 187.7,123.4 68.3,123.4" fill="#252632" stroke="#252632" stroke-width="0.8" stroke-linejoin="round"/><polygon points="118.9,74.4 68.3,123.4 67.7,120.5" fill="#302c3c" stroke="#302c3c" stroke-width="0.8" stroke-linejoin="round"/></g><g><polygon points="155.3,39.9 148.1,54.6 130.9,60.8 113.7,54.6 106.5,39.9 113.7,25.1 130.9,19.0 148.1,25.1" fill="#2E2A3A" stroke="#17251B" stroke-width="4" stroke-linejoin="round"/><polygon points="127.2,34.3 155.3,39.9 148.1,54.6" fill="#262633" stroke="#262633" stroke-width="0.8" stroke-linejoin="round"/><polygon points="127.2,34.3 148.1,54.6 130.9,60.8" fill="#252633" stroke="#252633" stroke-width="0.8" stroke-linejoin="round"/><polygon points="127.2,34.3 130.9,60.8 113.7,54.6" fill="#282735" stroke="#282735" stroke-width="0.8" stroke-linejoin="round"/><polygon points="127.2,34.3 113.7,54.6 106.5,39.9" fill="#363240" stroke="#363240" stroke-width="0.8" stroke-linejoin="round"/><polygon points="127.2,34.3 106.5,39.9 113.7,25.1" fill="#4d4852" stroke="#4d4852" stroke-width="0.8" stroke-linejoin="round"/><polygon points="127.2,34.3 113.7,25.1 130.9,19.0" fill="#514d56" stroke="#514d56" stroke-width="0.8" stroke-linejoin="round"/><polygon points="127.2,34.3 130.9,19.0 148.1,25.1" fill="#3b3744" stroke="#3b3744" stroke-width="0.8" stroke-linejoin="round"/><polygon points="127.2,34.3 148.1,25.1 155.3,39.9" fill="#2c2938" stroke="#2c2938" stroke-width="0.8" stroke-linejoin="round"/></g><g><polygon points="109.0,150.0 108.0,186.0 148.0,186.0 147.0,150.0" fill="#F6D2B4" stroke="#17251B" stroke-width="4" stroke-linejoin="round"/><polygon points="124.8,163.2 109.0,150.0 108.0,186.0" fill="#f7d7ba" stroke="#f7d7ba" stroke-width="0.8" stroke-linejoin="round"/><polygon points="124.8,163.2 108.0,186.0 148.0,186.0" fill="#bfa690" stroke="#bfa690" stroke-width="0.8" stroke-linejoin="round"/><polygon points="124.8,163.2 148.0,186.0 147.0,150.0" fill="#d0b49c" stroke="#d0b49c" stroke-width="0.8" stroke-linejoin="round"/><polygon points="124.8,163.2 147.0,150.0 109.0,150.0" fill="#f8d9bb" stroke="#f8d9bb" stroke-width="0.8" stroke-linejoin="round"/></g><g><polygon points="38.0,264.0 47.0,214.0 81.2,182.0 128.0,176.0 174.8,182.0 209.0,214.0 218.0,264.0" fill="#2E6E73" stroke="#17251B" stroke-width="4" stroke-linejoin="round"/><polygon points="120.3,202.0 38.0,264.0 47.0,214.0" fill="#427b7d" stroke="#427b7d" stroke-width="0.8" stroke-linejoin="round"/><polygon points="120.3,202.0 47.0,214.0 81.2,182.0" fill="#558787" stroke="#558787" stroke-width="0.8" stroke-linejoin="round"/><polygon points="120.3,202.0 81.2,182.0 128.0,176.0" fill="#5d8d8b" stroke="#5d8d8b" stroke-width="0.8" stroke-linejoin="round"/><polygon points="120.3,202.0 128.0,176.0 174.8,182.0" fill="#467e7f" stroke="#467e7f" stroke-width="0.8" stroke-linejoin="round"/><polygon points="120.3,202.0 174.8,182.0 209.0,214.0" fill="#2b656a" stroke="#2b656a" stroke-width="0.8" stroke-linejoin="round"/><polygon points="120.3,202.0 209.0,214.0 218.0,264.0" fill="#26575c" stroke="#26575c" stroke-width="0.8" stroke-linejoin="round"/><polygon points="120.3,202.0 218.0,264.0 38.0,264.0" fill="#275a5f" stroke="#275a5f" stroke-width="0.8" stroke-linejoin="round"/></g><g><polygon points="88.4,184.0 92.0,156.0 113.6,170.0 128.0,186.0 142.4,170.0 164.0,156.0 167.6,184.0" fill="#2E6E73" stroke="#17251B" stroke-width="4" stroke-linejoin="round"/><polygon points="125.4,168.3 88.4,184.0 92.0,156.0" fill="#4a8081" stroke="#4a8081" stroke-width="0.8" stroke-linejoin="round"/><polygon points="125.4,168.3 92.0,156.0 113.6,170.0" fill="#568887" stroke="#568887" stroke-width="0.8" stroke-linejoin="round"/><polygon points="125.4,168.3 113.6,170.0 128.0,186.0" fill="#2d6b70" stroke="#2d6b70" stroke-width="0.8" stroke-linejoin="round"/><polygon points="125.4,168.3 128.0,186.0 142.4,170.0" fill="#255459" stroke="#255459" stroke-width="0.8" stroke-linejoin="round"/><polygon points="125.4,168.3 142.4,170.0 164.0,156.0" fill="#2c686d" stroke="#2c686d" stroke-width="0.8" stroke-linejoin="round"/><polygon points="125.4,168.3 164.0,156.0 167.6,184.0" fill="#2a6267" stroke="#2a6267" stroke-width="0.8" stroke-linejoin="round"/><polygon points="125.4,168.3 167.6,184.0 88.4,184.0" fill="#275a5f" stroke="#275a5f" stroke-width="0.8" stroke-linejoin="round"/></g><g><polygon points="128.0,252.0 106.4,180.0 92.0,190.0 104.6,216.0" fill="#F3E6C8" stroke="#17251B" stroke-width="4" stroke-linejoin="round"/><polygon points="104.6,204.7 128.0,252.0 106.4,180.0" fill="#b5af9a" stroke="#b5af9a" stroke-width="0.8" stroke-linejoin="round"/><polygon points="104.6,204.7 106.4,180.0 92.0,190.0" fill="#f5e9cb" stroke="#f5e9cb" stroke-width="0.8" stroke-linejoin="round"/><polygon points="104.6,204.7 92.0,190.0 104.6,216.0" fill="#f5e9cc" stroke="#f5e9cc" stroke-width="0.8" stroke-linejoin="round"/><polygon points="104.6,204.7 104.6,216.0 128.0,252.0" fill="#aaa592" stroke="#aaa592" stroke-width="0.8" stroke-linejoin="round"/></g><g><polygon points="128.0,252.0 149.6,180.0 164.0,190.0 151.4,216.0" fill="#F3E6C8" stroke="#17251B" stroke-width="4" stroke-linejoin="round"/><polygon points="145.1,204.7 128.0,252.0 149.6,180.0" fill="#f3e6c8" stroke="#f3e6c8" stroke-width="0.8" stroke-linejoin="round"/><polygon points="145.1,204.7 149.6,180.0 164.0,190.0" fill="#f4e8ca" stroke="#f4e8ca" stroke-width="0.8" stroke-linejoin="round"/><polygon points="145.1,204.7 164.0,190.0 151.4,216.0" fill="#ede1c4" stroke="#ede1c4" stroke-width="0.8" stroke-linejoin="round"/><polygon points="145.1,204.7 151.4,216.0 128.0,252.0" fill="#bfb8a1" stroke="#bfb8a1" stroke-width="0.8" stroke-linejoin="round"/></g><g><polygon points="145.6,240.0 143.1,244.3 138.1,244.3 135.6,240.0 138.1,235.7 143.1,235.7" fill="#D9A62A" stroke="#17251B" stroke-width="2" stroke-linejoin="round"/><polygon points="139.8,238.8 145.6,240.0 143.1,244.3" fill="#9f7e27" stroke="#9f7e27" stroke-width="0.8" stroke-linejoin="round"/><polygon points="139.8,238.8 143.1,244.3 138.1,244.3" fill="#a68327" stroke="#a68327" stroke-width="0.8" stroke-linejoin="round"/><polygon points="139.8,238.8 138.1,244.3 135.6,240.0" fill="#d9a62a" stroke="#d9a62a" stroke-width="0.8" stroke-linejoin="round"/><polygon points="139.8,238.8 135.6,240.0 138.1,235.7" fill="#e0b54a" stroke="#e0b54a" stroke-width="0.8" stroke-linejoin="round"/><polygon points="139.8,238.8 138.1,235.7 143.1,235.7" fill="#deb142" stroke="#deb142" stroke-width="0.8" stroke-linejoin="round"/><polygon points="139.8,238.8 143.1,235.7 145.6,240.0" fill="#d6a42a" stroke="#d6a42a" stroke-width="0.8" stroke-linejoin="round"/></g><g><polygon points="83.9,113.0 78.4,126.0 67.4,126.0 61.9,113.0 67.4,99.9 78.4,99.9" fill="#F6D2B4" stroke="#17251B" stroke-width="4" stroke-linejoin="round"/><polygon points="71.0,110.0 83.9,113.0 78.4,126.0" fill="#ad9885" stroke="#ad9885" stroke-width="0.8" stroke-linejoin="round"/><polygon points="71.0,110.0 78.4,126.0 67.4,126.0" fill="#b7a08b" stroke="#b7a08b" stroke-width="0.8" stroke-linejoin="round"/><polygon points="71.0,110.0 67.4,126.0 61.9,113.0" fill="#eac8ac" stroke="#eac8ac" stroke-width="0.8" stroke-linejoin="round"/><polygon points="71.0,110.0 61.9,113.0 67.4,99.9" fill="#f8dabc" stroke="#f8dabc" stroke-width="0.8" stroke-linejoin="round"/><polygon points="71.0,110.0 67.4,99.9 78.4,99.9" fill="#f7d7ba" stroke="#f7d7ba" stroke-width="0.8" stroke-linejoin="round"/><polygon points="71.0,110.0 78.4,99.9 83.9,113.0" fill="#f6d3b5" stroke="#f6d3b5" stroke-width="0.8" stroke-linejoin="round"/></g><g><polygon points="195.3,113.0 189.8,126.0 178.8,126.0 173.2,113.0 178.8,99.9 189.8,99.9" fill="#F6D2B4" stroke="#17251B" stroke-width="4" stroke-linejoin="round"/><polygon points="182.3,110.0 195.3,113.0 189.8,126.0" fill="#b59f8a" stroke="#b59f8a" stroke-width="0.8" stroke-linejoin="round"/><polygon points="182.3,110.0 189.8,126.0 178.8,126.0" fill="#b29c88" stroke="#b29c88" stroke-width="0.8" stroke-linejoin="round"/><polygon points="182.3,110.0 178.8,126.0 173.2,113.0" fill="#efccaf" stroke="#efccaf" stroke-width="0.8" stroke-linejoin="round"/><polygon points="182.3,110.0 173.2,113.0 178.8,99.9" fill="#f7d8ba" stroke="#f7d8ba" stroke-width="0.8" stroke-linejoin="round"/><polygon points="182.3,110.0 178.8,99.9 189.8,99.9" fill="#f8d9bc" stroke="#f8d9bc" stroke-width="0.8" stroke-linejoin="round"/><polygon points="182.3,110.0 189.8,99.9 195.3,113.0" fill="#f1ceb1" stroke="#f1ceb1" stroke-width="0.8" stroke-linejoin="round"/></g><g><polygon points="129.7,169.8 93.9,153.9 72.8,124.3 72.8,87.7 93.9,58.1 128.0,46.8 162.1,58.1 183.2,87.7 183.2,124.3 162.1,153.9" fill="#F6D2B4" stroke="#17251B" stroke-width="4" stroke-linejoin="round"/><polygon points="118.5,91.8 129.7,169.8 93.9,153.9" fill="#c9ae97" stroke="#c9ae97" stroke-width="0.8" stroke-linejoin="round"/><polygon points="118.5,91.8 93.9,153.9 72.8,124.3" fill="#f3d0b2" stroke="#f3d0b2" stroke-width="0.8" stroke-linejoin="round"/><polygon points="118.5,91.8 72.8,124.3 72.8,87.7" fill="#f7d7b9" stroke="#f7d7b9" stroke-width="0.8" stroke-linejoin="round"/><polygon points="118.5,91.8 72.8,87.7 93.9,58.1" fill="#f7d8bb" stroke="#f7d8bb" stroke-width="0.8" stroke-linejoin="round"/><polygon points="118.5,91.8 93.9,58.1 128.0,46.8" fill="#f8dabd" stroke="#f8dabd" stroke-width="0.8" stroke-linejoin="round"/><polygon points="118.5,91.8 128.0,46.8 162.1,58.1" fill="#f7d8ba" stroke="#f7d8ba" stroke-width="0.8" stroke-linejoin="round"/><polygon points="118.5,91.8 162.1,58.1 183.2,87.7" fill="#f6d4b6" stroke="#f6d4b6" stroke-width="0.8" stroke-linejoin="round"/><polygon points="118.5,91.8 183.2,87.7 183.2,124.3" fill="#d6b99f" stroke="#d6b99f" stroke-width="0.8" stroke-linejoin="round"/><polygon points="118.5,91.8 183.2,124.3 162.1,153.9" fill="#ad9885" stroke="#ad9885" stroke-width="0.8" stroke-linejoin="round"/><polygon points="118.5,91.8 162.1,153.9 129.7,169.8" fill="#af9a86" stroke="#af9a86" stroke-width="0.8" stroke-linejoin="round"/></g><polygon points="132.6,116.4 139.6,125.7 128.0,126.3" fill="#c3aa93"/><polygon points="117.6,126.9 113.8,130.4 106.3,130.4 102.5,126.9 106.2,123.4 113.8,123.4" fill="#FF5A3C" opacity="0.4"/><polygon points="161.6,126.9 157.9,130.4 150.3,130.4 146.6,126.9 150.3,123.4 157.9,123.4" fill="#FF5A3C" opacity="0.4"/><polyline points="103.6,109.5 112.3,114.1 121.0,109.5" fill="none" stroke="#17251B" stroke-width="5.22" stroke-linecap="round" stroke-linejoin="round"/><polyline points="141.9,109.5 150.6,114.1 159.3,109.5" fill="none" stroke="#17251B" stroke-width="5.22" stroke-linecap="round" stroke-linejoin="round"/><polygon points="101.3,94.6 123.2,90.2 122.3,84.6 100.2,87.2" fill="#2E2A3A" stroke="#17251B" stroke-width="2.5" stroke-linejoin="round"/><polygon points="139.6,91.2 161.8,93.7 162.7,88.1 140.8,83.7" fill="#2E2A3A" stroke="#17251B" stroke-width="2.5" stroke-linejoin="round"/><polyline points="119.9,136.2 131.5,142.0 143.1,135.6" fill="none" stroke="#17251B" stroke-width="4.930000000000001" stroke-linecap="round" stroke-linejoin="round"/><g><polygon points="70.6,108.9 72.9,68.3 104.8,42.2 151.2,42.2 183.1,68.3 185.4,108.9 174.4,89.8 157.0,85.1 148.3,93.2 130.9,84.0 116.4,92.1 101.9,84.0 81.6,89.8" fill="#2E2A3A" stroke="#17251B" stroke-width="4" stroke-linejoin="round"/><polygon points="123.2,72.4 70.6,108.9 72.9,68.3" fill="#45414c" stroke="#45414c" stroke-width="0.8" stroke-linejoin="round"/><polygon points="123.2,72.4 72.9,68.3 104.8,42.2" fill="#565159" stroke="#565159" stroke-width="0.8" stroke-linejoin="round"/><polygon points="123.2,72.4 104.8,42.2 151.2,42.2" fill="#4c4751" stroke="#4c4751" stroke-width="0.8" stroke-linejoin="round"/><polygon points="123.2,72.4 151.2,42.2 183.1,68.3" fill="#373341" stroke="#373341" stroke-width="0.8" stroke-linejoin="round"/><polygon points="123.2,72.4 183.1,68.3 185.4,108.9" fill="#292835" stroke="#292835" stroke-width="0.8" stroke-linejoin="round"/><polygon points="123.2,72.4 185.4,108.9 174.4,89.8" fill="#282734" stroke="#282734" stroke-width="0.8" stroke-linejoin="round"/><polygon points="123.2,72.4 174.4,89.8 157.0,85.1" fill="#282734" stroke="#282734" stroke-width="0.8" stroke-linejoin="round"/><polygon points="123.2,72.4 157.0,85.1 148.3,93.2" fill="#282734" stroke="#282734" stroke-width="0.8" stroke-linejoin="round"/><polygon points="123.2,72.4 148.3,93.2 130.9,84.0" fill="#262633" stroke="#262633" stroke-width="0.8" stroke-linejoin="round"/><polygon points="123.2,72.4 130.9,84.0 116.4,92.1" fill="#2c2938" stroke="#2c2938" stroke-width="0.8" stroke-linejoin="round"/><polygon points="123.2,72.4 116.4,92.1 101.9,84.0" fill="#3b3744" stroke="#3b3744" stroke-width="0.8" stroke-linejoin="round"/><polygon points="123.2,72.4 101.9,84.0 81.6,89.8" fill="#3d3946" stroke="#3d3946" stroke-width="0.8" stroke-linejoin="round"/><polygon points="123.2,72.4 81.6,89.8 70.6,108.9" fill="#393542" stroke="#393542" stroke-width="0.8" stroke-linejoin="round"/></g><g><polygon points="12.5,61.6 50.7,49.8 59.5,78.4 21.3,90.2" fill="#FFFDF6" stroke="#17251B" stroke-width="4" stroke-linejoin="round"/><polygon points="32.4,64.6 12.5,61.6 50.7,49.8" fill="#fffcf1" stroke="#fffcf1" stroke-width="0.8" stroke-linejoin="round"/><polygon points="32.4,64.6 50.7,49.8 59.5,78.4" fill="#e3e2dd" stroke="#e3e2dd" stroke-width="0.8" stroke-linejoin="round"/><polygon points="32.4,64.6 59.5,78.4 21.3,90.2" fill="#b9bbb7" stroke="#b9bbb7" stroke-width="0.8" stroke-linejoin="round"/><polygon points="32.4,64.6 21.3,90.2 12.5,61.6" fill="#fffdf4" stroke="#fffdf4" stroke-width="0.8" stroke-linejoin="round"/></g><g><polygon points="19.8,66.4 51.9,56.4 56.8,72.2 24.7,82.1" fill="#FFFDF6" stroke="#17251B" stroke-width="2.5" stroke-linejoin="round"/><polygon points="36.0,65.9 19.8,66.4 51.9,56.4" fill="#fffcf2" stroke="#fffcf2" stroke-width="0.8" stroke-linejoin="round"/><polygon points="36.0,65.9 51.9,56.4 56.8,72.2" fill="#efeee8" stroke="#efeee8" stroke-width="0.8" stroke-linejoin="round"/><polygon points="36.0,65.9 56.8,72.2 24.7,82.1" fill="#b4b7b3" stroke="#b4b7b3" stroke-width="0.8" stroke-linejoin="round"/><polygon points="36.0,65.9 24.7,82.1 19.8,66.4" fill="#fffdf4" stroke="#fffdf4" stroke-width="0.8" stroke-linejoin="round"/></g><g><polygon points="14.0,158.0 48.9,166.9 42.0,194.0 7.1,185.1" fill="#FFFDF6" stroke="#17251B" stroke-width="4" stroke-linejoin="round"/><polygon points="24.8,171.2 14.0,158.0 48.9,166.9" fill="#fffcf2" stroke="#fffcf2" stroke-width="0.8" stroke-linejoin="round"/><polygon points="24.8,171.2 48.9,166.9 42.0,194.0" fill="#cccdc8" stroke="#cccdc8" stroke-width="0.8" stroke-linejoin="round"/><polygon points="24.8,171.2 42.0,194.0 7.1,185.1" fill="#d2d3ce" stroke="#d2d3ce" stroke-width="0.8" stroke-linejoin="round"/><polygon points="24.8,171.2 7.1,185.1 14.0,158.0" fill="#fffcf2" stroke="#fffcf2" stroke-width="0.8" stroke-linejoin="round"/></g><g><polygon points="17.3,165.3 46.6,172.8 42.8,187.7 13.5,180.3" fill="#FFFDF6" stroke="#17251B" stroke-width="2.5" stroke-linejoin="round"/><polygon points="28.1,173.6 17.3,165.3 46.6,172.8" fill="#fffcf3" stroke="#fffcf3" stroke-width="0.8" stroke-linejoin="round"/><polygon points="28.1,173.6 46.6,172.8 42.8,187.7" fill="#c2c3bf" stroke="#c2c3bf" stroke-width="0.8" stroke-linejoin="round"/><polygon points="28.1,173.6 42.8,187.7 13.5,180.3" fill="#c8c9c5" stroke="#c8c9c5" stroke-width="0.8" stroke-linejoin="round"/><polygon points="28.1,173.6 13.5,180.3 17.3,165.3" fill="#fffcf2" stroke="#fffcf2" stroke-width="0.8" stroke-linejoin="round"/></g><g><polygon points="202.8,186.6 236.1,179.9 241.2,205.4 207.9,212.1" fill="#FFFDF6" stroke="#17251B" stroke-width="4" stroke-linejoin="round"/><polygon points="219.2,191.7 202.8,186.6 236.1,179.9" fill="#fffcf2" stroke="#fffcf2" stroke-width="0.8" stroke-linejoin="round"/><polygon points="219.2,191.7 236.1,179.9 241.2,205.4" fill="#e1e1db" stroke="#e1e1db" stroke-width="0.8" stroke-linejoin="round"/><polygon points="219.2,191.7 241.2,205.4 207.9,212.1" fill="#b0b3b0" stroke="#b0b3b0" stroke-width="0.8" stroke-linejoin="round"/><polygon points="219.2,191.7 207.9,212.1 202.8,186.6" fill="#fffcf4" stroke="#fffcf4" stroke-width="0.8" stroke-linejoin="round"/></g><g><polygon points="208.6,191.4 236.6,185.8 239.4,199.8 211.4,205.4" fill="#FFFDF6" stroke="#17251B" stroke-width="2.5" stroke-linejoin="round"/><polygon points="222.3,193.0 208.6,191.4 236.6,185.8" fill="#fffcf1" stroke="#fffcf1" stroke-width="0.8" stroke-linejoin="round"/><polygon points="222.3,193.0 236.6,185.8 239.4,199.8" fill="#ecebe5" stroke="#ecebe5" stroke-width="0.8" stroke-linejoin="round"/><polygon points="222.3,193.0 239.4,199.8 211.4,205.4" fill="#b0b3af" stroke="#b0b3af" stroke-width="0.8" stroke-linejoin="round"/><polygon points="222.3,193.0 211.4,205.4 208.6,191.4" fill="#fffdf5" stroke="#fffdf5" stroke-width="0.8" stroke-linejoin="round"/></g></svg>