<svg xmlns="http://www.w3.org/2000/svg" width="48" height="48" viewBox="0 0 48 48"><defs><clipPath id="pastille_notif-c0"><polygon points="24.00,7.00 30.51,8.29 36.02,11.98 39.71,17.49 41.00,24.00 39.71,30.51 36.02,36.02 30.51,39.71 24.00,41.00 17.49,39.71 11.98,36.02 8.29,30.51 7.00,24.00 8.29,17.49 11.98,11.98 17.49,8.29"></polygon></clipPath></defs><polygon points="24.00,7.00 30.51,8.29 36.02,11.98 39.71,17.49 41.00,24.00 39.71,30.51 36.02,36.02 30.51,39.71 24.00,41.00 17.49,39.71 11.98,36.02 8.29,30.51 7.00,24.00 8.29,17.49 11.98,11.98 17.49,8.29" fill="#FF5A3C"></polygon><g clip-path="url(#pastille_notif-c0)"><polygon points="24.00,7.00 30.51,8.29 28.03,14.26 24.00,13.46" fill="#ff7960" stroke="#ff7960" stroke-width="0.35" stroke-linejoin="round"></polygon><polygon points="30.51,8.29 36.02,11.98 31.45,16.55 28.03,14.26" fill="#ff5c3f" stroke="#ff5c3f" stroke-width="0.35" stroke-linejoin="round"></polygon><polygon points="36.02,11.98 39.71,17.49 33.74,19.97 31.45,16.55" fill="#f9583b" stroke="#f9583b" stroke-width="0.35" stroke-linejoin="round"></polygon><polygon points="39.71,17.49 41.00,24.00 34.54,24.00 33.74,19.97" fill="#cd4830" stroke="#cd4830" stroke-width="0.35" stroke-linejoin="round"></polygon><polygon points="41.00,24.00 39.71,30.51 33.74,28.03 34.54,24.00" fill="#cb4830" stroke="#cb4830" stroke-width="0.35" stroke-linejoin="round"></polygon><polygon points="39.71,30.51 36.02,36.02 31.45,31.45 33.74,28.03" fill="#af3e29" stroke="#af3e29" stroke-width="0.35" stroke-linejoin="round"></polygon><polygon points="36.02,36.02 30.51,39.71 28.03,33.74 31.45,31.45" fill="#c1442d" stroke="#c1442d" stroke-width="0.35" stroke-linejoin="round"></polygon><polygon points="30.51,39.71 24.00,41.00 24.00,34.54 28.03,33.74" fill="#b9412c" stroke="#b9412c" stroke-width="0.35" stroke-linejoin="round"></polygon><polygon points="24.00,41.00 17.49,39.71 19.97,33.74 24.00,34.54" fill="#df4f34" stroke="#df4f34" stroke-width="0.35" stroke-linejoin="round"></polygon><polygon points="17.49,39.71 11.98,36.02 16.55,31.45 19.97,33.74" fill="#e75136" stroke="#e75136" stroke-width="0.35" stroke-linejoin="round"></polygon><polygon points="11.98,36.02 8.29,30.51 14.26,28.03 16.55,31.45" fill="#ff684d" stroke="#ff684d" stroke-width="0.35" stroke-linejoin="round"></polygon><polygon points="8.29,30.51 7.00,24.00 13.46,24.00 14.26,28.03" fill="#ff6d53" stroke="#ff6d53" stroke-width="0.35" stroke-linejoin="round"></polygon><polygon points="7.00,24.00 8.29,17.49 14.26,19.97 13.46,24.00" fill="#ff856f" stroke="#ff856f" stroke-width="0.35" stroke-linejoin="round"></polygon><polygon points="8.29,17.49 11.98,11.98 16.55,16.55 14.26,19.97" fill="#ff816a" stroke="#ff816a" stroke-width="0.35" stroke-linejoin="round"></polygon><polygon points="11.98,11.98 17.49,8.29 19.97,14.26 16.55,16.55" fill="#ff8c77" stroke="#ff8c77" stroke-width="0.35" stroke-linejoin="round"></polygon><polygon points="17.49,8.29 24.00,7.00 24.00,13.46 19.97,14.26" fill="#ff7a62" stroke="#ff7a62" stroke-width="0.35" stroke-linejoin="round"></polygon><polygon points="24.00,13.46 28.03,14.26 24.00,24.00" fill="#ff775f" stroke="#ff775f" stroke-width="0.35" stroke-linejoin="round"></polygon><polygon points="28.03,14.26 31.45,16.55 24.00,24.00" fill="#ff6f55" stroke="#ff6f55" stroke-width="0.35" stroke-linejoin="round"></polygon><polygon points="31.45,16.55 33.74,19.97 24.00,24.00" fill="#ff664a" stroke="#ff664a" stroke-width="0.35" stroke-linejoin="round"></polygon><polygon points="33.74,19.97 34.54,24.00 24.00,24.00" fill="#ff5e40" stroke="#ff5e40" stroke-width="0.35" stroke-linejoin="round"></polygon><polygon points="34.54,24.00 33.74,28.03 24.00,24.00" fill="#fb593b" stroke="#fb593b" stroke-width="0.35" stroke-linejoin="round"></polygon><polygon points="33.74,28.03 31.45,31.45 24.00,24.00" fill="#f5573a" stroke="#f5573a" stroke-width="0.35" stroke-linejoin="round"></polygon><polygon points="31.45,31.45 28.03,33.74 24.00,24.00" fill="#f5573a" stroke="#f5573a" stroke-width="0.35" stroke-linejoin="round"></polygon><polygon points="28.03,33.74 24.00,34.54 24.00,24.00" fill="#fb593b" stroke="#fb593b" stroke-width="0.35" stroke-linejoin="round"></polygon><polygon points="24.00,34.54 19.97,33.74 24.00,24.00" fill="#ff5e40" stroke="#ff5e40" stroke-width="0.35" stroke-linejoin="round"></polygon><polygon points="19.97,33.74 16.55,31.45 24.00,24.00" fill="#ff664a" stroke="#ff664a" stroke-width="0.35" stroke-linejoin="round"></polygon><polygon points="16.55,31.45 14.26,28.03 24.00,24.00" fill="#ff6f55" stroke="#ff6f55" stroke-width="0.35" stroke-linejoin="round"></polygon><polygon points="14.26,28.03 13.46,24.00 24.00,24.00" fill="#ff775f" stroke="#ff775f" stroke-width="0.35" stroke-linejoin="round"></polygon><polygon points="13.46,24.00 14.26,19.97 24.00,24.00" fill="#ff7e66" stroke="#ff7e66" stroke-width="0.35" stroke-linejoin="round"></polygon><polygon points="14.26,19.97 16.55,16.55 24.00,24.00" fill="#ff816a" stroke="#ff816a" stroke-width="0.35" stroke-linejoin="round"></polygon><polygon points="16.55,16.55 19.97,14.26 24.00,24.00" fill="#ff816a" stroke="#ff816a" stroke-width="0.35" stroke-linejoin="round"></polygon><polygon points="19.97,14.26 24.00,13.46 24.00,24.00" fill="#ff7e66" stroke="#ff7e66" stroke-width="0.35" stroke-linejoin="round"></polygon></g><polygon points="24.00,7.00 30.51,8.29 36.02,11.98 39.71,17.49 41.00,24.00 39.71,30.51 36.02,36.02 30.51,39.71 24.00,41.00 17.49,39.71 11.98,36.02 8.29,30.51 7.00,24.00 8.29,17.49 11.98,11.98 17.49,8.29" fill="none" stroke="#15301E" stroke-width="3.2" stroke-linejoin="round"></polygon><polygon points="14.00,17.00 19.00,11.50 23.00,11.00 17.00,19.00" fill="#FFFFFF" opacity="0.75"></polygon></svg>